<svg width="375" height="244" viewBox="0 0 375 244" fill="none" xmlns="http://www.w3.org/2000/svg">
<g filter="url(#filter0_d_38101_1235)">
<rect x="24" y="76" width="327" height="71.504" rx="13.952" fill="url(#paint0_linear_38101_1235)" shape-rendering="crispEdges"/>
<rect x="51.904" y="89.9521" width="43.6" height="43.6" rx="21.8" fill="#23262F"/>
<g clip-path="url(#clip0_38101_1235)">
<path d="M73.704 129.192C83.3358 129.192 91.144 121.384 91.144 111.752C91.144 102.12 83.3358 94.3123 73.704 94.3123C64.0721 94.3123 56.264 102.12 56.264 111.752C56.264 121.384 64.0721 129.192 73.704 129.192Z" fill="#23262F"/>
<path d="M81.4103 103.032H84.5604L78.004 109.525C76.8577 110.655 75.3132 111.288 73.704 111.288C72.0948 111.288 70.5502 110.655 69.4039 109.525L62.8421 103.032H65.9977L70.979 107.962C71.7044 108.678 72.6826 109.08 73.7018 109.08C74.721 109.08 75.6992 108.678 76.4246 107.962L81.4103 103.032ZM65.9595 121.086H62.804L69.4039 114.554C70.5502 113.424 72.0948 112.791 73.704 112.791C75.3132 112.791 76.8577 113.424 78.004 114.554L84.604 121.085H81.4484L76.429 116.112C75.7036 115.396 74.7254 114.995 73.7062 114.995C72.6869 114.995 71.7087 115.396 70.9833 116.112L65.9584 121.086H65.9595Z" fill="white"/>
</g>
<path d="M111.728 95.9048C112.838 95.9048 113.717 96.1821 114.365 96.7367C115.025 97.2913 115.354 98.0395 115.354 98.9812C115.354 99.9544 115.025 100.708 114.365 101.241C113.717 101.765 112.838 102.026 111.728 102.026L111.571 102.12H109.17V106.264H107.506V95.9048H111.728ZM111.603 100.723C112.283 100.723 112.785 100.587 113.11 100.315C113.445 100.033 113.612 99.6038 113.612 99.0283C113.612 98.4632 113.445 98.0395 113.11 97.7569C112.785 97.4744 112.283 97.3331 111.603 97.3331H109.17V100.723H111.603ZM112.592 101.069L115.966 106.264H114.036L111.148 101.728L112.592 101.069ZM118.603 97.0977C118.237 97.0977 117.954 97.0088 117.755 96.8309C117.567 96.6425 117.473 96.3809 117.473 96.0461C117.473 95.7112 117.567 95.4548 117.755 95.277C117.954 95.0991 118.237 95.0101 118.603 95.0101C118.959 95.0101 119.231 95.0991 119.419 95.277C119.618 95.4548 119.717 95.7112 119.717 96.0461C119.717 96.3809 119.618 96.6425 119.419 96.8309C119.231 97.0088 118.959 97.0977 118.603 97.0977ZM119.435 98.4162V106.264H117.755V98.4162H119.435ZM122.062 109.56V98.4162H123.554L123.679 100.614L123.459 100.347C123.585 99.9387 123.778 99.5777 124.04 99.2637C124.302 98.9498 124.626 98.7039 125.013 98.526C125.411 98.3481 125.845 98.2592 126.316 98.2592C126.954 98.2592 127.535 98.4214 128.058 98.7458C128.581 99.0702 128.995 99.5358 129.298 100.143C129.602 100.739 129.753 101.466 129.753 102.324C129.753 103.183 129.596 103.92 129.283 104.538C128.979 105.145 128.561 105.61 128.027 105.935C127.504 106.259 126.918 106.421 126.269 106.421C125.599 106.421 125.029 106.248 124.558 105.903C124.087 105.547 123.752 105.097 123.554 104.553L123.742 104.286V109.56H122.062ZM125.908 105.056C126.588 105.056 127.117 104.815 127.493 104.334C127.88 103.852 128.074 103.188 128.074 102.34C128.074 101.493 127.886 100.828 127.509 100.347C127.132 99.855 126.609 99.6091 125.939 99.6091C125.5 99.6091 125.113 99.7242 124.778 99.9544C124.453 100.174 124.197 100.488 124.009 100.896C123.831 101.294 123.742 101.775 123.742 102.34C123.742 102.895 123.831 103.376 124.009 103.784C124.187 104.192 124.438 104.506 124.762 104.726C125.086 104.946 125.468 105.056 125.908 105.056ZM131.903 109.56V98.4162H133.394L133.52 100.614L133.3 100.347C133.426 99.9387 133.619 99.5777 133.881 99.2637C134.142 98.9498 134.467 98.7039 134.854 98.526C135.252 98.3481 135.686 98.2592 136.157 98.2592C136.795 98.2592 137.376 98.4214 137.899 98.7458C138.422 99.0702 138.835 99.5358 139.139 100.143C139.442 100.739 139.594 101.466 139.594 102.324C139.594 103.183 139.437 103.92 139.123 104.538C138.82 105.145 138.401 105.61 137.868 105.935C137.344 106.259 136.758 106.421 136.11 106.421C135.44 106.421 134.87 106.248 134.399 105.903C133.928 105.547 133.593 105.097 133.394 104.553L133.583 104.286V109.56H131.903ZM135.749 105.056C136.429 105.056 136.957 104.815 137.334 104.334C137.721 103.852 137.915 103.188 137.915 102.34C137.915 101.493 137.726 100.828 137.35 100.347C136.973 99.855 136.45 99.6091 135.78 99.6091C135.34 99.6091 134.953 99.7242 134.618 99.9544C134.294 100.174 134.038 100.488 133.849 100.896C133.671 101.294 133.583 101.775 133.583 102.34C133.583 102.895 133.671 103.376 133.849 103.784C134.027 104.192 134.278 104.506 134.603 104.726C134.927 104.946 135.309 105.056 135.749 105.056ZM143.376 94.8846V104.067C143.376 104.454 143.444 104.721 143.58 104.867C143.716 105.014 143.941 105.087 144.255 105.087C144.443 105.087 144.6 105.076 144.726 105.056C144.862 105.024 145.029 104.972 145.228 104.899L145.04 106.154C144.862 106.238 144.658 106.301 144.428 106.343C144.198 106.395 143.967 106.421 143.737 106.421C143.036 106.421 142.518 106.243 142.183 105.887C141.859 105.521 141.697 104.961 141.697 104.208V94.8846H143.376ZM150.087 106.421C149.302 106.421 148.611 106.259 148.015 105.935C147.418 105.61 146.953 105.145 146.618 104.538C146.293 103.92 146.131 103.188 146.131 102.34C146.131 101.493 146.293 100.765 146.618 100.158C146.953 99.541 147.413 99.0702 147.999 98.7458C148.585 98.4214 149.249 98.2592 149.992 98.2592C150.756 98.2592 151.405 98.4162 151.939 98.7301C152.472 99.044 152.88 99.473 153.163 100.017C153.445 100.561 153.587 101.179 153.587 101.869C153.587 102.058 153.581 102.236 153.571 102.403C153.561 102.57 153.545 102.717 153.524 102.842H147.214V101.555H152.786L151.954 101.806C151.954 101.095 151.776 100.551 151.421 100.174C151.065 99.7869 150.578 99.5934 149.961 99.5934C149.511 99.5934 149.119 99.698 148.784 99.9073C148.449 100.117 148.193 100.43 148.015 100.849C147.837 101.257 147.748 101.759 147.748 102.356C147.748 102.942 147.842 103.439 148.03 103.847C148.219 104.255 148.486 104.564 148.831 104.773C149.176 104.982 149.584 105.087 150.055 105.087C150.578 105.087 151.002 104.988 151.326 104.789C151.651 104.59 151.907 104.313 152.096 103.957L153.43 104.585C153.241 104.961 152.985 105.291 152.661 105.574C152.347 105.846 151.97 106.055 151.531 106.201C151.091 106.348 150.61 106.421 150.087 106.421Z" fill="#23262F"/>
<path d="M110.448 120.183C111.311 120.183 111.995 120.399 112.499 120.83C113.012 121.261 113.268 121.843 113.268 122.576C113.268 123.333 113.012 123.919 112.499 124.334C111.995 124.741 111.311 124.944 110.448 124.944L110.326 125.017H108.458V128.24H107.164V120.183H110.448ZM110.351 123.931C110.88 123.931 111.27 123.825 111.523 123.613C111.783 123.394 111.913 123.06 111.913 122.612C111.913 122.173 111.783 121.843 111.523 121.623C111.27 121.404 110.88 121.294 110.351 121.294H108.458V123.931H110.351ZM111.12 124.199L113.744 128.24H112.243L109.997 124.712L111.12 124.199ZM116.673 120.183V128.24H115.367V120.183H116.673ZM122.163 120.183C122.741 120.183 123.238 120.285 123.653 120.488C124.076 120.692 124.405 120.981 124.641 121.355C124.877 121.729 124.995 122.181 124.995 122.71C124.995 123.231 124.877 123.683 124.641 124.065C124.405 124.439 124.076 124.728 123.653 124.932C123.238 125.135 122.741 125.237 122.163 125.237H120.369V128.24H119.062V120.183H122.163ZM121.956 124.114C122.534 124.114 122.957 123.996 123.225 123.76C123.502 123.516 123.64 123.166 123.64 122.71C123.64 122.246 123.502 121.896 123.225 121.66C122.957 121.416 122.534 121.294 121.956 121.294H120.369V124.114H121.956Z" fill="#7B7D82"/>
<path d="M248.658 106.248C247.946 106.248 247.303 106.159 246.727 105.981C246.162 105.793 245.665 105.542 245.236 105.228C244.817 104.914 244.472 104.553 244.2 104.145L245.314 103.015C245.534 103.381 245.812 103.705 246.146 103.988C246.481 104.26 246.868 104.475 247.308 104.632C247.747 104.788 248.229 104.867 248.752 104.867C249.463 104.867 250.023 104.747 250.431 104.506C250.85 104.255 251.059 103.883 251.059 103.392C251.059 103.109 250.955 102.858 250.745 102.638C250.536 102.408 250.159 102.23 249.615 102.104L247.324 101.571C246.717 101.435 246.214 101.246 245.817 101.006C245.43 100.765 245.142 100.472 244.953 100.127C244.765 99.771 244.671 99.3838 244.671 98.9653C244.671 98.3898 244.823 97.8718 245.126 97.4114C245.44 96.951 245.89 96.5847 246.476 96.3127C247.062 96.0301 247.768 95.8889 248.595 95.8889C249.484 95.8889 250.264 96.0563 250.934 96.3911C251.603 96.726 252.158 97.2283 252.597 97.8979L251.53 98.9339C251.143 98.3374 250.703 97.9084 250.212 97.6468C249.72 97.3852 249.134 97.2544 248.454 97.2544C247.951 97.2544 247.538 97.3224 247.214 97.4585C246.9 97.584 246.664 97.7619 246.507 97.9921C246.35 98.2119 246.272 98.4578 246.272 98.7298C246.272 98.9496 246.314 99.1484 246.397 99.3263C246.492 99.5042 246.659 99.6611 246.9 99.7972C247.14 99.9332 247.481 100.048 247.92 100.142L249.96 100.598C250.934 100.817 251.624 101.142 252.032 101.571C252.44 102 252.645 102.549 252.645 103.219C252.645 103.836 252.477 104.375 252.142 104.836C251.807 105.286 251.342 105.636 250.745 105.887C250.149 106.128 249.453 106.248 248.658 106.248ZM247.998 107.771V94.3977H249.254V107.771H247.998ZM256.677 106.264V99.1536C256.677 98.9443 256.677 98.7298 256.677 98.5101C256.688 98.2799 256.698 98.0392 256.709 97.7881C256.353 98.1334 255.945 98.4316 255.484 98.6827C255.034 98.9234 254.569 99.0961 254.087 99.2007L253.774 97.741C253.993 97.7096 254.25 97.6363 254.543 97.5212C254.836 97.4061 255.139 97.2596 255.453 97.0818C255.767 96.9039 256.055 96.7155 256.316 96.5167C256.578 96.3074 256.782 96.1034 256.928 95.9046H258.341V106.264H256.677ZM260.905 106.264V105.04C261.899 104.328 262.731 103.7 263.401 103.156C264.081 102.612 264.625 102.11 265.033 101.649C265.441 101.189 265.734 100.755 265.912 100.347C266.1 99.928 266.194 99.5042 266.194 99.0751C266.194 98.5206 266.022 98.0706 265.676 97.7253C265.331 97.38 264.85 97.2073 264.232 97.2073C263.584 97.2073 263.066 97.4271 262.679 97.8666C262.302 98.2956 262.087 98.8868 262.035 99.6402L260.575 98.9653C260.649 98.306 260.842 97.7358 261.156 97.2544C261.47 96.7731 261.894 96.4016 262.427 96.14C262.972 95.8784 263.599 95.7476 264.311 95.7476C264.897 95.7476 265.41 95.8313 265.849 95.9987C266.299 96.1662 266.676 96.4016 266.979 96.7051C267.283 96.998 267.513 97.3434 267.67 97.741C267.837 98.1386 267.921 98.5624 267.921 99.0124C267.921 99.6716 267.759 100.31 267.434 100.927C267.11 101.534 266.597 102.157 265.896 102.795C265.195 103.433 264.274 104.119 263.134 104.851V104.883C263.259 104.862 263.432 104.851 263.652 104.851C263.871 104.841 264.091 104.836 264.311 104.836C264.531 104.825 264.709 104.82 264.845 104.82H268.109V106.264H260.905ZM271.153 104.145C271.446 104.145 271.687 104.218 271.875 104.365C272.074 104.501 272.226 104.694 272.33 104.945C272.435 105.186 272.487 105.463 272.487 105.777C272.487 106.165 272.414 106.536 272.267 106.892C272.121 107.258 271.906 107.588 271.624 107.881C271.352 108.184 271.022 108.43 270.635 108.618L269.85 107.943C270.133 107.839 270.384 107.703 270.604 107.535C270.823 107.368 271.007 107.18 271.153 106.97C271.31 106.761 271.42 106.546 271.483 106.327L271.42 106.295C271.368 106.327 271.305 106.353 271.232 106.374C271.169 106.395 271.075 106.405 270.949 106.405C270.802 106.405 270.651 106.363 270.494 106.28C270.347 106.206 270.222 106.091 270.117 105.934C270.012 105.777 269.96 105.573 269.96 105.322C269.96 105.092 270.012 104.888 270.117 104.71C270.232 104.532 270.379 104.396 270.557 104.302C270.734 104.197 270.933 104.145 271.153 104.145ZM272.42 95.9046H280.315V97.3015C279.446 98.2014 278.745 99.1275 278.212 100.08C277.678 101.021 277.291 102.005 277.05 103.031C276.82 104.046 276.705 105.123 276.705 106.264H275.01C275.01 105.113 275.151 103.993 275.434 102.905C275.726 101.806 276.166 100.76 276.752 99.7658C277.348 98.7612 278.097 97.8195 278.996 96.9405L279.31 97.3643H272.42V95.9046ZM281.95 106.264V105.04C282.944 104.328 283.776 103.7 284.446 103.156C285.126 102.612 285.67 102.11 286.078 101.649C286.487 101.189 286.78 100.755 286.957 100.347C287.146 99.928 287.24 99.5042 287.24 99.0751C287.24 98.5206 287.067 98.0706 286.722 97.7253C286.377 97.38 285.895 97.2073 285.278 97.2073C284.629 97.2073 284.111 97.4271 283.724 97.8666C283.347 98.2956 283.133 98.8868 283.081 99.6402L281.621 98.9653C281.694 98.306 281.888 97.7358 282.202 97.2544C282.515 96.7731 282.939 96.4016 283.473 96.14C284.017 95.8784 284.645 95.7476 285.356 95.7476C285.942 95.7476 286.455 95.8313 286.895 95.9987C287.345 96.1662 287.721 96.4016 288.025 96.7051C288.328 96.998 288.558 97.3434 288.715 97.741C288.883 98.1386 288.967 98.5624 288.967 99.0124C288.967 99.6716 288.804 100.31 288.48 100.927C288.156 101.534 287.643 102.157 286.942 102.795C286.241 103.433 285.32 104.119 284.179 104.851V104.883C284.305 104.862 284.477 104.851 284.697 104.851C284.917 104.841 285.137 104.836 285.356 104.836C285.576 104.825 285.754 104.82 285.89 104.82H289.155V106.264H281.95ZM295.425 106.264V103.674H290.371V102.528C290.392 102.476 290.424 102.413 290.465 102.34C290.518 102.267 290.575 102.183 290.638 102.089L294.955 95.9046H297.011V102.371H298.769V103.674H297.011V106.264H295.425ZM291.941 102.371H295.425V98.7141C295.425 98.463 295.431 98.2066 295.441 97.945C295.462 97.673 295.478 97.4061 295.488 97.1445H295.457C295.342 97.3957 295.19 97.673 295.002 97.9764C294.824 98.2694 294.656 98.5258 294.499 98.7455L292.051 102.23C292.03 102.251 292.009 102.272 291.988 102.293C291.978 102.314 291.962 102.34 291.941 102.371ZM301.457 104.145C301.813 104.145 302.095 104.25 302.305 104.459C302.524 104.658 302.634 104.93 302.634 105.275C302.634 105.62 302.524 105.898 302.305 106.107C302.095 106.316 301.813 106.421 301.457 106.421C301.091 106.421 300.798 106.316 300.578 106.107C300.369 105.898 300.264 105.62 300.264 105.275C300.264 104.93 300.369 104.658 300.578 104.459C300.798 104.25 301.091 104.145 301.457 104.145ZM309.221 106.264V103.674H304.167V102.528C304.188 102.476 304.219 102.413 304.261 102.34C304.313 102.267 304.371 102.183 304.433 102.089L308.75 95.9046H310.806V102.371H312.564V103.674H310.806V106.264H309.221ZM305.736 102.371H309.221V98.7141C309.221 98.463 309.226 98.2066 309.236 97.945C309.257 97.673 309.273 97.4061 309.284 97.1445H309.252C309.137 97.3957 308.985 97.673 308.797 97.9764C308.619 98.2694 308.452 98.5258 308.295 98.7455L305.846 102.23C305.825 102.251 305.804 102.272 305.783 102.293C305.773 102.314 305.757 102.34 305.736 102.371ZM318.169 106.421C316.923 106.421 315.945 105.971 315.233 105.071C314.532 104.161 314.182 102.832 314.182 101.084C314.182 99.3367 314.532 98.0131 315.233 97.1131C315.945 96.2028 316.923 95.7476 318.169 95.7476C319.424 95.7476 320.403 96.2028 321.104 97.1131C321.815 98.0131 322.171 99.3367 322.171 101.084C322.171 102.832 321.815 104.161 321.104 105.071C320.403 105.971 319.424 106.421 318.169 106.421ZM318.169 104.993C318.671 104.993 319.089 104.851 319.424 104.569C319.77 104.276 320.026 103.841 320.193 103.266C320.371 102.68 320.46 101.953 320.46 101.084C320.46 100.216 320.371 99.4937 320.193 98.9182C320.026 98.3322 319.77 97.8979 319.424 97.6154C319.089 97.3224 318.671 97.1759 318.169 97.1759C317.666 97.1759 317.243 97.3224 316.897 97.6154C316.562 97.8979 316.311 98.3322 316.144 98.9182C315.976 99.4937 315.893 100.216 315.893 101.084C315.893 101.953 315.976 102.68 316.144 103.266C316.311 103.841 316.562 104.276 316.897 104.569C317.243 104.851 317.666 104.993 318.169 104.993Z" fill="#23262F"/>
<path d="M301.911 128.362C301.154 128.362 300.495 128.195 299.934 127.862C299.38 127.52 299.002 127.044 298.798 126.433L300.068 125.835C300.141 126.128 300.255 126.38 300.41 126.592C300.564 126.804 300.768 126.966 301.02 127.08C301.272 127.186 301.586 127.239 301.96 127.239C302.277 127.239 302.546 127.182 302.766 127.068C302.986 126.954 303.152 126.795 303.266 126.592C303.388 126.388 303.449 126.156 303.449 125.896C303.449 125.627 303.397 125.404 303.291 125.225C303.193 125.046 303.034 124.915 302.815 124.834C302.603 124.753 302.33 124.712 301.997 124.712C301.899 124.712 301.797 124.716 301.691 124.724C301.594 124.724 301.488 124.732 301.374 124.749V123.65C301.447 123.658 301.516 123.666 301.582 123.674C301.655 123.674 301.724 123.674 301.789 123.674C302.318 123.674 302.697 123.568 302.924 123.357C303.152 123.145 303.266 122.816 303.266 122.368C303.266 121.985 303.148 121.692 302.912 121.489C302.684 121.285 302.355 121.184 301.923 121.184C301.476 121.184 301.126 121.29 300.874 121.501C300.629 121.705 300.442 122.002 300.312 122.392L299.116 121.892C299.23 121.517 299.421 121.192 299.689 120.915C299.958 120.638 300.288 120.427 300.678 120.28C301.077 120.126 301.512 120.048 301.984 120.048C302.562 120.048 303.042 120.142 303.425 120.329C303.816 120.516 304.105 120.773 304.292 121.098C304.487 121.424 304.585 121.786 304.585 122.185C304.585 122.494 304.54 122.767 304.45 123.003C304.361 123.231 304.239 123.43 304.084 123.601C303.938 123.764 303.775 123.89 303.596 123.979C303.425 124.069 303.25 124.13 303.071 124.163V124.187C303.307 124.195 303.523 124.244 303.718 124.333C303.921 124.415 304.101 124.533 304.255 124.687C304.418 124.834 304.544 125.013 304.634 125.225C304.723 125.436 304.768 125.668 304.768 125.92C304.768 126.409 304.646 126.836 304.402 127.202C304.157 127.569 303.82 127.853 303.388 128.057C302.965 128.26 302.473 128.362 301.911 128.362ZM307.16 126.592C307.437 126.592 307.656 126.673 307.819 126.836C307.99 126.991 308.075 127.202 308.075 127.471C308.075 127.739 307.99 127.955 307.819 128.118C307.656 128.281 307.437 128.362 307.16 128.362C306.875 128.362 306.647 128.281 306.476 128.118C306.313 127.955 306.232 127.739 306.232 127.471C306.232 127.202 306.313 126.991 306.476 126.836C306.647 126.673 306.875 126.592 307.16 126.592ZM309.921 128.24V122.71C309.921 122.547 309.921 122.38 309.921 122.209C309.929 122.03 309.937 121.843 309.945 121.648C309.669 121.916 309.351 122.148 308.993 122.344C308.643 122.531 308.281 122.665 307.906 122.746L307.662 121.611C307.833 121.587 308.033 121.53 308.261 121.44C308.488 121.351 308.724 121.237 308.969 121.098C309.213 120.96 309.437 120.813 309.64 120.659C309.843 120.496 310.002 120.337 310.116 120.183H311.215V128.24H309.921ZM314.527 128.24L319.801 120.183H320.924L315.663 128.24H314.527ZM314.845 120.061C315.26 120.061 315.618 120.154 315.919 120.341C316.228 120.529 316.464 120.789 316.627 121.123C316.798 121.456 316.884 121.851 316.884 122.307C316.884 122.755 316.798 123.149 316.627 123.491C316.464 123.825 316.228 124.085 315.919 124.272C315.618 124.46 315.26 124.553 314.845 124.553C314.438 124.553 314.08 124.46 313.771 124.272C313.461 124.085 313.221 123.825 313.05 123.491C312.887 123.149 312.806 122.755 312.806 122.307C312.806 121.851 312.887 121.456 313.05 121.123C313.221 120.789 313.461 120.529 313.771 120.341C314.08 120.154 314.438 120.061 314.845 120.061ZM314.845 121.013C314.641 121.013 314.466 121.066 314.32 121.172C314.173 121.269 314.064 121.416 313.99 121.611C313.917 121.798 313.88 122.03 313.88 122.307C313.88 122.575 313.917 122.807 313.99 123.003C314.064 123.198 314.173 123.345 314.32 123.442C314.466 123.54 314.641 123.589 314.845 123.589C315.056 123.589 315.235 123.54 315.382 123.442C315.528 123.345 315.638 123.198 315.712 123.003C315.785 122.807 315.821 122.575 315.821 122.307C315.821 122.03 315.785 121.798 315.712 121.611C315.638 121.416 315.528 121.269 315.382 121.172C315.235 121.066 315.056 121.013 314.845 121.013ZM320.607 123.87C321.022 123.87 321.38 123.963 321.681 124.15C321.991 124.337 322.227 124.602 322.389 124.944C322.56 125.278 322.646 125.668 322.646 126.116C322.646 126.572 322.56 126.966 322.389 127.3C322.227 127.634 321.991 127.894 321.681 128.081C321.38 128.268 321.022 128.362 320.607 128.362C320.2 128.362 319.842 128.268 319.533 128.081C319.223 127.894 318.983 127.634 318.812 127.3C318.65 126.966 318.568 126.572 318.568 126.116C318.568 125.668 318.65 125.278 318.812 124.944C318.983 124.602 319.223 124.337 319.533 124.15C319.842 123.963 320.2 123.87 320.607 123.87ZM320.607 124.834C320.404 124.834 320.229 124.883 320.082 124.98C319.936 125.078 319.826 125.225 319.752 125.42C319.679 125.607 319.643 125.839 319.643 126.116C319.643 126.384 319.679 126.616 319.752 126.812C319.826 127.007 319.936 127.158 320.082 127.263C320.229 127.361 320.404 127.41 320.607 127.41C320.819 127.41 320.998 127.361 321.144 127.263C321.291 127.158 321.401 127.007 321.474 126.812C321.547 126.616 321.584 126.384 321.584 126.116C321.584 125.847 321.547 125.615 321.474 125.42C321.401 125.225 321.291 125.078 321.144 124.98C320.998 124.883 320.819 124.834 320.607 124.834Z" fill="#7B7D82"/>
<path d="M288.404 126.776L285.612 123.984L282.82 126.776" stroke="#5FC88F" stroke-width="1.308" stroke-linecap="round" stroke-linejoin="round"/>
</g>
<defs>
<filter id="filter0_d_38101_1235" x="-63.2" y="-2.48" width="501.4" height="245.904" filterUnits="userSpaceOnUse" color-interpolation-filters="sRGB">
<feFlood flood-opacity="0" result="BackgroundImageFix"/>
<feColorMatrix in="SourceAlpha" type="matrix" values="0 0 0 0 0 0 0 0 0 0 0 0 0 0 0 0 0 0 127 0" result="hardAlpha"/>
<feOffset dy="8.72"/>
<feGaussianBlur stdDeviation="43.6"/>
<feComposite in2="hardAlpha" operator="out"/>
<feColorMatrix type="matrix" values="0 0 0 0 0.333472 0 0 0 0 0.369612 0 0 0 0 0.408333 0 0 0 0.04 0"/>
<feBlend mode="normal" in2="BackgroundImageFix" result="effect1_dropShadow_38101_1235"/>
<feBlend mode="normal" in="SourceGraphic" in2="effect1_dropShadow_38101_1235" result="shape"/>
</filter>
<linearGradient id="paint0_linear_38101_1235" x1="187.5" y1="76" x2="187.5" y2="147.504" gradientUnits="userSpaceOnUse">
<stop stop-color="white"/>
<stop offset="1" stop-color="white" stop-opacity="0"/>
</linearGradient>
<clipPath id="clip0_38101_1235">
<rect width="34.88" height="34.88" fill="white" transform="translate(56.264 94.3123)"/>
</clipPath>
</defs>
</svg>
