<svg width="173" height="280" viewBox="0 0 173 280" fill="none" xmlns="http://www.w3.org/2000/svg">
<rect x="113.316" y="0.66333" width="201" height="200" rx="24" transform="rotate(34.5 113.316 0.66333)" fill="url(#paint0_linear_38101_1070)" fill-opacity="0.8"/>
<path d="M241.581 103.158L163.674 113.062L203.703 133.589L241.581 103.158Z" fill="#F8F8F8"/>
<path d="M161.504 163.991L135.766 184.668L205.826 181.097L161.504 163.991Z" fill="#F8F8F8"/>
<path d="M137.474 186.794L163.216 166.114L156.073 119.167L137.474 186.794Z" fill="#F8F8F8"/>
<path d="M168.553 158.327L212.862 175.408L201.439 131.907L168.553 158.327Z" fill="#F8F8F8"/>
<path d="M163.128 113.501L170.262 160.454L203.148 134.034L163.128 113.501Z" fill="#F8F8F8"/>
<circle cx="119.351" cy="64.2682" r="25" transform="rotate(34.5 119.351 64.2682)" fill="#2A5ADA"/>
<path d="M126.058 54.3171L121.112 61.5135L125.327 68.4117L126.058 54.3171Z" fill="white" fill-opacity="0.602"/>
<path d="M126.462 54.5947L113.565 60.3281L121.516 61.7911L126.462 54.5947Z" fill="white"/>
<path d="M115.825 69.2061L112.465 74.0959L124.338 69.8584L115.825 69.2061Z" fill="white" fill-opacity="0.602"/>
<path d="M112.869 74.3735L116.23 69.4829L112.573 61.772L112.869 74.3735Z" fill="white"/>
<path d="M116.746 67.8666L125.256 68.5153L121.04 61.6187L116.746 67.8666Z" fill="white" fill-opacity="0.2"/>
<path d="M113.494 60.4319L117.15 68.1444L121.444 61.8965L113.494 60.4319Z" fill="white" fill-opacity="0.602"/>
<path d="M67.4319 97.7493L71.9179 91.2222L76.6451 94.4711L76.0198 95.3809L72.3507 92.8593L71.0593 94.7383L73.9273 96.7094L73.3156 97.5995L70.4476 95.6284L69.1154 97.5667L72.9229 100.184L72.2976 101.093L67.4319 97.7493ZM79.2577 96.456L75.8797 101.371C75.712 101.615 75.6523 101.836 75.7005 102.034C75.7554 102.237 75.8916 102.413 76.1091 102.563C76.2871 102.685 76.4602 102.765 76.6283 102.803C76.8009 102.834 76.9773 102.839 77.1573 102.817L76.8645 103.752C76.6223 103.779 76.3619 103.756 76.0833 103.681C75.8159 103.604 75.5471 103.472 75.2767 103.286C74.9932 103.092 74.7645 102.866 74.5906 102.611C74.4167 102.356 74.3341 102.08 74.3427 101.785C74.3558 101.484 74.4746 101.163 74.6991 100.822L77.9956 96.0254L79.2577 96.456ZM79.9596 99.0788L79.3886 99.9095L75.6801 97.3607L76.251 96.53L79.9596 99.0788ZM77.6463 104.769L82.5741 97.5995L83.6323 98.3268L81.5592 101.343C81.937 101.147 82.3119 101.074 82.684 101.126C83.0672 101.176 83.4302 101.319 83.773 101.554C84.1225 101.794 84.388 102.079 84.5698 102.408C84.7627 102.734 84.8486 103.089 84.8277 103.473C84.8067 103.857 84.6535 104.256 84.368 104.671L82.1659 107.876L81.1077 107.148L83.0788 104.28C83.4141 103.793 83.5452 103.383 83.4723 103.051C83.4059 102.724 83.2211 102.456 82.9178 102.248C82.7068 102.103 82.4596 102.01 82.1761 101.971C81.9037 101.929 81.619 101.976 81.322 102.112C81.0361 102.246 80.7617 102.503 80.4989 102.886L78.7045 105.497L77.6463 104.769ZM85.8771 110.572C85.3826 110.232 85.0177 109.831 84.7824 109.368C84.547 108.905 84.4553 108.41 84.5071 107.883C84.5701 107.354 84.7851 106.822 85.1521 106.288C85.5191 105.754 85.9362 105.366 86.4034 105.124C86.8818 104.88 87.3758 104.783 87.8854 104.832C88.3951 104.881 88.884 105.067 89.3521 105.389C89.8334 105.719 90.1742 106.099 90.3745 106.528C90.5748 106.957 90.6462 107.404 90.5885 107.869C90.5309 108.334 90.3526 108.784 90.0535 109.22C89.972 109.338 89.8916 109.448 89.8125 109.549C89.7334 109.65 89.6601 109.736 89.5926 109.806L85.617 107.073L86.1743 106.262L89.6851 108.675L89.0522 108.473C89.3603 108.025 89.4839 107.605 89.4228 107.214C89.3663 106.816 89.1436 106.483 88.7546 106.216C88.4711 106.021 88.1785 105.917 87.8769 105.904C87.5753 105.89 87.2779 105.977 86.9845 106.164C86.6957 106.344 86.4222 106.622 86.1639 106.998C85.9102 107.367 85.7543 107.721 85.6962 108.06C85.6382 108.398 85.6726 108.708 85.7996 108.99C85.9265 109.271 86.1383 109.514 86.435 109.718C86.7647 109.944 87.0747 110.065 87.3652 110.08C87.6557 110.096 87.9373 110.032 88.21 109.889L88.7788 110.863C88.497 111.018 88.1927 111.115 87.866 111.153C87.5504 111.188 87.2224 111.157 86.8821 111.059C86.5417 110.961 86.2067 110.798 85.8771 110.572ZM89.4867 112.907L92.8852 107.962L93.7851 108.581L93.2723 109.539C93.6262 109.306 93.9883 109.196 94.3587 109.208C94.7403 109.218 95.1222 109.354 95.5046 109.617C95.6035 109.685 95.6956 109.763 95.7809 109.851C95.8707 109.932 95.9373 110.011 95.9806 110.09L95.1933 110.917C95.1389 110.841 95.0701 110.765 94.9869 110.688C94.9148 110.609 94.8029 110.518 94.6512 110.414C94.4469 110.273 94.2073 110.191 93.9324 110.167C93.6621 110.137 93.3863 110.185 93.1049 110.312C92.8301 110.444 92.5772 110.677 92.3461 111.014L90.5449 113.634L89.4867 112.907ZM95.5638 117.229C95.0693 116.89 94.7044 116.488 94.4691 116.026C94.2337 115.563 94.142 115.068 94.1938 114.541C94.2568 114.011 94.4718 113.479 94.8388 112.945C95.2058 112.411 95.6229 112.023 96.0901 111.781C96.5685 111.537 97.0625 111.44 97.5721 111.489C98.0818 111.539 98.5707 111.724 99.0388 112.046C99.5201 112.377 99.8609 112.757 100.061 113.186C100.262 113.614 100.333 114.061 100.275 114.527C100.218 114.992 100.039 115.442 99.7402 115.877C99.6587 115.996 99.5783 116.106 99.4992 116.207C99.4202 116.308 99.3468 116.393 99.2793 116.463L95.3037 113.731L95.861 112.92L99.3718 115.333L98.7389 115.131C99.047 114.682 99.1706 114.262 99.1095 113.871C99.053 113.473 98.8303 113.14 98.4413 112.873C98.1578 112.678 97.8652 112.574 97.5636 112.561C97.262 112.548 96.9646 112.635 96.6712 112.821C96.3824 113.001 96.1089 113.279 95.8506 113.655C95.5969 114.024 95.441 114.378 95.3829 114.717C95.3249 115.056 95.3593 115.366 95.4863 115.647C95.6132 115.929 95.825 116.171 96.1217 116.375C96.4514 116.602 96.7614 116.723 97.0519 116.738C97.3424 116.753 97.624 116.689 97.8967 116.547L98.4655 117.52C98.1837 117.676 97.8794 117.772 97.5527 117.81C97.2371 117.845 96.9091 117.814 96.5688 117.716C96.2284 117.618 95.8934 117.456 95.5638 117.229ZM100.866 120.873C100.543 120.651 100.284 120.386 100.088 120.077C99.8994 119.772 99.8133 119.432 99.8297 119.055C99.8461 118.678 99.9993 118.278 100.289 117.856L102.532 114.593L103.59 115.32L101.531 118.316C101.223 118.765 101.106 119.14 101.179 119.443C101.257 119.739 101.467 120.005 101.81 120.241C101.975 120.354 102.151 120.437 102.339 120.488C102.538 120.537 102.741 120.546 102.948 120.513C103.159 120.474 103.364 120.382 103.561 120.236C103.765 120.094 103.955 119.895 104.132 119.638L105.974 116.958L107.032 117.685L103.634 122.63L102.704 121.991L103.205 121.156C102.821 121.348 102.434 121.417 102.044 121.363C101.654 121.308 101.261 121.145 100.866 120.873ZM105.287 123.766L108.685 118.821L109.625 119.467L109.103 120.332C109.492 120.133 109.88 120.055 110.268 120.099C110.662 120.146 111.021 120.281 111.344 120.503C111.7 120.748 111.97 121.055 112.153 121.423C112.348 121.79 112.41 122.187 112.34 122.614C112.595 122.469 112.864 122.388 113.149 122.369C113.433 122.351 113.71 122.386 113.979 122.474C114.253 122.556 114.499 122.672 114.717 122.821C115.033 123.039 115.284 123.308 115.471 123.631C115.657 123.953 115.743 124.308 115.729 124.696C115.714 125.084 115.562 125.489 115.272 125.911L113.07 129.115L112.012 128.388L114.098 125.352C114.375 124.95 114.478 124.594 114.41 124.285C114.341 123.975 114.158 123.719 113.861 123.515C113.631 123.356 113.378 123.265 113.103 123.241C112.835 123.222 112.564 123.283 112.291 123.426C112.023 123.562 111.778 123.791 111.556 124.114L109.707 126.804L108.649 126.077L110.736 123.041C111.012 122.639 111.116 122.283 111.047 121.974C110.978 121.664 110.796 121.408 110.499 121.204C110.301 121.068 110.067 120.985 109.797 120.954C109.526 120.924 109.248 120.975 108.962 121.109C108.677 121.242 108.407 121.494 108.153 121.863L106.345 124.493L105.287 123.766Z" fill="#7B7D82"/>
<rect x="133.214" y="123.546" width="54" height="24" rx="12" transform="rotate(34.5 133.214 123.546)" fill="#58BD7D"/>
<path d="M138.084 137.978L134.645 142.982L133.725 142.35L137.164 137.346L138.084 137.978ZM138.638 141.388L138.033 142.268L133.168 138.924L133.773 138.044L138.638 141.388ZM138.643 146.692L141.722 142.212C141.813 142.08 141.906 141.945 142.001 141.806C142.107 141.666 142.218 141.519 142.334 141.365C141.96 141.428 141.574 141.439 141.175 141.398C140.787 141.355 140.419 141.262 140.07 141.12L140.505 140.064C140.657 140.14 140.85 140.204 141.084 140.259C141.319 140.313 141.573 140.352 141.848 140.376C142.123 140.4 142.386 140.406 142.637 140.394C142.892 140.375 143.109 140.335 143.288 140.273L144.178 140.885L139.692 147.412L138.643 146.692ZM142.887 147.643C143.111 147.797 143.244 147.985 143.285 148.207C143.338 148.428 143.289 148.647 143.14 148.864C142.99 149.082 142.801 149.209 142.572 149.246C142.349 149.287 142.126 149.231 141.902 149.077C141.671 148.918 141.532 148.725 141.484 148.498C141.443 148.276 141.497 148.056 141.646 147.838C141.796 147.62 141.98 147.494 142.198 147.46C142.427 147.423 142.657 147.484 142.887 147.643ZM146.861 152.34L147.983 150.708L144.798 148.519L145.295 147.797C145.33 147.773 145.377 147.747 145.435 147.719C145.5 147.696 145.573 147.668 145.653 147.636L151.051 145.609L152.346 146.499L149.546 150.573L150.653 151.335L150.089 152.156L148.982 151.394L147.86 153.026L146.861 152.34ZM146.351 148.378L148.547 149.887L150.131 147.583C150.239 147.424 150.354 147.265 150.474 147.105C150.605 146.943 150.73 146.781 150.85 146.621L150.83 146.607C150.649 146.716 150.433 146.825 150.183 146.934C149.944 147.042 149.728 147.131 149.534 147.201L146.482 148.337C146.46 148.341 146.437 148.345 146.415 148.349C146.399 148.358 146.378 148.367 146.351 148.378ZM151.218 155.334L154.297 150.854C154.387 150.722 154.48 150.587 154.575 150.448C154.682 150.308 154.793 150.161 154.908 150.007C154.534 150.07 154.148 150.082 153.749 150.04C153.361 149.997 152.993 149.904 152.645 149.762L153.079 148.706C153.231 148.782 153.424 148.846 153.659 148.901C153.893 148.955 154.148 148.994 154.423 149.018C154.697 149.042 154.96 149.048 155.211 149.036C155.467 149.017 155.684 148.977 155.862 148.915L156.752 149.527L152.266 156.054L151.218 155.334ZM154.95 157.898L163.708 154.308L164.618 154.933L155.869 158.531L154.95 157.898ZM159.761 151.449C160.097 151.68 160.335 151.955 160.475 152.275C160.621 152.599 160.667 152.941 160.613 153.302C160.566 153.667 160.415 154.035 160.161 154.404C159.912 154.767 159.623 155.039 159.295 155.22C158.977 155.4 158.641 155.48 158.286 155.459C157.938 155.443 157.596 155.32 157.259 155.089C156.93 154.862 156.692 154.587 156.545 154.263C156.399 153.939 156.35 153.594 156.397 153.229C156.455 152.861 156.609 152.496 156.858 152.134C157.112 151.765 157.398 151.49 157.715 151.31C158.04 151.135 158.379 151.058 158.734 151.079C159.089 151.099 159.431 151.223 159.761 151.449ZM159.23 152.221C159.066 152.107 158.894 152.053 158.717 152.057C158.544 152.054 158.373 152.112 158.205 152.229C158.042 152.34 157.883 152.508 157.729 152.732C157.579 152.949 157.48 153.158 157.43 153.357C157.381 153.556 157.388 153.736 157.453 153.896C157.517 154.057 157.631 154.194 157.796 154.307C157.968 154.425 158.14 154.485 158.313 154.488C158.486 154.49 158.657 154.433 158.825 154.315C158.993 154.198 159.152 154.03 159.301 153.813C159.455 153.588 159.555 153.38 159.6 153.188C159.649 152.989 159.641 152.809 159.577 152.648C159.517 152.481 159.402 152.338 159.23 152.221ZM162.308 157.743C162.644 157.974 162.882 158.249 163.022 158.568C163.168 158.892 163.212 159.238 163.154 159.605C163.106 159.971 162.958 160.335 162.709 160.698C162.455 161.067 162.166 161.339 161.842 161.514C161.524 161.694 161.188 161.773 160.833 161.753C160.485 161.737 160.143 161.613 159.807 161.382C159.477 161.156 159.239 160.88 159.093 160.557C158.946 160.233 158.897 159.888 158.944 159.523C158.998 159.162 159.152 158.797 159.406 158.427C159.655 158.065 159.938 157.794 160.256 157.614C160.585 157.432 160.926 157.352 161.281 157.372C161.636 157.393 161.978 157.516 162.308 157.743ZM161.771 158.524C161.606 158.411 161.437 158.353 161.264 158.351C161.091 158.348 160.92 158.406 160.752 158.523C160.589 158.634 160.43 158.801 160.276 159.026C160.126 159.243 160.027 159.451 159.977 159.65C159.928 159.849 159.933 160.033 159.993 160.2C160.057 160.361 160.172 160.498 160.337 160.611C160.508 160.729 160.68 160.789 160.853 160.791C161.031 160.787 161.204 160.726 161.372 160.609C161.54 160.491 161.699 160.324 161.848 160.106C161.998 159.889 162.097 159.68 162.147 159.481C162.196 159.282 162.189 159.103 162.124 158.942C162.06 158.781 161.942 158.642 161.771 158.524Z" fill="#FCFCFD"/>
<path d="M50.2087 134.419C49.3385 133.821 48.6066 133.163 48.0132 132.444C47.4198 131.726 46.9599 130.983 46.6334 130.215C46.3202 129.456 46.14 128.701 46.0929 127.95L48.8196 127.203C48.8015 127.851 48.91 128.498 49.1449 129.145C49.3889 129.779 49.7376 130.387 50.1909 130.971C50.6533 131.541 51.1878 132.034 51.7943 132.451C52.5987 133.004 53.3222 133.307 53.965 133.361C54.6077 133.414 55.1058 133.184 55.4593 132.67C55.6858 132.34 55.7488 131.966 55.6482 131.547C55.5608 131.138 55.2505 130.643 54.7172 130.063L52.3832 127.527C51.7626 126.848 51.2928 126.175 50.9738 125.51C50.6548 124.844 50.5063 124.198 50.5285 123.573C50.5729 122.943 50.7945 122.338 51.1932 121.758C51.7189 120.993 52.39 120.455 53.2065 120.142C54.0363 119.839 54.9559 119.772 55.9654 119.942C56.9881 120.12 58.0466 120.586 59.1411 121.338C60.2882 122.126 61.161 123.017 61.7594 124.011C62.3578 125.005 62.6996 126.104 62.7846 127.308L60.2125 127.957C60.1472 126.922 59.8958 126.031 59.4581 125.283C59.0426 124.532 58.413 123.866 57.5691 123.286C56.9757 122.878 56.4446 122.62 55.9757 122.511C55.5158 122.39 55.1121 122.384 54.7643 122.494C54.4298 122.614 54.1583 122.825 53.9499 123.129C53.7867 123.366 53.6945 123.613 53.6731 123.87C53.6517 124.127 53.7317 124.435 53.913 124.792C54.1166 125.146 54.45 125.579 54.9132 126.091L56.9196 128.257C57.9688 129.385 58.5779 130.406 58.747 131.318C58.9383 132.226 58.7304 133.122 58.1232 134.005C57.5432 134.849 56.8317 135.418 55.9888 135.713C55.1458 136.007 54.22 136.04 53.2113 135.813C52.2249 135.582 51.2241 135.117 50.2087 134.419ZM48.0149 135.62L59.488 118.926L61.3275 120.191L49.8544 136.884L48.0149 135.62ZM57.6279 139.547L58.9057 137.688C60.6362 137.713 62.1322 137.683 63.3938 137.599C64.6777 137.51 65.7604 137.361 66.6421 137.152C67.5461 136.938 68.2823 136.658 68.8509 136.311C69.4326 135.973 69.8956 135.554 70.24 135.053C70.6569 134.446 70.8121 133.825 70.7057 133.188C70.6084 132.539 70.2235 131.983 69.551 131.521C68.8126 131.014 68.0602 130.865 67.2939 131.077C66.5407 131.297 65.8272 131.855 65.1533 132.75L63.4113 130.243C64.0935 129.391 64.8519 128.796 65.6866 128.458C66.5436 128.115 67.4413 128.023 68.3799 128.183C69.3408 128.338 70.2959 128.742 71.2453 129.395C72.0365 129.939 72.6451 130.522 73.0712 131.145C73.5106 131.777 73.7921 132.427 73.9158 133.094C74.0485 133.748 74.035 134.389 73.8753 135.017C73.7287 135.654 73.4696 136.243 73.098 136.784C72.518 137.628 71.7588 138.28 70.8203 138.742C69.8949 139.213 68.75 139.523 67.3854 139.672C66.0208 139.821 64.3983 139.852 62.5178 139.763L62.5042 139.783C62.711 139.906 62.9575 140.056 63.2434 140.233C63.5426 140.419 63.8438 140.616 64.1471 140.825C64.4594 141.02 64.7277 141.195 64.9518 141.349L68.5516 143.823L67.0427 146.018L57.6279 139.547ZM82.951 137.44C84.1113 138.237 84.9013 139.178 85.3209 140.263C85.7496 141.334 85.8173 142.507 85.5241 143.781C85.2532 145.05 84.6375 146.384 83.6768 147.782C82.6165 149.325 81.5244 150.448 80.4005 151.151C79.2857 151.841 78.1585 152.153 77.0188 152.088C75.8923 152.032 74.795 151.637 73.727 150.903C72.6062 150.133 71.8001 149.23 71.3088 148.193C70.8307 147.165 70.7226 146.023 70.9845 144.767L74.2305 145.425C74.004 146.065 73.9554 146.673 74.0849 147.247C74.2366 147.817 74.6355 148.324 75.2816 148.768C75.7959 149.122 76.299 149.322 76.791 149.369C77.292 149.403 77.7794 149.301 78.2532 149.063C78.7401 148.835 79.2201 148.476 79.693 147.985C80.1791 147.504 80.6578 146.921 81.1291 146.235C81.1653 146.182 81.197 146.136 81.2242 146.096C81.2514 146.057 81.2831 146.011 81.3194 145.958L81.2403 145.904C80.778 146.265 80.2647 146.476 79.7002 146.534C79.158 146.589 78.6129 146.534 78.0649 146.371C77.5259 146.195 77.0191 145.944 76.5444 145.617C75.7137 145.047 75.0886 144.374 74.669 143.601C74.2717 142.823 74.0969 142.004 74.1446 141.143C74.2013 140.27 74.5106 139.424 75.0725 138.607C75.7068 137.684 76.4484 137.029 77.2971 136.641C78.1549 136.24 79.0621 136.107 80.0188 136.24C80.9978 136.369 81.9752 136.769 82.951 137.44ZM81.4482 139.669C80.7494 139.189 80.0662 139.01 79.3988 139.134C78.7536 139.253 78.1908 139.663 77.7105 140.362C77.2845 140.981 77.147 141.605 77.2979 142.233C77.4711 142.857 77.8939 143.4 78.5664 143.862C79.0015 144.161 79.4428 144.338 79.8903 144.393C80.3509 144.457 80.7823 144.395 81.1844 144.205C81.5865 144.016 81.928 143.716 82.209 143.308C82.508 142.873 82.674 142.433 82.7069 141.99C82.7398 141.547 82.6437 141.121 82.4187 140.714C82.2069 140.316 81.8834 139.968 81.4482 139.669ZM84.8908 153.829C85.3127 154.119 85.5896 154.465 85.7216 154.866C85.8625 155.254 85.8877 155.669 85.7971 156.112C85.7156 156.541 85.5344 156.96 85.2535 157.369C84.8819 157.91 84.4118 158.354 83.8433 158.701C83.288 159.057 82.6831 159.301 82.0289 159.434C81.3746 159.567 80.7265 159.577 80.0846 159.466L79.5367 157.721C80.0056 157.83 80.4576 157.878 80.8927 157.867C81.341 157.864 81.7612 157.804 82.1535 157.685C82.5457 157.566 82.8831 157.4 83.1657 157.187L83.1076 157.059C83.0145 157.053 82.9127 157.032 82.8023 156.995C82.6828 156.971 82.5373 156.9 82.3659 156.782C82.155 156.637 81.9802 156.44 81.8418 156.189C81.7123 155.926 81.6476 155.638 81.6476 155.328C81.6566 155.004 81.7744 154.677 82.0009 154.347C82.2456 153.991 82.5332 153.743 82.8636 153.601C83.194 153.459 83.5364 153.413 83.8907 153.462C84.2541 153.498 84.5875 153.621 84.8908 153.829ZM91.1454 162.875C89.9982 162.086 89.1921 161.183 88.7272 160.164C88.2755 159.155 88.1344 157.99 88.304 156.67L91.5994 157.129C91.372 157.827 91.3206 158.481 91.4452 159.091C91.5697 159.701 91.988 160.25 92.7 160.74C93.1879 161.075 93.6622 161.275 94.1228 161.339C94.5835 161.403 95.0194 161.334 95.4305 161.131C95.8549 160.937 96.2302 160.603 96.5564 160.129C96.8827 159.654 97.0623 159.195 97.0952 158.751C97.1503 158.304 97.0674 157.888 96.8465 157.503C96.6347 157.105 96.2782 156.734 95.7772 156.39C95.4343 156.154 95.0886 155.965 94.74 155.822C94.4046 155.689 94.0684 155.613 93.7314 155.595C93.4034 155.564 93.0701 155.597 92.7314 155.694L90.8671 153.83L96.6534 147.149L104.545 152.573L103.036 154.768L97.2015 150.758L94.6173 153.67L94.3813 153.887L94.4208 153.914C94.9152 153.788 95.4587 153.802 96.0512 153.957C96.6569 154.121 97.2696 154.416 97.8894 154.842C98.7464 155.431 99.3605 156.105 99.7314 156.865C100.102 157.625 100.24 158.428 100.143 159.274C100.056 160.107 99.7406 160.919 99.1969 161.71C98.6803 162.462 98.0974 163.042 97.4481 163.45C96.8079 163.845 96.1256 164.075 95.4013 164.14C94.6992 164.201 93.9835 164.126 93.2542 163.916C92.534 163.693 91.831 163.346 91.1454 162.875ZM101.033 169.379L106.715 161.111C106.924 160.808 107.137 160.498 107.354 160.182C107.594 159.861 107.838 159.534 108.087 159.2C107.358 159.301 106.612 159.312 105.85 159.235C105.087 159.158 104.375 158.979 103.714 158.699L104.934 156.16C105.256 156.342 105.651 156.487 106.12 156.596C106.611 156.701 107.12 156.779 107.648 156.831C108.197 156.878 108.712 156.892 109.192 156.873C109.693 156.849 110.116 156.77 110.46 156.637L112.675 158.16L103.703 171.214L101.033 169.379ZM111.519 176.877C109.844 175.726 108.942 174.271 108.811 172.511C108.694 170.761 109.396 168.778 110.919 166.563C112.441 164.348 114.041 162.981 115.717 162.464C117.406 161.955 119.088 162.276 120.762 163.427C122.437 164.578 123.333 166.029 123.45 167.779C123.581 169.538 122.885 171.525 121.362 173.741C119.84 175.956 118.234 177.318 116.545 177.827C114.869 178.344 113.193 178.028 111.519 176.877ZM113.028 174.681C113.595 175.071 114.165 175.23 114.738 175.158C115.334 175.082 115.951 174.778 116.589 174.246C117.235 173.7 117.917 172.906 118.633 171.865C119.349 170.823 119.841 169.909 120.109 169.123C120.387 168.324 120.45 167.639 120.298 167.069C120.169 166.494 119.821 166.012 119.254 165.623C118.687 165.233 118.105 165.076 117.509 165.152C116.923 165.215 116.306 165.519 115.659 166.064C115.035 166.606 114.364 167.397 113.648 168.439C112.932 169.481 112.429 170.397 112.138 171.187C111.87 171.973 111.807 172.658 111.95 173.241C112.101 173.812 112.461 174.292 113.028 174.681ZM122.518 179.69C123.046 180.052 123.361 180.483 123.465 180.981C123.582 181.489 123.473 181.987 123.138 182.475C122.794 182.976 122.363 183.262 121.848 183.335C121.354 183.403 120.843 183.256 120.316 182.894C119.789 182.531 119.462 182.103 119.336 181.609C119.232 181.11 119.352 180.61 119.696 180.109C120.032 179.621 120.451 179.337 120.953 179.255C121.469 179.182 121.991 179.327 122.518 179.69ZM130.336 189.518L132.443 186.452L126.074 182.075L127.297 180.295C127.454 180.209 127.655 180.114 127.9 180.011C128.168 179.904 128.467 179.779 128.798 179.637L138.516 175.92L141.78 178.163L136.274 186.174L138.391 187.628L137.031 189.606L134.915 188.152L132.808 191.217L130.336 189.518ZM129.767 181.701L133.822 184.488L136.785 180.176C136.976 179.899 137.186 179.607 137.417 179.3C137.647 178.992 137.874 178.692 138.095 178.397L138.056 178.37C137.711 178.561 137.316 178.755 136.869 178.953C136.445 179.146 136.056 179.316 135.704 179.462L130.283 181.502C130.198 181.541 130.106 181.575 130.008 181.605C129.932 181.63 129.852 181.663 129.767 181.701ZM141.767 197.666C140.092 196.515 139.19 195.06 139.059 193.3C138.942 191.55 139.644 189.567 141.167 187.352C142.689 185.137 144.289 183.77 145.965 183.253C147.654 182.744 149.336 183.065 151.01 184.216C152.685 185.367 153.581 186.817 153.698 188.568C153.829 190.327 153.133 192.314 151.61 194.53C150.088 196.745 148.482 198.107 146.793 198.615C145.117 199.133 143.441 198.817 141.767 197.666ZM143.276 195.47C143.843 195.86 144.413 196.019 144.986 195.947C145.582 195.871 146.199 195.567 146.837 195.035C147.483 194.489 148.165 193.695 148.881 192.654C149.597 191.612 150.089 190.698 150.357 189.912C150.635 189.112 150.698 188.428 150.546 187.857C150.417 187.283 150.069 186.801 149.502 186.411C148.935 186.022 148.353 185.865 147.757 185.941C147.171 186.003 146.554 186.308 145.907 186.853C145.283 187.395 144.612 188.186 143.896 189.228C143.18 190.27 142.677 191.186 142.386 191.976C142.118 192.762 142.055 193.447 142.198 194.03C142.349 194.601 142.709 195.081 143.276 195.47Z" fill="#23262F"/>
<path d="M30.0491 152.142L34.5351 145.615L39.2623 148.864L38.6369 149.773L34.9679 147.252L33.6765 149.131L36.5445 151.102L35.9328 151.992L33.0648 150.021L31.7326 151.959L35.5401 154.576L34.9148 155.486L30.0491 152.142ZM45.678 153.273L45.0527 154.183L42.8177 152.647L38.957 158.264L37.8989 157.537L41.7595 151.919L39.5244 150.383L40.1498 149.474L45.678 153.273ZM52.2955 157.821L47.8095 164.348L46.7415 163.614L51.2274 157.087L52.2955 157.821ZM48.0034 154.871L43.5175 161.398L42.4593 160.671L46.9453 154.144L48.0034 154.871ZM49.8583 160.223L49.233 161.133L44.9508 158.19L45.5762 157.28L49.8583 160.223Z" fill="#A4A6AA"/>
<defs>
<linearGradient id="paint0_linear_38101_1070" x1="213.816" y1="0.66333" x2="213.816" y2="200.663" gradientUnits="userSpaceOnUse">
<stop stop-color="white"/>
<stop offset="1" stop-color="white" stop-opacity="0"/>
</linearGradient>
</defs>
</svg>
