<svg width="375" height="290" viewBox="0 0 375 290" fill="none" xmlns="http://www.w3.org/2000/svg">
<g filter="url(#filter0_d_38101_1247)">
<rect x="20.5114" y="125.063" width="327" height="71.504" rx="13.952" transform="rotate(-8.5 20.5114 125.063)" fill="url(#paint0_linear_38101_1247)" shape-rendering="crispEdges"/>
<rect x="50.1711" y="134.738" width="43.6" height="43.6" rx="21.8" transform="rotate(-8.5 50.1711 134.738)" fill="#00ACED"/>
<g clip-path="url(#clip0_38101_1247)">
<path d="M77.5317 170.325C87.0578 168.901 93.6261 160.024 92.2024 150.498C90.7787 140.972 81.9022 134.404 72.3762 135.828C62.8501 137.251 56.2818 146.128 57.7055 155.654C59.1292 165.18 68.0057 171.748 77.5317 170.325Z" fill="#00ACED"/>
<path fill-rule="evenodd" clip-rule="evenodd" d="M63.207 148.219L63.8637 152.613L75.4515 157.18L81.7739 152.141L82.308 155.714L86.362 157.355L84.5207 145.034L74.7851 152.787L63.207 148.219Z" fill="white"/>
<path opacity="0.7" fill-rule="evenodd" clip-rule="evenodd" d="M72.8977 140.158L63.1609 147.911L65.0023 160.232L76.5802 164.799L86.2858 157.051L82.1897 155.417L75.9236 160.405L68.4427 157.471L67.2581 149.545L73.5544 144.552L81.0051 147.49L84.4444 144.73L72.8977 140.158Z" fill="white"/>
</g>
<path d="M114.208 131.186L115.152 137.504C115.355 138.86 115.15 139.933 114.538 140.722C113.926 141.512 112.937 142.009 111.571 142.213C110.226 142.414 109.14 142.228 108.313 141.653C107.497 141.077 106.988 140.11 106.785 138.755L105.841 132.437L107.502 132.188L108.416 138.305C108.56 139.267 108.873 139.95 109.357 140.354C109.84 140.758 110.507 140.897 111.355 140.77C112.214 140.641 112.816 140.313 113.16 139.786C113.505 139.258 113.605 138.513 113.461 137.551L112.547 131.434L114.208 131.186ZM118.286 141.051L117.126 133.289L118.601 133.069L119.011 135.071L118.761 134.886C118.84 134.419 118.992 134.021 119.218 133.691C119.452 133.349 119.746 133.083 120.098 132.893C120.461 132.701 120.854 132.573 121.279 132.51C121.827 132.428 122.335 132.463 122.802 132.616C123.278 132.756 123.677 133.019 123.999 133.405C124.322 133.79 124.531 134.309 124.629 134.961L125.38 139.991L123.719 140.239L123.044 135.722C122.93 134.956 122.691 134.452 122.326 134.21C121.971 133.956 121.555 133.865 121.079 133.936C120.738 133.987 120.419 134.12 120.123 134.333C119.825 134.536 119.594 134.83 119.429 135.215C119.275 135.597 119.242 136.084 119.33 136.674L119.947 140.803L118.286 141.051ZM127.381 130.424C127.019 130.478 126.726 130.432 126.503 130.285C126.289 130.127 126.157 129.882 126.108 129.551C126.058 129.219 126.113 128.952 126.273 128.748C126.444 128.543 126.71 128.413 127.072 128.359C127.424 128.306 127.706 128.354 127.919 128.502C128.142 128.649 128.278 128.888 128.328 129.219C128.377 129.55 128.317 129.823 128.149 130.039C127.989 130.243 127.733 130.371 127.381 130.424ZM128.398 131.605L129.558 139.366L127.897 139.615L126.737 131.853L128.398 131.605ZM135.13 138.692C134.354 138.808 133.623 138.764 132.936 138.56C132.25 138.356 131.679 138.007 131.224 137.515L132.225 136.349C132.516 136.74 132.893 137.032 133.356 137.228C133.828 137.411 134.364 137.458 134.964 137.368C135.44 137.297 135.805 137.158 136.06 136.951C136.315 136.743 136.42 136.489 136.375 136.189C136.345 135.993 136.253 135.832 136.096 135.707C135.949 135.571 135.688 135.488 135.313 135.459L133.632 135.361C132.78 135.319 132.15 135.144 131.744 134.834C131.337 134.514 131.09 134.07 131.005 133.5C130.942 133.076 131.007 132.664 131.202 132.265C131.396 131.866 131.715 131.522 132.158 131.233C132.611 130.933 133.173 130.732 133.846 130.632C134.622 130.516 135.305 130.556 135.896 130.754C136.484 130.941 136.962 131.266 137.327 131.73L136.322 132.864C136.064 132.48 135.728 132.218 135.316 132.078C134.902 131.929 134.488 131.885 134.074 131.947C133.743 131.996 133.465 132.08 133.239 132.198C133.013 132.317 132.849 132.458 132.747 132.621C132.644 132.785 132.608 132.965 132.637 133.161C132.668 133.368 132.773 133.538 132.951 133.67C133.13 133.802 133.427 133.879 133.843 133.902L135.668 134.01C136.435 134.043 136.995 134.213 137.347 134.52C137.709 134.816 137.927 135.212 138.001 135.708C138.075 136.205 138.012 136.664 137.81 137.086C137.607 137.497 137.278 137.842 136.822 138.122C136.367 138.402 135.803 138.592 135.13 138.692ZM148.708 128.569L150.509 128.3L149.061 136.452L147.244 136.723L144.428 131.256L143.441 137.292L141.625 137.563L137.872 130.189L139.658 129.922L142.344 135.789L143.352 129.37L145.013 129.122L147.855 134.966L148.708 128.569ZM156.865 130.191C156.788 129.674 156.583 129.297 156.252 129.061C155.929 128.813 155.519 128.726 155.022 128.8C154.557 128.87 154.174 129.038 153.876 129.305C153.577 129.572 153.386 129.96 153.304 130.469L151.819 130.088C151.921 129.428 152.228 128.863 152.74 128.395C153.262 127.926 153.979 127.623 154.89 127.487C155.511 127.394 156.074 127.416 156.581 127.551C157.087 127.677 157.504 127.921 157.834 128.285C158.173 128.647 158.391 129.143 158.485 129.774L159.002 133.236C159.059 133.619 159.28 133.782 159.662 133.725C159.849 133.697 160.026 133.644 160.194 133.566L160.273 134.729C160.052 134.878 159.76 134.98 159.398 135.034C159.067 135.083 158.758 135.071 158.472 134.998C158.195 134.912 157.961 134.762 157.77 134.547C157.588 134.32 157.47 134.026 157.416 133.664L157.399 133.555L157.739 133.488C157.706 133.906 157.565 134.271 157.315 134.583C157.064 134.885 156.757 135.132 156.394 135.324C156.03 135.505 155.651 135.626 155.258 135.684C154.771 135.757 154.32 135.745 153.903 135.649C153.497 135.551 153.157 135.363 152.883 135.087C152.618 134.799 152.45 134.422 152.381 133.956C152.294 133.376 152.409 132.872 152.726 132.444C153.053 132.014 153.554 131.68 154.227 131.442L157.15 130.402L157.309 131.569L155.187 132.346C154.765 132.494 154.457 132.662 154.263 132.849C154.069 133.037 153.994 133.281 154.039 133.581C154.082 133.871 154.226 134.088 154.469 134.231C154.722 134.363 155.034 134.401 155.407 134.345C155.665 134.306 155.909 134.238 156.138 134.14C156.377 134.041 156.585 133.91 156.761 133.746C156.936 133.571 157.059 133.368 157.13 133.135C157.21 132.89 157.227 132.613 157.18 132.302L156.865 130.191ZM162.464 137.781L160.817 126.76L162.291 126.539L162.74 128.694L162.484 128.463C162.547 128.04 162.686 127.655 162.898 127.306C163.11 126.957 163.395 126.665 163.751 126.432C164.118 126.197 164.535 126.045 165 125.976C165.632 125.881 166.23 125.956 166.795 126.199C167.361 126.443 167.838 126.842 168.228 127.398C168.616 127.943 168.874 128.64 169.001 129.488C169.128 130.337 169.081 131.09 168.862 131.747C168.652 132.392 168.307 132.914 167.827 133.314C167.357 133.712 166.802 133.959 166.16 134.055C165.498 134.154 164.908 134.067 164.391 133.796C163.873 133.513 163.476 133.118 163.198 132.609L163.345 132.317L164.125 137.533L162.464 137.781ZM165.601 132.758C166.274 132.657 166.761 132.341 167.062 131.809C167.374 131.276 167.467 130.59 167.342 129.752C167.217 128.914 166.932 128.284 166.489 127.864C166.043 127.433 165.49 127.267 164.827 127.366C164.393 127.431 164.027 127.602 163.73 127.88C163.441 128.145 163.234 128.493 163.108 128.925C162.991 129.344 162.974 129.834 163.058 130.392C163.14 130.941 163.299 131.404 163.535 131.781C163.771 132.158 164.066 132.432 164.419 132.601C164.773 132.771 165.167 132.823 165.601 132.758Z" fill="#23262F"/>
<path d="M115.644 155.519L116.378 160.433C116.536 161.488 116.377 162.322 115.901 162.936C115.425 163.551 114.655 163.937 113.593 164.096C112.546 164.252 111.702 164.107 111.059 163.66C110.424 163.212 110.028 162.46 109.87 161.406L109.136 156.492L110.428 156.299L111.139 161.056C111.251 161.805 111.495 162.336 111.871 162.65C112.247 162.964 112.765 163.072 113.425 162.973C114.093 162.873 114.561 162.618 114.829 162.208C115.097 161.798 115.175 161.218 115.063 160.469L114.352 155.712L115.644 155.519ZM124.385 154.213L125.576 162.182L124.043 162.411L120.213 157.848L119.229 156.551L119.217 156.553L119.459 157.838L120.227 162.981L119.044 163.158L117.853 155.189L119.374 154.962L123.19 159.514L124.19 160.834L124.202 160.832L123.958 159.535L123.19 154.392L124.385 154.213ZM128.035 153.667L129.226 161.636L127.934 161.829L126.743 153.86L128.035 153.667Z" fill="#7B7D82"/>
<path d="M252.933 120.912C252.229 121.017 251.58 121.024 250.984 120.933C250.398 120.831 249.869 120.656 249.398 120.409C248.938 120.16 248.543 119.854 248.214 119.491L249.149 118.208C249.42 118.538 249.742 118.818 250.115 119.048C250.487 119.267 250.901 119.422 251.359 119.513C251.817 119.603 252.305 119.609 252.822 119.532C253.526 119.427 254.062 119.225 254.43 118.927C254.807 118.616 254.959 118.218 254.886 117.732C254.844 117.452 254.704 117.219 254.464 117.033C254.223 116.836 253.824 116.716 253.268 116.672L250.922 116.483C250.302 116.438 249.777 116.326 249.349 116.147C248.93 115.966 248.602 115.719 248.365 115.405C248.126 115.081 247.976 114.712 247.914 114.298C247.829 113.729 247.902 113.194 248.134 112.694C248.377 112.192 248.767 111.764 249.307 111.408C249.845 111.042 250.522 110.798 251.34 110.676C252.22 110.544 253.015 110.595 253.727 110.827C254.439 111.059 255.062 111.474 255.595 112.071L254.693 113.253C254.222 112.721 253.724 112.361 253.199 112.175C252.674 111.989 252.075 111.947 251.402 112.047C250.905 112.121 250.507 112.25 250.206 112.432C249.914 112.603 249.707 112.814 249.586 113.064C249.463 113.305 249.422 113.56 249.462 113.829C249.495 114.046 249.566 114.237 249.675 114.4C249.794 114.562 249.983 114.693 250.241 114.792C250.499 114.891 250.853 114.954 251.301 114.982L253.386 115.131C254.381 115.204 255.112 115.423 255.579 115.787C256.046 116.151 256.329 116.664 256.428 117.327C256.52 117.937 256.434 118.495 256.171 119C255.906 119.494 255.497 119.91 254.944 120.246C254.39 120.573 253.72 120.794 252.933 120.912ZM252.506 122.515L250.53 109.289L251.771 109.104L253.748 122.33L252.506 122.515ZM260.867 119.742L259.816 112.71C259.785 112.503 259.753 112.291 259.721 112.073C259.697 111.844 259.672 111.605 259.645 111.355C259.344 111.749 258.985 112.104 258.567 112.421C258.157 112.725 257.722 112.965 257.262 113.139L256.735 111.742C256.948 111.679 257.191 111.568 257.464 111.411C257.736 111.254 258.015 111.064 258.299 110.842C258.583 110.619 258.84 110.391 259.069 110.155C259.297 109.91 259.469 109.678 259.584 109.459L260.981 109.251L262.512 119.496L260.867 119.742ZM269.643 118.431L269.26 115.869L264.262 116.616L264.092 115.483C264.105 115.428 264.127 115.361 264.158 115.283C264.199 115.203 264.243 115.111 264.291 115.009L267.646 108.255L269.68 107.951L270.636 114.346L272.374 114.087L272.567 115.375L270.828 115.635L271.211 118.196L269.643 118.431ZM265.622 115.096L269.068 114.581L268.527 110.964C268.49 110.715 268.457 110.461 268.429 110.201C268.41 109.929 268.386 109.662 268.357 109.402L268.326 109.407C268.25 109.672 268.14 109.969 267.999 110.297C267.866 110.613 267.739 110.891 267.616 111.132L265.709 114.94C265.692 114.964 265.674 114.987 265.657 115.011C265.649 115.033 265.638 115.062 265.622 115.096ZM275.28 115.446C275.57 115.402 275.818 115.439 276.026 115.556C276.243 115.661 276.422 115.83 276.562 116.063C276.701 116.286 276.794 116.552 276.841 116.863C276.898 117.246 276.88 117.624 276.788 117.998C276.697 118.381 276.534 118.739 276.298 119.071C276.073 119.411 275.784 119.703 275.429 119.946L274.553 119.395C274.817 119.25 275.045 119.078 275.238 118.88C275.43 118.682 275.583 118.469 275.697 118.24C275.822 118.01 275.899 117.781 275.928 117.555L275.862 117.533C275.814 117.572 275.756 117.607 275.687 117.638C275.628 117.668 275.536 117.693 275.412 117.711C275.267 117.733 275.111 117.714 274.943 117.654C274.788 117.603 274.646 117.508 274.52 117.368C274.393 117.229 274.311 117.035 274.274 116.786C274.24 116.559 274.262 116.349 274.339 116.158C274.426 115.965 274.551 115.808 274.713 115.689C274.874 115.559 275.063 115.478 275.28 115.446ZM281.097 106.086C281.646 106.004 282.144 106.008 282.592 106.1C283.037 106.182 283.44 106.36 283.798 106.634C284.167 106.907 284.493 107.287 284.778 107.773L283.423 108.69C283.212 108.267 282.926 107.949 282.567 107.739C282.217 107.526 281.763 107.462 281.205 107.545C280.801 107.606 280.459 107.757 280.178 108.001C279.896 108.244 279.674 108.562 279.511 108.957C279.346 109.341 279.243 109.785 279.202 110.289C279.16 110.782 279.18 111.308 279.264 111.867C279.268 111.898 279.274 111.934 279.28 111.975C279.284 112.006 279.293 112.063 279.305 112.146L279.372 112.168C279.424 111.737 279.576 111.376 279.829 111.084C280.09 110.78 280.398 110.539 280.752 110.359C281.106 110.179 281.464 110.062 281.826 110.008C282.51 109.906 283.125 109.951 283.672 110.144C284.218 110.327 284.667 110.641 285.019 111.086C285.381 111.529 285.613 112.087 285.713 112.76C285.815 113.443 285.754 114.06 285.53 114.612C285.304 115.154 284.943 115.604 284.447 115.964C283.959 116.312 283.343 116.542 282.597 116.653C281.728 116.783 280.956 116.676 280.28 116.333C279.605 115.99 279.048 115.449 278.609 114.71C278.171 113.971 277.873 113.074 277.715 112.019C277.54 110.849 277.575 109.844 277.82 109.004C278.075 108.161 278.489 107.496 279.061 107.009C279.632 106.511 280.311 106.203 281.097 106.086ZM281.785 111.426C281.391 111.485 281.057 111.62 280.782 111.83C280.505 112.03 280.299 112.283 280.165 112.589C280.041 112.893 280.007 113.231 280.063 113.604C280.117 113.966 280.254 114.279 280.473 114.543C280.702 114.804 280.98 115.001 281.307 115.132C281.632 115.253 281.98 115.285 282.353 115.23C282.984 115.135 283.45 114.891 283.751 114.497C284.052 114.103 284.158 113.606 284.068 113.005C284.011 112.623 283.884 112.303 283.687 112.047C283.488 111.78 283.228 111.597 282.906 111.497C282.593 111.385 282.219 111.361 281.785 111.426ZM291.513 115.321C290.602 115.457 289.823 115.372 289.174 115.067C288.536 114.761 287.99 114.26 287.537 113.566L288.969 112.527C289.198 113 289.492 113.374 289.851 113.649C290.218 113.911 290.712 113.996 291.333 113.903C291.768 113.838 292.124 113.706 292.4 113.506C292.686 113.294 292.89 113.031 293.012 112.716C293.133 112.391 293.163 112.022 293.101 111.608C293.036 111.173 292.904 110.823 292.705 110.556C292.507 110.289 292.252 110.105 291.941 110.004C291.628 109.892 291.254 109.868 290.819 109.933C290.519 109.978 290.244 110.051 289.995 110.152C289.745 110.253 289.527 110.386 289.34 110.551C289.152 110.706 288.995 110.899 288.871 111.129L287.466 111.069L287.242 105.326L293.203 104.435L293.417 105.863L288.775 106.557L288.834 109.5L288.828 109.675L288.86 109.671C289.059 109.376 289.334 109.129 289.685 108.928C290.046 108.726 290.486 108.587 291.003 108.509C291.665 108.41 292.255 108.465 292.773 108.673C293.289 108.871 293.719 109.193 294.06 109.639C294.402 110.086 294.621 110.629 294.717 111.271C294.8 111.83 294.781 112.341 294.66 112.803C294.539 113.266 294.33 113.672 294.033 114.024C293.736 114.375 293.372 114.662 292.94 114.885C292.517 115.097 292.041 115.242 291.513 115.321ZM299.221 114.01L298.17 106.978C298.139 106.771 298.108 106.559 298.075 106.341C298.051 106.112 298.026 105.873 297.999 105.623C297.699 106.017 297.339 106.372 296.921 106.688C296.511 106.993 296.076 107.233 295.616 107.407L295.09 106.01C295.302 105.946 295.545 105.836 295.818 105.679C296.09 105.522 296.369 105.332 296.653 105.11C296.937 104.887 297.194 104.659 297.423 104.423C297.651 104.178 297.823 103.946 297.938 103.727L299.335 103.519L300.867 113.764L299.221 114.01ZM304.129 111.134C304.481 111.081 304.776 111.143 305.014 111.319C305.261 111.483 305.409 111.736 305.461 112.078C305.512 112.419 305.444 112.71 305.257 112.949C305.081 113.187 304.817 113.332 304.466 113.385C304.103 113.439 303.798 113.379 303.55 113.204C303.312 113.028 303.168 112.77 303.116 112.428C303.065 112.087 303.129 111.802 303.306 111.574C303.493 111.335 303.767 111.188 304.129 111.134ZM307.953 112.705L306.902 105.673C306.871 105.466 306.84 105.254 306.807 105.036C306.783 104.807 306.758 104.568 306.731 104.318C306.431 104.712 306.071 105.067 305.653 105.383C305.243 105.688 304.808 105.928 304.348 106.102L303.822 104.705C304.034 104.641 304.277 104.531 304.55 104.374C304.822 104.217 305.101 104.027 305.385 103.805C305.669 103.582 305.926 103.354 306.155 103.118C306.383 102.873 306.555 102.641 306.67 102.422L308.067 102.214L309.599 112.459L307.953 112.705ZM315.945 111.669C314.714 111.853 313.68 111.553 312.843 110.768C312.015 109.971 311.472 108.709 311.214 106.981C310.955 105.252 311.106 103.891 311.667 102.898C312.236 101.892 313.136 101.297 314.368 101.113C315.61 100.928 316.645 101.233 317.472 102.03C318.309 102.815 318.857 104.071 319.115 105.8C319.373 107.528 319.218 108.895 318.649 109.9C318.088 110.894 317.187 111.484 315.945 111.669ZM315.734 110.257C316.231 110.182 316.624 109.981 316.913 109.652C317.212 109.311 317.401 108.844 317.482 108.25C317.571 107.644 317.551 106.912 317.423 106.053C317.295 105.194 317.1 104.493 316.839 103.95C316.587 103.395 316.269 103.003 315.886 102.775C315.511 102.535 315.076 102.452 314.579 102.526C314.082 102.6 313.685 102.808 313.386 103.149C313.097 103.477 312.913 103.944 312.834 104.548C312.753 105.142 312.777 105.869 312.906 106.728C313.034 107.587 313.224 108.294 313.476 108.848C313.727 109.393 314.04 109.785 314.414 110.025C314.797 110.254 315.237 110.331 315.734 110.257Z" fill="#23262F"/>
<path d="M296.461 136.643L296.32 135.701C297.003 135.039 297.571 134.461 298.023 133.965C298.484 133.468 298.845 133.019 299.106 132.618C299.367 132.217 299.542 131.85 299.632 131.515C299.729 131.172 299.753 130.835 299.703 130.505C299.64 130.078 299.455 129.752 299.15 129.526C298.844 129.3 298.454 129.223 297.979 129.294C297.48 129.368 297.107 129.597 296.86 129.979C296.619 130.353 296.522 130.832 296.569 131.418L295.368 131.066C295.349 130.551 295.432 130.09 295.618 129.683C295.805 129.277 296.088 128.943 296.468 128.68C296.857 128.416 297.325 128.243 297.872 128.162C298.323 128.094 298.727 128.1 299.084 128.178C299.449 128.255 299.766 128.393 300.035 128.591C300.302 128.782 300.519 129.021 300.685 129.309C300.859 129.595 300.973 129.912 301.024 130.258C301.1 130.765 301.049 131.275 300.87 131.787C300.69 132.291 300.368 132.829 299.902 133.401C299.436 133.972 298.806 134.605 298.013 135.3L298.017 135.324C298.111 135.293 298.242 135.266 298.411 135.24C298.579 135.207 298.748 135.178 298.917 135.152C299.085 135.119 299.221 135.095 299.325 135.079L301.837 134.704L302.003 135.814L296.461 136.643ZM304.113 133.833C304.386 133.792 304.616 133.84 304.801 133.977C304.993 134.104 305.108 134.301 305.148 134.567C305.188 134.832 305.135 135.058 304.99 135.245C304.853 135.43 304.648 135.543 304.374 135.583C304.093 135.626 303.855 135.579 303.662 135.443C303.477 135.306 303.365 135.105 303.325 134.839C303.285 134.574 303.334 134.352 303.473 134.175C303.618 133.989 303.831 133.875 304.113 133.833ZM310.328 134.57L310.031 132.578L306.143 133.159L306.011 132.278C306.021 132.235 306.038 132.183 306.062 132.122C306.094 132.06 306.128 131.989 306.166 131.909L308.775 126.656L310.357 126.419L311.1 131.394L312.453 131.192L312.602 132.194L311.25 132.396L311.548 134.388L310.328 134.57ZM307.2 131.976L309.881 131.576L309.46 128.763C309.431 128.569 309.406 128.372 309.384 128.169C309.369 127.958 309.35 127.75 309.328 127.548L309.304 127.552C309.244 127.758 309.16 127.989 309.05 128.244C308.946 128.49 308.847 128.706 308.752 128.893L307.269 131.855C307.255 131.874 307.241 131.892 307.228 131.911C307.222 131.928 307.213 131.95 307.2 131.976ZM315.569 133.787L319.594 125.039L320.705 124.873L316.692 133.619L315.569 133.787ZM314.674 125.651C315.085 125.589 315.453 125.629 315.778 125.769C316.112 125.909 316.384 126.132 316.594 126.437C316.812 126.742 316.955 127.12 317.023 127.571C317.089 128.013 317.063 128.417 316.944 128.78C316.832 129.134 316.637 129.426 316.359 129.657C316.089 129.887 315.749 130.032 315.338 130.094C314.936 130.154 314.568 130.114 314.234 129.975C313.901 129.835 313.625 129.613 313.406 129.309C313.195 128.995 313.056 128.616 312.99 128.173C312.922 127.723 312.945 127.32 313.056 126.966C313.176 126.611 313.375 126.318 313.653 126.087C313.931 125.856 314.272 125.711 314.674 125.651ZM314.815 126.592C314.614 126.622 314.448 126.701 314.319 126.827C314.189 126.945 314.102 127.106 314.058 127.31C314.013 127.506 314.011 127.741 314.052 128.015C314.092 128.28 314.163 128.504 314.264 128.687C314.365 128.869 314.496 128.998 314.655 129.073C314.814 129.148 314.994 129.17 315.196 129.14C315.405 129.109 315.575 129.034 315.705 128.916C315.836 128.797 315.923 128.636 315.966 128.432C316.01 128.228 316.012 127.993 315.972 127.728C315.931 127.454 315.861 127.23 315.761 127.056C315.659 126.873 315.529 126.745 315.37 126.67C315.209 126.587 315.024 126.561 314.815 126.592ZM320.936 128.566C321.347 128.505 321.715 128.544 322.04 128.685C322.374 128.824 322.646 129.051 322.858 129.365C323.076 129.67 323.218 130.043 323.284 130.486C323.352 130.937 323.326 131.34 323.206 131.695C323.094 132.049 322.899 132.342 322.621 132.573C322.351 132.802 322.011 132.948 321.6 133.009C321.198 133.069 320.83 133.03 320.496 132.89C320.163 132.751 319.887 132.529 319.668 132.224C319.458 131.918 319.319 131.54 319.252 131.089C319.186 130.646 319.208 130.248 319.32 129.894C319.438 129.53 319.637 129.233 319.915 129.002C320.193 128.772 320.534 128.626 320.936 128.566ZM321.079 129.52C320.877 129.55 320.712 129.624 320.581 129.742C320.451 129.86 320.364 130.022 320.32 130.226C320.275 130.422 320.273 130.656 320.314 130.93C320.354 131.196 320.424 131.42 320.526 131.602C320.627 131.784 320.758 131.917 320.919 132C321.078 132.075 321.258 132.097 321.459 132.067C321.669 132.036 321.838 131.961 321.969 131.843C322.098 131.717 322.185 131.552 322.228 131.348C322.272 131.144 322.274 130.909 322.234 130.643C322.194 130.377 322.124 130.154 322.022 129.971C321.921 129.789 321.791 129.66 321.631 129.585C321.472 129.51 321.288 129.488 321.079 129.52Z" fill="#7B7D82"/>
<path d="M289.01 136.276L285.836 133.927L283.488 137.101" stroke="#5FC88F" stroke-width="1.308" stroke-linecap="round" stroke-linejoin="round"/>
</g>
<defs>
<filter id="filter0_d_38101_1247" x="-66.6886" y="-1.75027" width="508.377" height="293.452" filterUnits="userSpaceOnUse" color-interpolation-filters="sRGB">
<feFlood flood-opacity="0" result="BackgroundImageFix"/>
<feColorMatrix in="SourceAlpha" type="matrix" values="0 0 0 0 0 0 0 0 0 0 0 0 0 0 0 0 0 0 127 0" result="hardAlpha"/>
<feOffset dy="8.72"/>
<feGaussianBlur stdDeviation="43.6"/>
<feComposite in2="hardAlpha" operator="out"/>
<feColorMatrix type="matrix" values="0 0 0 0 0.333472 0 0 0 0 0.369612 0 0 0 0 0.408333 0 0 0 0.04 0"/>
<feBlend mode="normal" in2="BackgroundImageFix" result="effect1_dropShadow_38101_1247"/>
<feBlend mode="normal" in="SourceGraphic" in2="effect1_dropShadow_38101_1247" result="shape"/>
</filter>
<linearGradient id="paint0_linear_38101_1247" x1="184.011" y1="125.063" x2="184.011" y2="196.567" gradientUnits="userSpaceOnUse">
<stop stop-color="white"/>
<stop offset="1" stop-color="white" stop-opacity="0"/>
</linearGradient>
<clipPath id="clip0_38101_1247">
<rect width="34.88" height="34.88" fill="white" transform="translate(55.1277 138.406) rotate(-8.5)"/>
</clipPath>
</defs>
</svg>
