<svg width="237" height="234" viewBox="0 0 237 234" fill="none" xmlns="http://www.w3.org/2000/svg">
<rect x="0.956421" y="38.9958" width="201" height="198" rx="24" transform="rotate(-11 0.956421 38.9958)" fill="url(#paint0_linear_38101_1057)" fill-opacity="0.8"/>
<path d="M198.672 70.6971C201.394 58.4604 192.457 51.1467 179.917 45.8025L185.27 29.3397L175.27 26.0841L170.054 42.1119C167.427 41.2505 164.726 40.4313 162.031 39.6125L167.284 23.4806L157.285 20.2192L151.932 36.6761C149.753 36.0123 147.609 35.3629 145.537 34.683L145.553 34.6307L131.757 30.1288L128.279 40.8298C128.279 40.8298 135.714 43.0979 135.548 43.1929C139.598 44.5164 140.148 47.3007 139.871 49.4633L133.776 68.2161C134.053 68.3068 134.411 68.4388 134.812 68.6272L133.753 68.2856L125.209 94.5565C124.615 95.7716 123.203 97.5636 120.367 96.6459C120.463 96.8009 113.099 94.277 113.099 94.277L107.221 105.591L120.242 109.837C122.66 110.63 125.029 111.45 127.36 112.225L121.953 128.874L131.947 132.129L137.3 115.666C140.027 116.612 142.676 117.498 145.268 118.345L139.932 134.738L149.932 137.994L155.337 121.38C172.47 125.898 185.617 125.492 192.223 110.15C197.546 97.7999 193.415 90.1613 184.615 84.7548C191.379 83.6905 196.696 79.6599 198.672 70.6971ZM173.098 101.731C169.064 114.178 148.253 105.825 141.471 103.62L148.652 81.5644C155.433 83.7804 177.323 88.7587 173.098 101.731ZM178.569 69.0945C174.887 80.4155 157.581 73.3058 151.939 71.4667L158.442 51.4678C164.084 53.307 182.409 57.2865 178.569 69.0945Z" fill="url(#paint1_linear_38101_1057)" fill-opacity="0.6"/>
<circle cx="50.5528" cy="79.2724" r="25" transform="rotate(-11 50.5528 79.2724)" fill="#F7931A"/>
<g clip-path="url(#clip0_38101_1057)">
<path fill-rule="evenodd" clip-rule="evenodd" d="M57.9509 75.6378C57.8566 73.3014 55.8523 72.425 53.2777 72.081L53.4641 68.8549L51.4591 68.7607L51.2777 71.9018C50.7513 71.8769 50.2121 71.8617 49.6764 71.847L49.8594 68.6851L47.856 68.5906L47.6689 71.8158C47.2345 71.804 46.8078 71.7918 46.3923 71.7725L46.3926 71.7624L43.628 71.6312L43.5074 73.7285C43.5074 73.7285 44.9892 73.7707 44.963 73.7962C45.7749 73.8347 46.013 74.3089 46.0663 74.7111L45.8541 78.3863C45.9101 78.3892 45.9831 78.395 46.0652 78.41L45.854 78.4002L45.5554 83.5489C45.5053 83.7975 45.3321 84.1896 44.7648 84.1638C44.7891 84.1873 43.3077 84.0947 43.3077 84.0947L42.7741 86.4217L45.3831 86.5444C45.6777 86.5587 45.9693 86.5755 46.2576 86.5922C46.4444 86.603 46.6298 86.6137 46.8138 86.6236L46.6262 89.887L48.6285 89.9817L48.8155 86.7533C49.3641 86.7904 49.8959 86.8198 50.4153 86.8438L50.2287 90.0572L52.2332 90.1515L52.422 86.8945C55.8028 86.8639 58.21 86.1433 58.681 83.0576C59.0617 80.5723 57.928 79.4018 56.041 78.8611C57.2364 78.3351 58.0225 77.3477 57.9509 75.6378ZM54.743 82.4825C54.6142 84.7206 51.0277 84.502 49.3882 84.4021C49.2414 84.3932 49.1102 84.3852 48.9985 84.38L49.2488 80.0569C49.3854 80.0634 49.5514 80.0674 49.7395 80.0719C51.4234 80.1123 54.8738 80.1951 54.743 82.4825ZM49.6927 78.0975C51.0613 78.1841 54.0446 78.3727 54.1626 76.3394C54.2831 74.2593 51.406 74.1986 50.0009 74.169C49.843 74.1657 49.7036 74.1627 49.5892 74.1573L49.3625 78.0782C49.457 78.0826 49.5681 78.0896 49.6927 78.0975Z" fill="white"/>
</g>
<path d="M38.0426 139.771L36.5314 131.996L39.594 131.401C40.5286 131.219 41.2484 131.275 41.7536 131.568C42.2588 131.861 42.5762 132.341 42.706 133.009C42.7854 133.417 42.7386 133.805 42.5656 134.173C42.391 134.533 42.0844 134.8 41.6457 134.975L41.648 134.987C42.1659 134.968 42.5951 135.1 42.9355 135.385C43.2824 135.659 43.4985 136.017 43.584 136.457C43.7138 137.124 43.5726 137.698 43.1605 138.177C42.7484 138.656 42.079 138.986 41.1524 139.166L38.0426 139.771ZM39.0756 138.482L41.0075 138.107C41.5022 138.01 41.8515 137.837 42.0552 137.585C42.2668 137.332 42.3368 137.021 42.265 136.652C42.1933 136.283 42.0119 136.021 41.7209 135.865C41.4378 135.708 41.0489 135.678 40.5541 135.774L38.6223 136.15L39.0756 138.482ZM38.4185 135.101L40.1501 134.765C41.1396 134.572 41.5603 134.095 41.4122 133.334C41.2641 132.572 40.6954 132.287 39.7059 132.479L37.9743 132.816L38.4185 135.101ZM44.9641 131.286C44.6893 131.34 44.4643 131.314 44.2891 131.21C44.1203 131.096 44.0114 130.913 43.9626 130.662C43.9137 130.411 43.947 130.204 44.0624 130.043C44.1857 129.881 44.3847 129.773 44.6596 129.72C44.9266 129.668 45.1437 129.695 45.3111 129.801C45.4862 129.905 45.5982 130.083 45.6471 130.334C45.6959 130.586 45.6595 130.797 45.5377 130.967C45.4223 131.128 45.2311 131.234 44.9641 131.286ZM45.7808 132.154L46.9256 138.044L45.6652 138.289L44.5204 132.399L45.7808 132.154ZM49.1361 129.705L50.274 135.56C50.3305 135.85 50.4463 136.048 50.6215 136.152C50.8045 136.255 51.0256 136.281 51.2847 136.231C51.4968 136.19 51.6752 136.123 51.8201 136.029C51.9634 135.928 52.0903 135.806 52.2009 135.662L52.6623 136.526C52.5122 136.718 52.3128 136.887 52.0641 137.033C51.8217 137.17 51.5396 137.27 51.2176 137.332C50.8799 137.398 50.559 137.403 50.255 137.348C49.9509 137.293 49.6966 137.159 49.4923 136.946C49.2864 136.725 49.1405 136.416 49.0548 136.017L47.9443 130.304L49.1361 129.705ZM51.4987 131.043L51.6911 132.032L47.2737 132.891L47.0814 131.902L51.4987 131.043ZM55.2668 130.188C55.738 130.097 56.1522 130.089 56.5095 130.167C56.8732 130.235 57.1933 130.372 57.4699 130.579C57.7464 130.786 57.9749 131.039 58.1553 131.338L57.0572 132.041C56.8849 131.699 56.6665 131.456 56.4021 131.312C56.1441 131.159 55.8344 131.117 55.4732 131.187C55.1198 131.256 54.8335 131.397 54.6143 131.611C54.3935 131.817 54.2461 132.086 54.1722 132.418C54.1061 132.749 54.1165 133.138 54.2035 133.586C54.289 134.025 54.4282 134.385 54.6213 134.666C54.8143 134.946 55.0517 135.14 55.3336 135.248C55.6154 135.357 55.9291 135.377 56.2746 135.31C56.5416 135.258 56.7649 135.17 56.9444 135.045C57.1224 134.913 57.2582 134.752 57.3518 134.563C57.4517 134.364 57.5016 134.138 57.5014 133.886L58.7196 134.052C58.6783 134.427 58.5658 134.771 58.3822 135.084C58.2048 135.387 57.9578 135.647 57.6413 135.863C57.3233 136.072 56.9404 136.22 56.4928 136.307C55.9117 136.42 55.3736 136.398 54.8787 136.242C54.3838 136.085 53.9664 135.804 53.6265 135.397C53.293 134.981 53.0645 134.455 52.9408 133.819C52.8172 133.183 52.8328 132.613 52.9877 132.11C53.1489 131.598 53.4258 131.178 53.8182 130.849C54.2185 130.518 54.7014 130.298 55.2668 130.188ZM61.8931 128.9C62.4663 128.789 62.9965 128.812 63.4836 128.97C63.9707 129.128 64.381 129.415 64.7145 129.831C65.0543 130.238 65.2861 130.759 65.4097 131.395C65.5334 132.031 65.5146 132.605 65.3533 133.117C65.1984 133.62 64.9247 134.036 64.5323 134.365C64.1398 134.694 63.657 134.914 63.0837 135.026C62.5104 135.137 61.9803 135.114 61.4932 134.956C61.0061 134.798 60.5926 134.516 60.2528 134.109C59.9114 133.694 59.6789 133.169 59.5553 132.533C59.4316 131.897 59.4512 131.327 59.614 130.822C59.7752 130.31 60.052 129.89 60.4445 129.561C60.8369 129.232 61.3198 129.012 61.8931 128.9ZM62.0854 129.89C61.732 129.958 61.4457 130.1 61.2265 130.313C61.0135 130.518 60.8701 130.786 60.7961 131.118C60.7222 131.45 60.7287 131.84 60.8157 132.288C60.9012 132.728 61.0412 133.092 61.2358 133.38C61.4288 133.66 61.6631 133.859 61.9386 133.977C62.2204 134.085 62.538 134.105 62.8914 134.036C63.2448 133.967 63.5279 133.831 63.7408 133.626C63.9522 133.414 64.0949 133.142 64.1689 132.81C64.2413 132.47 64.2348 132.08 64.1493 131.64C64.0623 131.192 63.9223 130.828 63.7292 130.548C63.5362 130.268 63.3027 130.073 63.0287 129.963C62.7532 129.845 62.4388 129.821 62.0854 129.89ZM66.8667 127.029C66.5918 127.082 66.3668 127.057 66.1917 126.952C66.0228 126.838 65.914 126.656 65.8651 126.404C65.8163 126.153 65.8496 125.947 65.965 125.786C66.0882 125.624 66.2873 125.516 66.5621 125.462C66.8291 125.41 67.0463 125.437 67.2136 125.543C67.3888 125.648 67.5008 125.826 67.5496 126.077C67.5985 126.328 67.562 126.539 67.4403 126.71C67.3249 126.87 67.1337 126.977 66.8667 127.029ZM67.6833 127.897L68.8282 133.787L67.5678 134.032L66.4229 128.142L67.6833 127.897ZM70.8002 133.403L69.6554 127.514L70.7744 127.296L71.1546 128.811L70.9576 128.679C71.0019 128.32 71.1048 128.01 71.2662 127.751C71.434 127.482 71.6493 127.269 71.9121 127.112C72.1829 126.953 72.4792 126.842 72.8012 126.78C73.2174 126.699 73.6064 126.709 73.9683 126.81C74.3365 126.901 74.6501 127.089 74.909 127.373C75.1679 127.656 75.3455 128.046 75.4416 128.54L76.1835 132.357L74.9231 132.602L74.2568 129.174C74.1438 128.593 73.9442 128.216 73.6581 128.044C73.3782 127.862 73.0576 127.806 72.6964 127.876C72.4373 127.926 72.1982 128.038 71.9792 128.211C71.7586 128.376 71.5918 128.608 71.4788 128.907C71.3737 129.205 71.3646 129.577 71.4516 130.025L72.0606 133.158L70.8002 133.403Z" fill="#7B7D82"/>
<rect x="85.8615" y="114.177" width="57" height="24" rx="12" transform="rotate(-11 85.8615 114.177)" fill="#FF6838"/>
<path d="M101.092 123.689L101.319 124.855L97.3023 125.636L97.0756 124.47L101.092 123.689ZM106.551 126.576C105.617 126.758 104.817 126.563 104.152 125.992C103.493 125.411 103.036 124.464 102.781 123.153C102.526 121.842 102.596 120.797 102.991 120.019C103.392 119.232 104.06 118.748 104.994 118.566C105.937 118.383 106.737 118.582 107.396 119.163C108.062 119.735 108.522 120.676 108.777 121.988C109.032 123.299 108.958 124.348 108.557 125.135C108.162 125.913 107.494 126.393 106.551 126.576ZM106.343 125.505C106.72 125.431 107.014 125.264 107.224 125.003C107.44 124.733 107.569 124.37 107.611 123.913C107.659 123.448 107.619 122.889 107.493 122.237C107.366 121.585 107.194 121.056 106.977 120.651C106.765 120.235 106.51 119.947 106.209 119.785C105.915 119.614 105.58 119.565 105.203 119.638C104.826 119.712 104.529 119.883 104.313 120.154C104.103 120.415 103.978 120.777 103.937 121.241C103.896 121.698 103.938 122.252 104.065 122.903C104.192 123.555 104.361 124.089 104.572 124.504C104.781 124.912 105.033 125.201 105.327 125.372C105.627 125.534 105.966 125.578 106.343 125.505ZM111.301 123.881C111.568 123.829 111.795 123.866 111.983 123.993C112.177 124.11 112.299 124.298 112.349 124.557C112.4 124.816 112.358 125.04 112.223 125.229C112.097 125.417 111.9 125.537 111.633 125.589C111.358 125.642 111.123 125.606 110.928 125.481C110.74 125.355 110.621 125.162 110.571 124.903C110.52 124.644 110.559 124.424 110.687 124.244C110.822 124.055 111.026 123.934 111.301 123.881ZM111.038 117.514L116.963 116.362L117.167 117.411C116.646 118.213 116.255 119.01 115.994 119.802C115.731 120.587 115.583 121.382 115.552 122.186C115.528 122.982 115.599 123.807 115.765 124.663L114.493 124.911C114.325 124.047 114.268 123.186 114.321 122.328C114.38 121.461 114.558 120.611 114.852 119.78C115.153 118.939 115.578 118.123 116.125 117.332L116.422 117.604L111.251 118.609L111.038 117.514ZM120.83 115.488C121.497 115.359 122.091 115.414 122.61 115.656C123.138 115.895 123.573 116.292 123.917 116.844C124.269 117.395 124.523 118.075 124.68 118.884C124.854 119.779 124.878 120.549 124.75 121.193C124.621 121.829 124.358 122.341 123.961 122.728C123.563 123.115 123.042 123.371 122.398 123.496C121.739 123.624 121.145 123.589 120.618 123.39C120.09 123.191 119.652 122.824 119.303 122.289L120.385 121.504C120.567 121.851 120.805 122.111 121.099 122.282C121.401 122.451 121.772 122.493 122.211 122.408C122.573 122.338 122.861 122.208 123.077 122.02C123.293 121.831 123.446 121.589 123.535 121.295C123.633 120.999 123.676 120.656 123.666 120.267C123.655 119.878 123.604 119.448 123.513 118.977C123.508 118.953 123.504 118.933 123.501 118.918C123.497 118.894 123.492 118.871 123.487 118.847L123.44 118.856C123.415 119.187 123.307 119.473 123.118 119.713C122.936 119.952 122.713 120.147 122.449 120.296C122.183 120.437 121.909 120.535 121.626 120.59C121.123 120.688 120.657 120.677 120.226 120.557C119.801 120.427 119.444 120.203 119.154 119.885C118.864 119.566 118.671 119.16 118.574 118.665C118.469 118.123 118.488 117.635 118.632 117.199C118.783 116.762 119.042 116.398 119.41 116.107C119.783 115.806 120.256 115.6 120.83 115.488ZM121.057 116.593C120.562 116.69 120.207 116.897 119.992 117.216C119.785 117.533 119.728 117.932 119.821 118.411C119.903 118.835 120.105 119.142 120.428 119.332C120.756 119.512 121.152 119.558 121.615 119.468C121.914 119.41 122.165 119.3 122.37 119.137C122.574 118.968 122.717 118.764 122.802 118.528C122.894 118.29 122.913 118.03 122.858 117.747C122.8 117.448 122.684 117.206 122.509 117.02C122.34 116.825 122.131 116.69 121.88 116.617C121.63 116.543 121.355 116.535 121.057 116.593ZM128.244 122.238L131.822 113.474L132.905 113.263L129.34 122.025L128.244 122.238ZM127.016 114.286C127.417 114.208 127.78 114.231 128.105 114.355C128.439 114.478 128.716 114.685 128.935 114.976C129.163 115.266 129.319 115.631 129.405 116.071C129.489 116.503 129.48 116.9 129.379 117.262C129.285 117.614 129.106 117.91 128.843 118.148C128.587 118.385 128.259 118.543 127.859 118.621C127.466 118.697 127.103 118.674 126.77 118.551C126.436 118.429 126.155 118.222 125.928 117.932C125.707 117.633 125.554 117.268 125.47 116.836C125.385 116.396 125.389 116 125.484 115.647C125.586 115.293 125.769 114.997 126.032 114.758C126.296 114.52 126.624 114.362 127.016 114.286ZM127.195 115.205C126.998 115.243 126.84 115.327 126.718 115.456C126.595 115.578 126.516 115.74 126.482 115.942C126.447 116.136 126.455 116.367 126.507 116.634C126.557 116.893 126.636 117.11 126.743 117.285C126.851 117.46 126.984 117.58 127.144 117.647C127.304 117.714 127.482 117.728 127.678 117.69C127.882 117.65 128.046 117.57 128.169 117.448C128.292 117.326 128.37 117.164 128.404 116.962C128.438 116.76 128.43 116.529 128.38 116.27C128.328 116.003 128.249 115.786 128.143 115.619C128.036 115.445 127.903 115.324 127.743 115.257C127.582 115.182 127.399 115.165 127.195 115.205ZM133.29 116.88C133.691 116.802 134.054 116.826 134.38 116.95C134.713 117.072 134.991 117.283 135.212 117.583C135.439 117.873 135.595 118.233 135.679 118.665C135.764 119.105 135.756 119.502 135.654 119.856C135.559 120.209 135.38 120.504 135.117 120.743C134.862 120.98 134.534 121.137 134.133 121.215C133.74 121.291 133.377 121.268 133.044 121.146C132.71 121.023 132.43 120.817 132.202 120.527C131.983 120.235 131.83 119.87 131.745 119.43C131.661 118.998 131.666 118.606 131.76 118.253C131.861 117.892 132.043 117.591 132.307 117.353C132.57 117.114 132.898 116.957 133.29 116.88ZM133.471 117.811C133.275 117.849 133.115 117.929 132.992 118.051C132.869 118.172 132.791 118.334 132.757 118.537C132.721 118.731 132.729 118.962 132.781 119.229C132.832 119.488 132.91 119.705 133.018 119.879C133.125 120.054 133.259 120.179 133.421 120.253C133.58 120.32 133.758 120.335 133.955 120.296C134.159 120.257 134.322 120.176 134.445 120.054C134.567 119.925 134.645 119.759 134.679 119.557C134.713 119.354 134.705 119.124 134.654 118.865C134.604 118.605 134.525 118.388 134.418 118.214C134.31 118.039 134.177 117.918 134.017 117.851C133.857 117.785 133.676 117.771 133.471 117.811Z" fill="#FCFCFD"/>
<path d="M52.1256 177.758C51.089 177.959 50.1065 178.02 49.1781 177.94C48.2497 177.859 47.3972 177.666 46.6207 177.361C45.8599 177.052 45.1952 176.652 44.6268 176.159L46.0051 173.691C46.4545 174.158 46.9921 174.534 47.6182 174.82C48.2412 175.09 48.9196 175.268 49.6534 175.353C50.3841 175.423 51.1107 175.388 51.8332 175.247C52.7913 175.061 53.5146 174.758 54.0033 174.337C54.4919 173.916 54.6767 173.399 54.5577 172.786C54.4813 172.394 54.2586 172.087 53.8896 171.865C53.5362 171.64 52.9658 171.515 52.1783 171.489L48.7335 171.376C47.8143 171.343 47.0054 171.206 46.307 170.967C45.6085 170.728 45.044 170.381 44.6134 169.927C44.1955 169.454 43.9194 168.872 43.7851 168.181C43.608 167.27 43.6942 166.414 44.0437 165.613C44.4089 164.808 45.0058 164.105 45.8343 163.504C46.6785 162.9 47.7524 162.471 49.056 162.218C50.4225 161.952 51.6698 161.954 52.798 162.224C53.9261 162.494 54.9494 163.02 55.8677 163.803L54.528 166.093C53.744 165.414 52.9322 164.969 52.0923 164.757C51.2652 164.527 50.349 164.509 49.3438 164.705C48.6371 164.842 48.0806 165.04 47.6744 165.298C47.2651 165.541 46.9781 165.825 46.8131 166.15C46.6639 166.473 46.6244 166.814 46.6946 167.176C46.7496 167.458 46.8612 167.697 47.0296 167.893C47.198 168.088 47.4733 168.247 47.8555 168.368C48.2503 168.471 48.7928 168.536 49.483 168.565L52.4337 168.652C53.9742 168.695 55.129 168.975 55.8981 169.494C56.6799 169.994 57.173 170.77 57.3776 171.823C57.573 172.828 57.4802 173.734 57.0993 174.542C56.7184 175.349 56.0934 176.033 55.2243 176.593C54.3678 177.134 53.3349 177.523 52.1256 177.758ZM51.4442 180.164L47.5792 160.28L49.7701 159.854L53.6352 179.738L51.4442 180.164ZM60.9834 176.06L60.5529 173.846C61.7833 172.629 62.8106 171.541 63.6347 170.582C64.4716 169.604 65.1243 168.728 65.5929 167.952C66.0742 167.157 66.3903 166.436 66.5413 165.787C66.708 165.135 66.7333 164.511 66.6173 163.914C66.4769 163.192 66.1425 162.646 65.6142 162.276C65.0828 161.89 64.4166 161.775 63.6156 161.931C62.7361 162.102 62.103 162.534 61.7165 163.229C61.3456 163.92 61.2434 164.82 61.41 165.929L58.4004 165.414C58.2714 164.33 58.3785 163.372 58.7219 162.54C59.078 161.688 59.6419 160.983 60.4137 160.426C61.1982 159.85 62.1558 159.452 63.2866 159.232C64.229 159.049 65.0717 159.023 65.8146 159.156C66.5733 159.286 67.234 159.54 67.7968 159.92C68.3565 160.284 68.8043 160.743 69.1402 161.297C69.4918 161.848 69.7302 162.445 69.8554 163.089C70.0508 164.094 69.9842 165.093 69.6556 166.086C69.3427 167.076 68.7613 168.11 67.9114 169.188C67.0615 170.266 65.9458 171.445 64.5645 172.724L64.5691 172.747C64.8016 172.686 65.0813 172.615 65.4081 172.535C65.7505 172.453 66.1024 172.376 66.4636 172.306C66.8218 172.22 67.1344 172.151 67.4014 172.099L71.6892 171.266L72.1975 173.881L60.9834 176.06ZM77.2294 156.522C78.6115 156.253 79.8363 156.349 80.9039 156.81C81.9683 157.255 82.8522 158.028 83.5554 159.13C84.2712 160.214 84.791 161.588 85.1146 163.253C85.4718 165.09 85.5072 166.656 85.221 167.951C84.9316 169.229 84.3644 170.252 83.5193 171.02C82.6899 171.784 81.6391 172.29 80.3669 172.537C79.0319 172.797 77.8226 172.738 76.7389 172.362C75.6709 171.983 74.7805 171.26 74.0677 170.192L76.8124 168.338C77.1104 168.949 77.5095 169.409 78.0099 169.719C78.523 170.011 79.1643 170.081 79.9339 169.932C80.5464 169.813 81.0418 169.594 81.4201 169.276C81.7953 168.943 82.0643 168.524 82.227 168.019C82.4055 167.512 82.4856 166.918 82.4673 166.237C82.4647 165.553 82.3841 164.802 82.2253 163.985C82.2131 163.923 82.2024 163.868 82.1933 163.821C82.1841 163.773 82.1734 163.718 82.1612 163.656L82.067 163.674C82.0011 164.257 81.7912 164.771 81.4373 165.214C81.0961 165.639 80.6753 165.99 80.1749 166.267C79.6714 166.527 79.137 166.713 78.5716 166.823C77.5821 167.015 76.6644 166.99 75.8185 166.747C74.9852 166.485 74.2785 166.035 73.6983 165.398C73.115 164.746 72.7287 163.932 72.5395 162.959C72.3258 161.859 72.3782 160.871 72.6967 159.994C73.0122 159.102 73.5528 158.361 74.3185 157.772C75.0968 157.164 76.0671 156.747 77.2294 156.522ZM77.7658 159.156C76.9334 159.317 76.3274 159.68 75.9478 160.242C75.5809 160.786 75.4783 161.475 75.6401 162.307C75.7836 163.045 76.1321 163.581 76.6857 163.913C77.252 164.227 77.9356 164.306 78.7367 164.15C79.255 164.049 79.6906 163.859 80.0435 163.578C80.4122 163.295 80.6699 162.943 80.8165 162.523C80.9631 162.104 80.9891 161.65 80.8944 161.164C80.7937 160.645 80.5967 160.219 80.3036 159.885C80.0104 159.551 79.6398 159.321 79.1918 159.196C78.7594 159.068 78.2841 159.055 77.7658 159.156ZM90.2786 166.625C90.7812 166.528 91.2218 166.572 91.6005 166.76C91.9761 166.931 92.29 167.204 92.5421 167.579C92.7912 167.938 92.9631 168.361 93.0577 168.848C93.1829 169.492 93.17 170.138 93.019 170.787C92.8837 171.433 92.6341 172.035 92.2702 172.595C91.9063 173.155 91.4598 173.624 90.9306 174.004L89.3018 173.172C89.708 172.914 90.0594 172.625 90.3561 172.307C90.6685 171.985 90.9198 171.643 91.11 171.28C91.3003 170.917 91.4183 170.56 91.4641 170.209L91.3326 170.161C91.2632 170.224 91.1766 170.281 91.0728 170.334C90.972 170.402 90.8195 170.456 90.6153 170.496C90.364 170.545 90.1005 170.531 89.8248 170.454C89.546 170.362 89.2958 170.207 89.0742 169.989C88.8496 169.755 88.6991 169.442 88.6228 169.05C88.5403 168.626 88.5643 168.246 88.6948 167.911C88.8253 167.576 89.0323 167.299 89.3159 167.081C89.5964 166.848 89.9173 166.696 90.2786 166.625ZM101.114 168.504C99.7477 168.77 98.5384 168.712 97.4861 168.329C96.4496 167.944 95.5199 167.228 94.6972 166.182L97.3346 164.154C97.6731 164.805 98.1034 165.3 98.6256 165.638C99.1478 165.977 99.833 166.064 100.681 165.899C101.262 165.786 101.737 165.588 102.106 165.304C102.474 165.021 102.731 164.661 102.874 164.226C103.033 163.787 103.058 163.285 102.948 162.72C102.838 162.155 102.637 161.705 102.344 161.371C102.063 161.018 101.708 160.785 101.279 160.673C100.847 160.545 100.332 160.539 99.7352 160.655C99.3268 160.735 98.9496 160.849 98.6037 160.997C98.2734 161.143 97.9837 161.33 97.7346 161.558C97.4824 161.77 97.2723 162.03 97.1043 162.34L94.4684 162.364L93.7582 153.553L103.158 151.726L103.667 154.341L96.7167 155.692L96.9828 159.577L96.9716 159.897L97.0187 159.887C97.2753 159.446 97.6664 159.069 98.1922 158.755C98.7336 158.438 99.3734 158.207 100.112 158.064C101.132 157.865 102.044 157.9 102.846 158.168C103.648 158.436 104.317 158.901 104.853 159.563C105.386 160.209 105.744 161.003 105.927 161.945C106.101 162.841 106.106 163.663 105.942 164.412C105.775 165.145 105.461 165.793 105 166.355C104.551 166.899 103.996 167.357 103.335 167.73C102.671 168.088 101.931 168.346 101.114 168.504ZM112.684 166.011L110.77 156.163C110.699 155.802 110.628 155.433 110.554 155.056C110.494 154.66 110.432 154.257 110.368 153.845C109.928 154.436 109.414 154.976 108.825 155.465C108.235 155.955 107.609 156.338 106.945 156.613L105.99 153.963C106.345 153.861 106.726 153.681 107.132 153.423C107.551 153.146 107.963 152.838 108.37 152.498C108.789 152.139 109.16 151.782 109.482 151.426C109.817 151.051 110.057 150.695 110.203 150.357L112.842 149.844L115.864 165.393L112.684 166.011ZM125.381 163.787C123.386 164.175 121.716 163.799 120.37 162.659C119.039 161.516 118.117 159.625 117.605 156.986C117.092 154.348 117.238 152.249 118.043 150.691C118.865 149.129 120.272 148.155 122.267 147.767C124.262 147.379 125.924 147.757 127.255 148.9C128.601 150.04 129.531 151.93 130.044 154.568C130.557 157.207 130.402 159.307 129.581 160.868C128.776 162.427 127.376 163.4 125.381 163.787ZM124.873 161.172C125.548 161.041 126.061 160.746 126.412 160.286C126.775 159.808 126.991 159.155 127.058 158.327C127.122 157.483 127.034 156.441 126.793 155.2C126.551 153.959 126.244 152.968 125.872 152.225C125.496 151.467 125.052 150.942 124.539 150.651C124.039 150.34 123.451 150.251 122.775 150.382C122.1 150.513 121.581 150.818 121.217 151.296C120.851 151.759 120.635 152.412 120.571 153.256C120.52 154.081 120.614 155.113 120.856 156.354C121.097 157.595 121.397 158.596 121.757 159.357C122.13 160.1 122.574 160.625 123.09 160.932C123.603 161.223 124.197 161.303 124.873 161.172ZM135.097 157.913C135.725 157.791 136.254 157.868 136.682 158.143C137.126 158.416 137.405 158.842 137.518 159.423C137.634 160.02 137.537 160.528 137.227 160.947C136.93 161.347 136.467 161.608 135.839 161.73C135.211 161.852 134.676 161.785 134.235 161.528C133.807 161.253 133.534 160.817 133.418 160.22C133.305 159.639 133.396 159.141 133.69 158.725C134 158.306 134.469 158.036 135.097 157.913ZM147.586 159.226L146.877 155.575L139.291 157.049L138.878 154.929C138.926 154.757 139 154.547 139.098 154.3C139.21 154.033 139.331 153.733 139.461 153.398L143.622 143.861L147.509 143.105L149.364 152.647L151.884 152.157L152.342 154.512L149.822 155.002L150.531 158.654L147.586 159.226ZM141.613 154.153L146.442 153.214L145.444 148.078C145.38 147.749 145.319 147.394 145.261 147.014C145.204 146.634 145.148 146.262 145.093 145.897L145.046 145.906C144.941 146.286 144.802 146.704 144.63 147.161C144.471 147.599 144.319 147.996 144.176 148.349L141.832 153.646C141.8 153.734 141.76 153.823 141.713 153.914C141.678 153.986 141.645 154.065 141.613 154.153ZM161.41 156.784C159.415 157.172 157.745 156.796 156.398 155.655C155.068 154.512 154.146 152.621 153.633 149.983C153.12 147.344 153.267 145.246 154.072 143.687C154.893 142.126 156.301 141.152 158.296 140.764C160.291 140.376 161.953 140.754 163.284 141.897C164.63 143.037 165.56 144.926 166.072 147.565C166.585 150.204 166.431 152.304 165.61 153.865C164.805 155.423 163.405 156.396 161.41 156.784ZM160.902 154.169C161.577 154.038 162.09 153.742 162.441 153.283C162.804 152.805 163.02 152.152 163.087 151.324C163.151 150.48 163.062 149.438 162.821 148.197C162.58 146.956 162.273 145.964 161.901 145.222C161.525 144.464 161.081 143.939 160.568 143.647C160.067 143.337 159.48 143.248 158.804 143.379C158.129 143.51 157.609 143.815 157.246 144.293C156.879 144.755 156.664 145.409 156.6 146.252C156.548 147.077 156.643 148.11 156.884 149.351C157.126 150.592 157.426 151.593 157.786 152.354C158.159 153.097 158.603 153.621 159.119 153.929C159.632 154.22 160.226 154.3 160.902 154.169Z" fill="#23262F"/>
<path d="M50.636 204.558L49.1248 196.784L52.1874 196.189C53.1219 196.007 53.8418 196.063 54.347 196.356C54.8522 196.649 55.1696 197.129 55.2994 197.796C55.3788 198.205 55.3319 198.593 55.1589 198.961C54.9844 199.32 54.6778 199.588 54.2391 199.763L54.2414 199.775C54.7593 199.755 55.1884 199.888 55.5289 200.172C55.8758 200.447 56.0919 200.804 56.1774 201.244C56.3071 201.912 56.166 202.485 55.7539 202.965C55.3418 203.444 54.6724 203.774 53.7458 203.954L50.636 204.558ZM51.669 203.27L53.6009 202.894C54.0956 202.798 54.4449 202.624 54.6486 202.373C54.8602 202.12 54.9302 201.809 54.8584 201.439C54.7867 201.07 54.6053 200.808 54.3143 200.653C54.0312 200.496 53.6423 200.466 53.1475 200.562L51.2157 200.937L51.669 203.27ZM51.0119 199.889L52.7435 199.552C53.733 199.36 54.1537 198.883 54.0056 198.121C53.8575 197.359 53.2888 197.075 52.2993 197.267L50.5677 197.604L51.0119 199.889ZM62.6273 194.159L62.838 195.243L60.1758 195.761L61.4764 202.451L60.2159 202.696L58.9154 196.006L56.2532 196.523L56.0426 195.439L62.6273 194.159ZM71.4146 198.38C71.3491 198.882 71.1914 199.328 70.9414 199.719C70.6898 200.102 70.3681 200.417 69.976 200.665C69.584 200.912 69.1328 201.085 68.6224 201.184C67.8763 201.329 67.1972 201.294 66.5849 201.079C65.9726 200.864 65.4592 200.487 65.0448 199.948C64.6304 199.41 64.3422 198.724 64.1804 197.892C64.0186 197.059 64.0289 196.315 64.2113 195.661C64.3937 195.006 64.7285 194.464 65.2156 194.035C65.7027 193.606 66.3154 193.32 67.0536 193.177C67.564 193.077 68.0372 193.059 68.473 193.121C68.9167 193.181 69.3113 193.325 69.6568 193.551C70.0023 193.777 70.2948 194.087 70.5343 194.48L69.4476 195.242C69.2005 194.809 68.9071 194.516 68.5675 194.362C68.2263 194.2 67.8162 194.165 67.3372 194.258C66.8582 194.352 66.4602 194.547 66.1432 194.845C65.8262 195.143 65.6076 195.528 65.4874 195.999C65.375 196.469 65.3791 197.015 65.4997 197.635C65.6188 198.248 65.8153 198.755 66.0893 199.159C66.3617 199.554 66.6967 199.831 67.0944 199.99C67.492 200.149 67.9382 200.181 68.433 200.084C68.912 199.991 69.3006 199.789 69.5989 199.479C69.9034 199.159 70.0822 198.737 70.1352 198.213L71.4146 198.38Z" fill="#A4A6AA"/>
<defs>
<linearGradient id="paint0_linear_38101_1057" x1="101.456" y1="38.9958" x2="101.456" y2="236.996" gradientUnits="userSpaceOnUse">
<stop stop-color="white"/>
<stop offset="1" stop-color="white" stop-opacity="0"/>
</linearGradient>
<linearGradient id="paint1_linear_38101_1057" x1="157.855" y1="20.2594" x2="149.547" y2="137.967" gradientUnits="userSpaceOnUse">
<stop stop-color="white"/>
<stop offset="1" stop-color="white" stop-opacity="0"/>
</linearGradient>
<clipPath id="clip0_38101_1057">
<rect width="24" height="24" fill="white" transform="translate(36.4836 69.7825) rotate(-11)"/>
</clipPath>
</defs>
</svg>
