<svg width="365" height="326" viewBox="0 0 365 326" fill="none" xmlns="http://www.w3.org/2000/svg">
<rect x="0.956421" y="38.9958" width="201" height="198" rx="24" transform="rotate(-11 0.956421 38.9958)" fill="url(#paint0_linear_38136_1780)" fill-opacity="0.8"/>
<path d="M198.672 70.6971C201.394 58.4604 192.457 51.1467 179.917 45.8025L185.27 29.3397L175.27 26.0841L170.054 42.1119C167.427 41.2505 164.726 40.4313 162.031 39.6125L167.284 23.4806L157.285 20.2192L151.932 36.6761C149.753 36.0123 147.609 35.3629 145.537 34.683L145.553 34.6307L131.757 30.1288L128.279 40.8298C128.279 40.8298 135.714 43.0979 135.548 43.1929C139.598 44.5164 140.148 47.3007 139.871 49.4633L133.776 68.2161C134.053 68.3068 134.411 68.4388 134.812 68.6272L133.753 68.2856L125.209 94.5565C124.615 95.7716 123.203 97.5636 120.367 96.6459C120.463 96.8009 113.099 94.277 113.099 94.277L107.221 105.591L120.242 109.837C122.66 110.63 125.029 111.45 127.36 112.225L121.953 128.874L131.947 132.129L137.3 115.666C140.027 116.612 142.676 117.498 145.268 118.345L139.932 134.738L149.932 137.994L155.337 121.38C172.47 125.898 185.617 125.492 192.223 110.15C197.546 97.7999 193.415 90.1613 184.615 84.7548C191.379 83.6905 196.696 79.6599 198.672 70.6971ZM173.098 101.731C169.064 114.178 148.253 105.825 141.471 103.62L148.652 81.5644C155.433 83.7804 177.323 88.7587 173.098 101.731ZM178.569 69.0945C174.887 80.4155 157.581 73.3058 151.939 71.4667L158.442 51.4678C164.084 53.307 182.409 57.2865 178.569 69.0945Z" fill="url(#paint1_linear_38136_1780)" fill-opacity="0.6"/>
<circle cx="50.5528" cy="79.2724" r="25" transform="rotate(-11 50.5528 79.2724)" fill="#F7931A"/>
<g clip-path="url(#clip0_38136_1780)">
<path fill-rule="evenodd" clip-rule="evenodd" d="M57.9509 75.6378C57.8566 73.3014 55.8523 72.425 53.2777 72.081L53.4641 68.8549L51.4591 68.7607L51.2777 71.9018C50.7513 71.8769 50.2121 71.8617 49.6764 71.847L49.8594 68.6851L47.856 68.5906L47.6689 71.8158C47.2345 71.804 46.8078 71.7918 46.3923 71.7725L46.3926 71.7624L43.628 71.6312L43.5074 73.7285C43.5074 73.7285 44.9892 73.7707 44.963 73.7962C45.7749 73.8347 46.013 74.3089 46.0663 74.7111L45.8541 78.3863C45.9101 78.3892 45.9831 78.395 46.0652 78.41L45.854 78.4002L45.5554 83.5489C45.5053 83.7975 45.3321 84.1896 44.7648 84.1638C44.7891 84.1873 43.3077 84.0947 43.3077 84.0947L42.7741 86.4217L45.3831 86.5444C45.6777 86.5587 45.9693 86.5755 46.2576 86.5922C46.4444 86.603 46.6298 86.6137 46.8138 86.6236L46.6262 89.887L48.6285 89.9817L48.8155 86.7533C49.3641 86.7904 49.8959 86.8198 50.4153 86.8438L50.2287 90.0572L52.2332 90.1515L52.422 86.8945C55.8028 86.8639 58.21 86.1433 58.681 83.0576C59.0617 80.5723 57.928 79.4018 56.041 78.8611C57.2364 78.3351 58.0225 77.3477 57.9509 75.6378ZM54.743 82.4825C54.6142 84.7206 51.0277 84.502 49.3882 84.4021C49.2414 84.3932 49.1102 84.3852 48.9985 84.38L49.2488 80.0569C49.3854 80.0634 49.5514 80.0674 49.7395 80.0719C51.4234 80.1123 54.8738 80.1951 54.743 82.4825ZM49.6927 78.0975C51.0613 78.1841 54.0446 78.3727 54.1626 76.3394C54.2831 74.2593 51.406 74.1986 50.0009 74.169C49.843 74.1657 49.7036 74.1627 49.5892 74.1573L49.3625 78.0782C49.457 78.0826 49.5681 78.0896 49.6927 78.0975Z" fill="white"/>
</g>
<path d="M38.0426 139.771L36.5314 131.996L39.594 131.401C40.5286 131.219 41.2484 131.275 41.7536 131.568C42.2588 131.861 42.5762 132.341 42.706 133.009C42.7854 133.417 42.7386 133.805 42.5656 134.173C42.391 134.533 42.0844 134.8 41.6457 134.975L41.648 134.987C42.1659 134.968 42.5951 135.1 42.9355 135.385C43.2824 135.659 43.4985 136.017 43.584 136.457C43.7138 137.124 43.5726 137.698 43.1605 138.177C42.7484 138.656 42.079 138.986 41.1524 139.166L38.0426 139.771ZM39.0756 138.482L41.0075 138.107C41.5022 138.01 41.8515 137.837 42.0552 137.585C42.2668 137.332 42.3368 137.021 42.265 136.652C42.1933 136.283 42.0119 136.021 41.7209 135.865C41.4378 135.708 41.0489 135.678 40.5541 135.774L38.6223 136.15L39.0756 138.482ZM38.4185 135.101L40.1501 134.765C41.1396 134.572 41.5603 134.095 41.4122 133.334C41.2641 132.572 40.6954 132.287 39.7059 132.479L37.9743 132.816L38.4185 135.101ZM44.9641 131.286C44.6893 131.34 44.4643 131.314 44.2891 131.21C44.1203 131.096 44.0114 130.913 43.9626 130.662C43.9137 130.411 43.947 130.204 44.0624 130.043C44.1857 129.881 44.3847 129.773 44.6596 129.72C44.9266 129.668 45.1437 129.695 45.3111 129.801C45.4862 129.905 45.5982 130.083 45.6471 130.334C45.6959 130.586 45.6595 130.797 45.5377 130.967C45.4223 131.128 45.2311 131.234 44.9641 131.286ZM45.7808 132.154L46.9256 138.044L45.6652 138.289L44.5204 132.399L45.7808 132.154ZM49.1361 129.705L50.274 135.56C50.3305 135.85 50.4463 136.048 50.6215 136.152C50.8045 136.255 51.0256 136.281 51.2847 136.231C51.4968 136.19 51.6752 136.123 51.8201 136.029C51.9634 135.928 52.0903 135.806 52.2009 135.662L52.6623 136.526C52.5122 136.718 52.3128 136.887 52.0641 137.033C51.8217 137.17 51.5396 137.27 51.2176 137.332C50.8799 137.398 50.559 137.403 50.255 137.348C49.9509 137.293 49.6966 137.159 49.4923 136.946C49.2864 136.725 49.1405 136.416 49.0548 136.017L47.9443 130.304L49.1361 129.705ZM51.4987 131.043L51.6911 132.032L47.2737 132.891L47.0814 131.902L51.4987 131.043ZM55.2668 130.188C55.738 130.097 56.1522 130.089 56.5095 130.167C56.8732 130.235 57.1933 130.372 57.4699 130.579C57.7464 130.786 57.9749 131.039 58.1553 131.338L57.0572 132.041C56.8849 131.699 56.6665 131.456 56.4021 131.312C56.1441 131.159 55.8344 131.117 55.4732 131.187C55.1198 131.256 54.8335 131.397 54.6143 131.611C54.3935 131.817 54.2461 132.086 54.1722 132.418C54.1061 132.749 54.1165 133.138 54.2035 133.586C54.289 134.025 54.4282 134.385 54.6213 134.666C54.8143 134.946 55.0517 135.14 55.3336 135.248C55.6154 135.357 55.9291 135.377 56.2746 135.31C56.5416 135.258 56.7649 135.17 56.9444 135.045C57.1224 134.913 57.2582 134.752 57.3518 134.563C57.4517 134.364 57.5016 134.138 57.5014 133.886L58.7196 134.052C58.6783 134.427 58.5658 134.771 58.3822 135.084C58.2048 135.387 57.9578 135.647 57.6413 135.863C57.3233 136.072 56.9404 136.22 56.4928 136.307C55.9117 136.42 55.3736 136.398 54.8787 136.242C54.3838 136.085 53.9664 135.804 53.6265 135.397C53.293 134.981 53.0645 134.455 52.9408 133.819C52.8172 133.183 52.8328 132.613 52.9877 132.11C53.1489 131.598 53.4258 131.178 53.8182 130.849C54.2185 130.518 54.7014 130.298 55.2668 130.188ZM61.8931 128.9C62.4663 128.789 62.9965 128.812 63.4836 128.97C63.9707 129.128 64.381 129.415 64.7145 129.831C65.0543 130.238 65.2861 130.759 65.4097 131.395C65.5334 132.031 65.5146 132.605 65.3533 133.117C65.1984 133.62 64.9247 134.036 64.5323 134.365C64.1398 134.694 63.657 134.914 63.0837 135.026C62.5104 135.137 61.9803 135.114 61.4932 134.956C61.0061 134.798 60.5926 134.516 60.2528 134.109C59.9114 133.694 59.6789 133.169 59.5553 132.533C59.4316 131.897 59.4512 131.327 59.614 130.822C59.7752 130.31 60.052 129.89 60.4445 129.561C60.8369 129.232 61.3198 129.012 61.8931 128.9ZM62.0854 129.89C61.732 129.958 61.4457 130.1 61.2265 130.313C61.0135 130.518 60.8701 130.786 60.7961 131.118C60.7222 131.45 60.7287 131.84 60.8157 132.288C60.9012 132.728 61.0412 133.092 61.2358 133.38C61.4288 133.66 61.6631 133.859 61.9386 133.977C62.2204 134.085 62.538 134.105 62.8914 134.036C63.2448 133.967 63.5279 133.831 63.7408 133.626C63.9522 133.414 64.0949 133.142 64.1689 132.81C64.2413 132.47 64.2348 132.08 64.1493 131.64C64.0623 131.192 63.9223 130.828 63.7292 130.548C63.5362 130.268 63.3027 130.073 63.0287 129.963C62.7532 129.845 62.4388 129.821 62.0854 129.89ZM66.8667 127.029C66.5918 127.082 66.3668 127.057 66.1917 126.952C66.0228 126.838 65.914 126.656 65.8651 126.404C65.8163 126.153 65.8496 125.947 65.965 125.786C66.0882 125.624 66.2873 125.516 66.5621 125.462C66.8291 125.41 67.0463 125.437 67.2136 125.543C67.3888 125.648 67.5008 125.826 67.5496 126.077C67.5985 126.328 67.562 126.539 67.4403 126.71C67.3249 126.87 67.1337 126.977 66.8667 127.029ZM67.6833 127.897L68.8282 133.787L67.5678 134.032L66.4229 128.142L67.6833 127.897ZM70.8002 133.403L69.6554 127.514L70.7744 127.296L71.1546 128.811L70.9576 128.679C71.0019 128.32 71.1048 128.01 71.2662 127.751C71.434 127.482 71.6493 127.269 71.9121 127.112C72.1829 126.953 72.4792 126.842 72.8012 126.78C73.2174 126.699 73.6064 126.709 73.9683 126.81C74.3365 126.901 74.6501 127.089 74.909 127.373C75.1679 127.656 75.3455 128.046 75.4416 128.54L76.1835 132.357L74.9231 132.602L74.2568 129.174C74.1438 128.593 73.9442 128.216 73.6581 128.044C73.3782 127.862 73.0576 127.806 72.6964 127.876C72.4373 127.926 72.1982 128.038 71.9792 128.211C71.7586 128.376 71.5918 128.608 71.4788 128.907C71.3737 129.205 71.3646 129.577 71.4516 130.025L72.0606 133.158L70.8002 133.403Z" fill="#7B7D82"/>
<rect x="85.8615" y="114.177" width="57" height="24" rx="12" transform="rotate(-11 85.8615 114.177)" fill="#FF6838"/>
<path d="M101.092 123.689L101.319 124.855L97.3023 125.636L97.0756 124.47L101.092 123.689ZM106.551 126.576C105.617 126.758 104.817 126.563 104.152 125.992C103.493 125.411 103.036 124.464 102.781 123.153C102.526 121.842 102.596 120.797 102.991 120.019C103.392 119.232 104.06 118.748 104.994 118.566C105.937 118.383 106.737 118.582 107.396 119.163C108.062 119.735 108.522 120.676 108.777 121.988C109.032 123.299 108.958 124.348 108.557 125.135C108.162 125.913 107.494 126.393 106.551 126.576ZM106.343 125.505C106.72 125.431 107.014 125.264 107.224 125.003C107.44 124.733 107.569 124.37 107.611 123.913C107.659 123.448 107.619 122.889 107.493 122.237C107.366 121.585 107.194 121.056 106.977 120.651C106.765 120.235 106.51 119.947 106.209 119.785C105.915 119.614 105.58 119.565 105.203 119.638C104.826 119.712 104.529 119.883 104.313 120.154C104.103 120.415 103.978 120.777 103.937 121.241C103.896 121.698 103.938 122.252 104.065 122.903C104.192 123.555 104.361 124.089 104.572 124.504C104.781 124.912 105.033 125.201 105.327 125.372C105.627 125.534 105.966 125.578 106.343 125.505ZM111.301 123.881C111.568 123.829 111.795 123.866 111.983 123.993C112.177 124.11 112.299 124.298 112.349 124.557C112.4 124.816 112.358 125.04 112.223 125.229C112.097 125.417 111.9 125.537 111.633 125.589C111.358 125.642 111.123 125.606 110.928 125.481C110.74 125.355 110.621 125.162 110.571 124.903C110.52 124.644 110.559 124.424 110.687 124.244C110.822 124.055 111.026 123.934 111.301 123.881ZM111.038 117.514L116.963 116.362L117.167 117.411C116.646 118.213 116.255 119.01 115.994 119.802C115.731 120.587 115.583 121.382 115.552 122.186C115.528 122.982 115.599 123.807 115.765 124.663L114.493 124.911C114.325 124.047 114.268 123.186 114.321 122.328C114.38 121.461 114.558 120.611 114.852 119.78C115.153 118.939 115.578 118.123 116.125 117.332L116.422 117.604L111.251 118.609L111.038 117.514ZM120.83 115.488C121.497 115.359 122.091 115.414 122.61 115.656C123.138 115.895 123.573 116.292 123.917 116.844C124.269 117.395 124.523 118.075 124.68 118.884C124.854 119.779 124.878 120.549 124.75 121.193C124.621 121.829 124.358 122.341 123.961 122.728C123.563 123.115 123.042 123.371 122.398 123.496C121.739 123.624 121.145 123.589 120.618 123.39C120.09 123.191 119.652 122.824 119.303 122.289L120.385 121.504C120.567 121.851 120.805 122.111 121.099 122.282C121.401 122.451 121.772 122.493 122.211 122.408C122.573 122.338 122.861 122.208 123.077 122.02C123.293 121.831 123.446 121.589 123.535 121.295C123.633 120.999 123.676 120.656 123.666 120.267C123.655 119.878 123.604 119.448 123.513 118.977C123.508 118.953 123.504 118.933 123.501 118.918C123.497 118.894 123.492 118.871 123.487 118.847L123.44 118.856C123.415 119.187 123.307 119.473 123.118 119.713C122.936 119.952 122.713 120.147 122.449 120.296C122.183 120.437 121.909 120.535 121.626 120.59C121.123 120.688 120.657 120.677 120.226 120.557C119.801 120.427 119.444 120.203 119.154 119.885C118.864 119.566 118.671 119.16 118.574 118.665C118.469 118.123 118.488 117.635 118.632 117.199C118.783 116.762 119.042 116.398 119.41 116.107C119.783 115.806 120.256 115.6 120.83 115.488ZM121.057 116.593C120.562 116.69 120.207 116.897 119.992 117.216C119.785 117.533 119.728 117.932 119.821 118.411C119.903 118.835 120.105 119.142 120.428 119.332C120.756 119.512 121.152 119.558 121.615 119.468C121.914 119.41 122.165 119.3 122.37 119.137C122.574 118.968 122.717 118.764 122.802 118.528C122.894 118.29 122.913 118.03 122.858 117.747C122.8 117.448 122.684 117.206 122.509 117.02C122.34 116.825 122.131 116.69 121.88 116.617C121.63 116.543 121.355 116.535 121.057 116.593ZM128.244 122.238L131.822 113.474L132.905 113.263L129.34 122.025L128.244 122.238ZM127.016 114.286C127.417 114.208 127.78 114.231 128.105 114.355C128.439 114.478 128.716 114.685 128.935 114.976C129.163 115.266 129.319 115.631 129.405 116.071C129.489 116.503 129.48 116.9 129.379 117.262C129.285 117.614 129.106 117.91 128.843 118.148C128.587 118.385 128.259 118.543 127.859 118.621C127.466 118.697 127.103 118.674 126.77 118.551C126.436 118.429 126.155 118.222 125.928 117.932C125.707 117.633 125.554 117.268 125.47 116.836C125.385 116.396 125.389 116 125.484 115.647C125.586 115.293 125.769 114.997 126.032 114.758C126.296 114.52 126.624 114.362 127.016 114.286ZM127.195 115.205C126.998 115.243 126.84 115.327 126.718 115.456C126.595 115.578 126.516 115.74 126.482 115.942C126.447 116.136 126.455 116.367 126.507 116.634C126.557 116.893 126.636 117.11 126.743 117.285C126.851 117.46 126.984 117.58 127.144 117.647C127.304 117.714 127.482 117.728 127.678 117.69C127.882 117.65 128.046 117.57 128.169 117.448C128.292 117.326 128.37 117.164 128.404 116.962C128.438 116.76 128.43 116.529 128.38 116.27C128.328 116.003 128.249 115.786 128.143 115.619C128.036 115.445 127.903 115.324 127.743 115.257C127.582 115.182 127.399 115.165 127.195 115.205ZM133.29 116.88C133.691 116.802 134.054 116.826 134.38 116.95C134.713 117.072 134.991 117.283 135.212 117.583C135.439 117.873 135.595 118.233 135.679 118.665C135.764 119.105 135.756 119.502 135.654 119.856C135.559 120.209 135.38 120.504 135.117 120.743C134.862 120.98 134.534 121.137 134.133 121.215C133.74 121.291 133.377 121.268 133.044 121.146C132.71 121.023 132.43 120.817 132.202 120.527C131.983 120.235 131.83 119.87 131.745 119.43C131.661 118.998 131.666 118.606 131.76 118.253C131.861 117.892 132.043 117.591 132.307 117.353C132.57 117.114 132.898 116.957 133.29 116.88ZM133.471 117.811C133.275 117.849 133.115 117.929 132.992 118.051C132.869 118.172 132.791 118.334 132.757 118.537C132.721 118.731 132.729 118.962 132.781 119.229C132.832 119.488 132.91 119.705 133.018 119.879C133.125 120.054 133.259 120.179 133.421 120.253C133.58 120.32 133.758 120.335 133.955 120.296C134.159 120.257 134.322 120.176 134.445 120.054C134.567 119.925 134.645 119.759 134.679 119.557C134.713 119.354 134.705 119.124 134.654 118.865C134.604 118.605 134.525 118.388 134.418 118.214C134.31 118.039 134.177 117.918 134.017 117.851C133.857 117.785 133.676 117.771 133.471 117.811Z" fill="#FCFCFD"/>
<path d="M52.1256 177.758C51.089 177.959 50.1065 178.02 49.1781 177.94C48.2497 177.859 47.3972 177.666 46.6207 177.361C45.8599 177.052 45.1952 176.652 44.6268 176.159L46.0051 173.691C46.4545 174.158 46.9921 174.534 47.6182 174.82C48.2412 175.09 48.9196 175.268 49.6534 175.353C50.3841 175.423 51.1107 175.388 51.8332 175.247C52.7913 175.061 53.5146 174.758 54.0033 174.337C54.4919 173.916 54.6767 173.399 54.5577 172.786C54.4813 172.394 54.2586 172.087 53.8896 171.865C53.5362 171.64 52.9658 171.515 52.1783 171.489L48.7335 171.376C47.8143 171.343 47.0054 171.206 46.307 170.967C45.6085 170.728 45.044 170.381 44.6134 169.927C44.1955 169.454 43.9194 168.872 43.7851 168.181C43.608 167.27 43.6942 166.414 44.0437 165.613C44.4089 164.808 45.0058 164.105 45.8343 163.504C46.6785 162.9 47.7524 162.471 49.056 162.218C50.4225 161.952 51.6698 161.954 52.798 162.224C53.9261 162.494 54.9494 163.02 55.8677 163.803L54.528 166.093C53.744 165.414 52.9322 164.969 52.0923 164.757C51.2652 164.527 50.349 164.509 49.3438 164.705C48.6371 164.842 48.0806 165.04 47.6744 165.298C47.2651 165.541 46.9781 165.825 46.8131 166.15C46.6639 166.473 46.6244 166.814 46.6946 167.176C46.7496 167.458 46.8612 167.697 47.0296 167.893C47.198 168.088 47.4733 168.247 47.8555 168.368C48.2503 168.471 48.7928 168.536 49.483 168.565L52.4337 168.652C53.9742 168.695 55.129 168.975 55.8981 169.494C56.6799 169.994 57.173 170.77 57.3776 171.823C57.573 172.828 57.4802 173.734 57.0993 174.542C56.7184 175.349 56.0934 176.033 55.2243 176.593C54.3678 177.134 53.3349 177.523 52.1256 177.758ZM51.4442 180.164L47.5792 160.28L49.7701 159.854L53.6352 179.738L51.4442 180.164ZM60.9834 176.06L60.5529 173.846C61.7833 172.629 62.8106 171.541 63.6347 170.582C64.4716 169.604 65.1243 168.728 65.5929 167.952C66.0742 167.157 66.3903 166.436 66.5413 165.787C66.708 165.135 66.7333 164.511 66.6173 163.914C66.4769 163.192 66.1425 162.646 65.6142 162.276C65.0828 161.89 64.4166 161.775 63.6156 161.931C62.7361 162.102 62.103 162.534 61.7165 163.229C61.3456 163.92 61.2434 164.82 61.41 165.929L58.4004 165.414C58.2714 164.33 58.3785 163.372 58.7219 162.54C59.078 161.688 59.6419 160.983 60.4137 160.426C61.1982 159.85 62.1558 159.452 63.2866 159.232C64.229 159.049 65.0717 159.023 65.8146 159.156C66.5733 159.286 67.234 159.54 67.7968 159.92C68.3565 160.284 68.8043 160.743 69.1402 161.297C69.4918 161.848 69.7302 162.445 69.8554 163.089C70.0508 164.094 69.9842 165.093 69.6556 166.086C69.3427 167.076 68.7613 168.11 67.9114 169.188C67.0615 170.266 65.9458 171.445 64.5645 172.724L64.5691 172.747C64.8016 172.686 65.0813 172.615 65.4081 172.535C65.7505 172.453 66.1024 172.376 66.4636 172.306C66.8218 172.22 67.1344 172.151 67.4014 172.099L71.6892 171.266L72.1975 173.881L60.9834 176.06ZM77.2294 156.522C78.6115 156.253 79.8363 156.349 80.9039 156.81C81.9683 157.255 82.8522 158.028 83.5554 159.13C84.2712 160.214 84.791 161.588 85.1146 163.253C85.4718 165.09 85.5072 166.656 85.221 167.951C84.9316 169.229 84.3644 170.252 83.5193 171.02C82.6899 171.784 81.6391 172.29 80.3669 172.537C79.0319 172.797 77.8226 172.738 76.7389 172.362C75.6709 171.983 74.7805 171.26 74.0677 170.192L76.8124 168.338C77.1104 168.949 77.5095 169.409 78.0099 169.719C78.523 170.011 79.1643 170.081 79.9339 169.932C80.5464 169.813 81.0418 169.594 81.4201 169.276C81.7953 168.943 82.0643 168.524 82.227 168.019C82.4055 167.512 82.4856 166.918 82.4673 166.237C82.4647 165.553 82.3841 164.802 82.2253 163.985C82.2131 163.923 82.2024 163.868 82.1933 163.821C82.1841 163.773 82.1734 163.718 82.1612 163.656L82.067 163.674C82.0011 164.257 81.7912 164.771 81.4373 165.214C81.0961 165.639 80.6753 165.99 80.1749 166.267C79.6714 166.527 79.137 166.713 78.5716 166.823C77.5821 167.015 76.6644 166.99 75.8185 166.747C74.9852 166.485 74.2785 166.035 73.6983 165.398C73.115 164.746 72.7287 163.932 72.5395 162.959C72.3258 161.859 72.3782 160.871 72.6967 159.994C73.0122 159.102 73.5528 158.361 74.3185 157.772C75.0968 157.164 76.0671 156.747 77.2294 156.522ZM77.7658 159.156C76.9334 159.317 76.3274 159.68 75.9478 160.242C75.5809 160.786 75.4783 161.475 75.6401 162.307C75.7836 163.045 76.1321 163.581 76.6857 163.913C77.252 164.227 77.9356 164.306 78.7367 164.15C79.255 164.049 79.6906 163.859 80.0435 163.578C80.4122 163.295 80.6699 162.943 80.8165 162.523C80.9631 162.104 80.9891 161.65 80.8944 161.164C80.7937 160.645 80.5967 160.219 80.3036 159.885C80.0104 159.551 79.6398 159.321 79.1918 159.196C78.7594 159.068 78.2841 159.055 77.7658 159.156ZM90.2786 166.625C90.7812 166.528 91.2218 166.572 91.6005 166.76C91.9761 166.931 92.29 167.204 92.5421 167.579C92.7912 167.938 92.9631 168.361 93.0577 168.848C93.1829 169.492 93.17 170.138 93.019 170.787C92.8837 171.433 92.6341 172.035 92.2702 172.595C91.9063 173.155 91.4598 173.624 90.9306 174.004L89.3018 173.172C89.708 172.914 90.0594 172.625 90.3561 172.307C90.6685 171.985 90.9198 171.643 91.11 171.28C91.3003 170.917 91.4183 170.56 91.4641 170.209L91.3326 170.161C91.2632 170.224 91.1766 170.281 91.0728 170.334C90.972 170.402 90.8195 170.456 90.6153 170.496C90.364 170.545 90.1005 170.531 89.8248 170.454C89.546 170.362 89.2958 170.207 89.0742 169.989C88.8496 169.755 88.6991 169.442 88.6228 169.05C88.5403 168.626 88.5643 168.246 88.6948 167.911C88.8253 167.576 89.0323 167.299 89.3159 167.081C89.5964 166.848 89.9173 166.696 90.2786 166.625ZM101.114 168.504C99.7477 168.77 98.5384 168.712 97.4861 168.329C96.4496 167.944 95.5199 167.228 94.6972 166.182L97.3346 164.154C97.6731 164.805 98.1034 165.3 98.6256 165.638C99.1478 165.977 99.833 166.064 100.681 165.899C101.262 165.786 101.737 165.588 102.106 165.304C102.474 165.021 102.731 164.661 102.874 164.226C103.033 163.787 103.058 163.285 102.948 162.72C102.838 162.155 102.637 161.705 102.344 161.371C102.063 161.018 101.708 160.785 101.279 160.673C100.847 160.545 100.332 160.539 99.7352 160.655C99.3268 160.735 98.9496 160.849 98.6037 160.997C98.2734 161.143 97.9837 161.33 97.7346 161.558C97.4824 161.77 97.2723 162.03 97.1043 162.34L94.4684 162.364L93.7582 153.553L103.158 151.726L103.667 154.341L96.7167 155.692L96.9828 159.577L96.9716 159.897L97.0187 159.887C97.2753 159.446 97.6664 159.069 98.1922 158.755C98.7336 158.438 99.3734 158.207 100.112 158.064C101.132 157.865 102.044 157.9 102.846 158.168C103.648 158.436 104.317 158.901 104.853 159.563C105.386 160.209 105.744 161.003 105.927 161.945C106.101 162.841 106.106 163.663 105.942 164.412C105.775 165.145 105.461 165.793 105 166.355C104.551 166.899 103.996 167.357 103.335 167.73C102.671 168.088 101.931 168.346 101.114 168.504ZM112.684 166.011L110.77 156.163C110.699 155.802 110.628 155.433 110.554 155.056C110.494 154.66 110.432 154.257 110.368 153.845C109.928 154.436 109.414 154.976 108.825 155.465C108.235 155.955 107.609 156.338 106.945 156.613L105.99 153.963C106.345 153.861 106.726 153.681 107.132 153.423C107.551 153.146 107.963 152.838 108.37 152.498C108.789 152.139 109.16 151.782 109.482 151.426C109.817 151.051 110.057 150.695 110.203 150.357L112.842 149.844L115.864 165.393L112.684 166.011ZM125.381 163.787C123.386 164.175 121.716 163.799 120.37 162.659C119.039 161.516 118.117 159.625 117.605 156.986C117.092 154.348 117.238 152.249 118.043 150.691C118.865 149.129 120.272 148.155 122.267 147.767C124.262 147.379 125.924 147.757 127.255 148.9C128.601 150.04 129.531 151.93 130.044 154.568C130.557 157.207 130.402 159.307 129.581 160.868C128.776 162.427 127.376 163.4 125.381 163.787ZM124.873 161.172C125.548 161.041 126.061 160.746 126.412 160.286C126.775 159.808 126.991 159.155 127.058 158.327C127.122 157.483 127.034 156.441 126.793 155.2C126.551 153.959 126.244 152.968 125.872 152.225C125.496 151.467 125.052 150.942 124.539 150.651C124.039 150.34 123.451 150.251 122.775 150.382C122.1 150.513 121.581 150.818 121.217 151.296C120.851 151.759 120.635 152.412 120.571 153.256C120.52 154.081 120.614 155.113 120.856 156.354C121.097 157.595 121.397 158.596 121.757 159.357C122.13 160.1 122.574 160.625 123.09 160.932C123.603 161.223 124.197 161.303 124.873 161.172ZM135.097 157.913C135.725 157.791 136.254 157.868 136.682 158.143C137.126 158.416 137.405 158.842 137.518 159.423C137.634 160.02 137.537 160.528 137.227 160.947C136.93 161.347 136.467 161.608 135.839 161.73C135.211 161.852 134.676 161.785 134.235 161.528C133.807 161.253 133.534 160.817 133.418 160.22C133.305 159.639 133.396 159.141 133.69 158.725C134 158.306 134.469 158.036 135.097 157.913ZM147.586 159.226L146.877 155.575L139.291 157.049L138.878 154.929C138.926 154.757 139 154.547 139.098 154.3C139.21 154.033 139.331 153.733 139.461 153.398L143.622 143.861L147.509 143.105L149.364 152.647L151.884 152.157L152.342 154.512L149.822 155.002L150.531 158.654L147.586 159.226ZM141.613 154.153L146.442 153.214L145.444 148.078C145.38 147.749 145.319 147.394 145.261 147.014C145.204 146.634 145.148 146.262 145.093 145.897L145.046 145.906C144.941 146.286 144.802 146.704 144.63 147.161C144.471 147.599 144.319 147.996 144.176 148.349L141.832 153.646C141.8 153.734 141.76 153.823 141.713 153.914C141.678 153.986 141.645 154.065 141.613 154.153ZM161.41 156.784C159.415 157.172 157.745 156.796 156.398 155.655C155.068 154.512 154.146 152.621 153.633 149.983C153.12 147.344 153.267 145.246 154.072 143.687C154.893 142.126 156.301 141.152 158.296 140.764C160.291 140.376 161.953 140.754 163.284 141.897C164.63 143.037 165.56 144.926 166.072 147.565C166.585 150.204 166.431 152.304 165.61 153.865C164.805 155.423 163.405 156.396 161.41 156.784ZM160.902 154.169C161.577 154.038 162.09 153.742 162.441 153.283C162.804 152.805 163.02 152.152 163.087 151.324C163.151 150.48 163.062 149.438 162.821 148.197C162.58 146.956 162.273 145.964 161.901 145.222C161.525 144.464 161.081 143.939 160.568 143.647C160.067 143.337 159.48 143.248 158.804 143.379C158.129 143.51 157.609 143.815 157.246 144.293C156.879 144.755 156.664 145.409 156.6 146.252C156.548 147.077 156.643 148.11 156.884 149.351C157.126 150.592 157.426 151.593 157.786 152.354C158.159 153.097 158.603 153.621 159.119 153.929C159.632 154.22 160.226 154.3 160.902 154.169Z" fill="#23262F"/>
<path d="M50.636 204.558L49.1248 196.784L52.1874 196.189C53.1219 196.007 53.8418 196.063 54.347 196.356C54.8522 196.649 55.1696 197.129 55.2994 197.796C55.3788 198.205 55.3319 198.593 55.1589 198.961C54.9844 199.32 54.6778 199.588 54.2391 199.763L54.2414 199.775C54.7593 199.755 55.1884 199.888 55.5289 200.172C55.8758 200.447 56.0919 200.804 56.1774 201.244C56.3071 201.912 56.166 202.485 55.7539 202.965C55.3418 203.444 54.6724 203.774 53.7458 203.954L50.636 204.558ZM51.669 203.27L53.6009 202.894C54.0956 202.798 54.4449 202.624 54.6486 202.373C54.8602 202.12 54.9302 201.809 54.8584 201.439C54.7867 201.07 54.6053 200.808 54.3143 200.653C54.0312 200.496 53.6423 200.466 53.1475 200.562L51.2157 200.937L51.669 203.27ZM51.0119 199.889L52.7435 199.552C53.733 199.36 54.1537 198.883 54.0056 198.121C53.8575 197.359 53.2888 197.075 52.2993 197.267L50.5677 197.604L51.0119 199.889ZM62.6273 194.159L62.838 195.243L60.1758 195.761L61.4764 202.451L60.2159 202.696L58.9154 196.006L56.2532 196.523L56.0426 195.439L62.6273 194.159ZM71.4146 198.38C71.3491 198.882 71.1914 199.328 70.9414 199.719C70.6898 200.102 70.3681 200.417 69.976 200.665C69.584 200.912 69.1328 201.085 68.6224 201.184C67.8763 201.329 67.1972 201.294 66.5849 201.079C65.9726 200.864 65.4592 200.487 65.0448 199.948C64.6304 199.41 64.3422 198.724 64.1804 197.892C64.0186 197.059 64.0289 196.315 64.2113 195.661C64.3937 195.006 64.7285 194.464 65.2156 194.035C65.7027 193.606 66.3154 193.32 67.0536 193.177C67.564 193.077 68.0372 193.059 68.473 193.121C68.9167 193.181 69.3113 193.325 69.6568 193.551C70.0023 193.777 70.2948 194.087 70.5343 194.48L69.4476 195.242C69.2005 194.809 68.9071 194.516 68.5675 194.362C68.2263 194.2 67.8162 194.165 67.3372 194.258C66.8582 194.352 66.4602 194.547 66.1432 194.845C65.8262 195.143 65.6076 195.528 65.4874 195.999C65.375 196.469 65.3791 197.015 65.4997 197.635C65.6188 198.248 65.8153 198.755 66.0893 199.159C66.3617 199.554 66.6967 199.831 67.0944 199.99C67.492 200.149 67.9382 200.181 68.433 200.084C68.912 199.991 69.3006 199.789 69.5989 199.479C69.9034 199.159 70.0822 198.737 70.1352 198.213L71.4146 198.38Z" fill="#A4A6AA"/>
<rect x="305.316" y="46.6633" width="201" height="200" rx="24" transform="rotate(34.5 305.316 46.6633)" fill="url(#paint2_linear_38136_1780)" fill-opacity="0.8"/>
<path d="M433.581 149.158L355.674 159.062L395.703 179.589L433.581 149.158Z" fill="#F8F8F8"/>
<path d="M353.504 209.991L327.766 230.668L397.826 227.097L353.504 209.991Z" fill="#F8F8F8"/>
<path d="M329.474 232.794L355.216 212.114L348.073 165.167L329.474 232.794Z" fill="#F8F8F8"/>
<path d="M360.553 204.327L404.862 221.408L393.439 177.907L360.553 204.327Z" fill="#F8F8F8"/>
<path d="M355.128 159.501L362.262 206.454L395.148 180.034L355.128 159.501Z" fill="#F8F8F8"/>
<circle cx="311.351" cy="110.268" r="25" transform="rotate(34.5 311.351 110.268)" fill="#2A5ADA"/>
<path d="M318.058 100.317L313.112 107.513L317.327 114.412L318.058 100.317Z" fill="white" fill-opacity="0.602"/>
<path d="M318.462 100.595L305.565 106.328L313.516 107.791L318.462 100.595Z" fill="white"/>
<path d="M307.825 115.206L304.465 120.096L316.338 115.858L307.825 115.206Z" fill="white" fill-opacity="0.602"/>
<path d="M304.869 120.373L308.23 115.483L304.573 107.772L304.869 120.373Z" fill="white"/>
<path d="M308.746 113.867L317.256 114.515L313.04 107.619L308.746 113.867Z" fill="white" fill-opacity="0.2"/>
<path d="M305.494 106.432L309.15 114.144L313.444 107.896L305.494 106.432Z" fill="white" fill-opacity="0.602"/>
<path d="M259.432 143.749L263.918 137.222L268.645 140.471L268.02 141.381L264.351 138.859L263.059 140.738L265.927 142.709L265.316 143.599L262.448 141.628L261.115 143.567L264.923 146.184L264.298 147.093L259.432 143.749ZM271.258 142.456L267.88 147.371C267.712 147.615 267.652 147.836 267.701 148.034C267.755 148.237 267.892 148.413 268.109 148.563C268.287 148.685 268.46 148.765 268.628 148.803C268.801 148.834 268.977 148.839 269.157 148.817L268.865 149.752C268.622 149.779 268.362 149.756 268.083 149.681C267.816 149.604 267.547 149.472 267.277 149.286C266.993 149.092 266.765 148.866 266.591 148.611C266.417 148.356 266.334 148.08 266.343 147.785C266.356 147.484 266.475 147.163 266.699 146.822L269.996 142.025L271.258 142.456ZM271.96 145.079L271.389 145.91L267.68 143.361L268.251 142.53L271.96 145.079ZM269.646 150.769L274.574 143.6L275.632 144.327L273.559 147.343C273.937 147.147 274.312 147.074 274.684 147.126C275.067 147.176 275.43 147.319 275.773 147.554C276.122 147.794 276.388 148.079 276.57 148.408C276.763 148.734 276.849 149.089 276.828 149.473C276.807 149.857 276.654 150.256 276.368 150.671L274.166 153.876L273.108 153.148L275.079 150.28C275.414 149.793 275.545 149.383 275.472 149.051C275.406 148.724 275.221 148.456 274.918 148.248C274.707 148.103 274.46 148.01 274.176 147.971C273.904 147.929 273.619 147.976 273.322 148.112C273.036 148.246 272.762 148.503 272.499 148.886L270.705 151.497L269.646 150.769ZM277.877 156.572C277.383 156.232 277.018 155.831 276.782 155.368C276.547 154.905 276.455 154.41 276.507 153.883C276.57 153.354 276.785 152.822 277.152 152.288C277.519 151.754 277.936 151.366 278.403 151.124C278.882 150.88 279.376 150.783 279.885 150.832C280.395 150.881 280.884 151.067 281.352 151.389C281.833 151.719 282.174 152.099 282.375 152.528C282.575 152.957 282.646 153.404 282.589 153.869C282.531 154.334 282.353 154.784 282.054 155.22C281.972 155.338 281.892 155.448 281.813 155.549C281.733 155.65 281.66 155.736 281.593 155.806L277.617 153.073L278.174 152.262L281.685 154.675L281.052 154.473C281.36 154.025 281.484 153.605 281.423 153.214C281.366 152.816 281.144 152.483 280.755 152.216C280.471 152.021 280.179 151.917 279.877 151.904C279.575 151.89 279.278 151.977 278.985 152.164C278.696 152.344 278.422 152.622 278.164 152.998C277.91 153.367 277.754 153.721 277.696 154.06C277.638 154.398 277.673 154.708 277.8 154.99C277.927 155.271 278.138 155.514 278.435 155.718C278.765 155.944 279.075 156.065 279.365 156.08C279.656 156.096 279.937 156.032 280.21 155.889L280.779 156.863C280.497 157.018 280.193 157.115 279.866 157.153C279.55 157.188 279.222 157.157 278.882 157.059C278.542 156.961 278.207 156.798 277.877 156.572ZM281.487 158.907L284.885 153.962L285.785 154.581L285.272 155.539C285.626 155.306 285.988 155.196 286.359 155.208C286.74 155.218 287.122 155.354 287.505 155.617C287.604 155.685 287.696 155.763 287.781 155.851C287.871 155.932 287.937 156.011 287.981 156.09L287.193 156.917C287.139 156.841 287.07 156.765 286.987 156.688C286.915 156.609 286.803 156.518 286.651 156.414C286.447 156.273 286.207 156.191 285.932 156.167C285.662 156.137 285.386 156.185 285.105 156.312C284.83 156.444 284.577 156.677 284.346 157.014L282.545 159.634L281.487 158.907ZM287.564 163.229C287.069 162.89 286.704 162.488 286.469 162.026C286.234 161.563 286.142 161.068 286.194 160.541C286.257 160.011 286.472 159.479 286.839 158.945C287.206 158.411 287.623 158.023 288.09 157.781C288.568 157.537 289.062 157.44 289.572 157.489C290.082 157.539 290.571 157.724 291.039 158.046C291.52 158.377 291.861 158.757 292.061 159.186C292.262 159.614 292.333 160.061 292.275 160.527C292.218 160.992 292.039 161.442 291.74 161.877C291.659 161.996 291.578 162.106 291.499 162.207C291.42 162.308 291.347 162.393 291.279 162.463L287.304 159.731L287.861 158.92L291.372 161.333L290.739 161.131C291.047 160.682 291.171 160.262 291.11 159.871C291.053 159.473 290.83 159.14 290.441 158.873C290.158 158.678 289.865 158.574 289.564 158.561C289.262 158.548 288.965 158.635 288.671 158.821C288.382 159.001 288.109 159.279 287.851 159.655C287.597 160.024 287.441 160.378 287.383 160.717C287.325 161.056 287.359 161.366 287.486 161.647C287.613 161.929 287.825 162.171 288.122 162.375C288.451 162.602 288.761 162.723 289.052 162.738C289.342 162.753 289.624 162.689 289.897 162.547L290.465 163.52C290.184 163.676 289.879 163.772 289.553 163.81C289.237 163.845 288.909 163.814 288.569 163.716C288.228 163.618 287.893 163.456 287.564 163.229ZM292.866 166.873C292.543 166.651 292.284 166.386 292.088 166.077C291.899 165.772 291.813 165.432 291.83 165.055C291.846 164.678 291.999 164.278 292.289 163.856L294.532 160.593L295.59 161.32L293.531 164.316C293.223 164.765 293.106 165.14 293.179 165.443C293.257 165.739 293.467 166.005 293.81 166.241C293.975 166.354 294.151 166.437 294.339 166.488C294.538 166.537 294.741 166.546 294.948 166.513C295.159 166.474 295.364 166.382 295.561 166.236C295.765 166.094 295.955 165.895 296.132 165.638L297.974 162.958L299.032 163.685L295.634 168.63L294.704 167.991L295.205 167.156C294.821 167.348 294.434 167.417 294.044 167.363C293.654 167.308 293.261 167.145 292.866 166.873ZM297.287 169.766L300.685 164.821L301.625 165.467L301.103 166.332C301.492 166.133 301.88 166.055 302.268 166.099C302.662 166.146 303.021 166.281 303.344 166.503C303.7 166.748 303.97 167.055 304.153 167.423C304.348 167.79 304.41 168.187 304.34 168.614C304.595 168.469 304.864 168.388 305.149 168.369C305.433 168.351 305.71 168.386 305.979 168.474C306.253 168.556 306.499 168.672 306.717 168.821C307.033 169.039 307.284 169.308 307.471 169.631C307.657 169.953 307.743 170.308 307.729 170.696C307.714 171.084 307.562 171.489 307.272 171.911L305.07 175.115L304.012 174.388L306.098 171.352C306.375 170.95 306.478 170.594 306.41 170.285C306.341 169.975 306.158 169.719 305.861 169.515C305.631 169.356 305.378 169.265 305.103 169.241C304.835 169.222 304.564 169.283 304.291 169.426C304.023 169.562 303.778 169.791 303.556 170.114L301.707 172.804L300.649 172.077L302.736 169.041C303.012 168.639 303.116 168.283 303.047 167.974C302.978 167.664 302.796 167.408 302.499 167.204C302.301 167.068 302.067 166.985 301.797 166.954C301.526 166.924 301.248 166.975 300.962 167.109C300.677 167.242 300.407 167.494 300.153 167.863L298.345 170.493L297.287 169.766Z" fill="#7B7D82"/>
<rect x="325.214" y="169.546" width="54" height="24" rx="12" transform="rotate(34.5 325.214 169.546)" fill="#58BD7D"/>
<path d="M330.084 183.978L326.645 188.982L325.725 188.35L329.164 183.346L330.084 183.978ZM330.638 187.388L330.033 188.268L325.168 184.924L325.773 184.044L330.638 187.388ZM330.643 192.692L333.722 188.212C333.813 188.08 333.906 187.945 334.001 187.806C334.107 187.666 334.218 187.519 334.334 187.365C333.96 187.428 333.574 187.439 333.175 187.398C332.787 187.355 332.419 187.262 332.07 187.12L332.505 186.064C332.657 186.14 332.85 186.204 333.084 186.259C333.319 186.313 333.573 186.352 333.848 186.376C334.123 186.4 334.386 186.406 334.637 186.394C334.892 186.375 335.109 186.335 335.288 186.273L336.178 186.885L331.692 193.412L330.643 192.692ZM334.887 193.643C335.111 193.797 335.244 193.985 335.285 194.207C335.338 194.428 335.289 194.647 335.14 194.864C334.99 195.082 334.801 195.209 334.572 195.246C334.349 195.287 334.126 195.231 333.902 195.077C333.671 194.918 333.532 194.725 333.484 194.498C333.443 194.276 333.497 194.056 333.646 193.838C333.796 193.62 333.98 193.494 334.198 193.46C334.427 193.423 334.657 193.484 334.887 193.643ZM338.861 198.34L339.983 196.708L336.798 194.519L337.295 193.797C337.33 193.773 337.377 193.747 337.435 193.719C337.5 193.696 337.573 193.668 337.653 193.636L343.051 191.609L344.346 192.499L341.546 196.573L342.653 197.335L342.089 198.156L340.982 197.394L339.86 199.026L338.861 198.34ZM338.351 194.378L340.547 195.887L342.131 193.583C342.239 193.424 342.354 193.265 342.474 193.105C342.605 192.943 342.73 192.781 342.85 192.621L342.83 192.607C342.649 192.716 342.433 192.825 342.183 192.934C341.944 193.042 341.728 193.131 341.534 193.201L338.482 194.337C338.46 194.341 338.437 194.345 338.415 194.349C338.399 194.358 338.378 194.367 338.351 194.378ZM343.218 201.334L346.297 196.854C346.387 196.722 346.48 196.587 346.575 196.448C346.682 196.308 346.793 196.161 346.908 196.007C346.534 196.07 346.148 196.082 345.749 196.04C345.361 195.997 344.993 195.904 344.645 195.762L345.079 194.706C345.231 194.782 345.424 194.846 345.659 194.901C345.893 194.955 346.148 194.994 346.423 195.018C346.697 195.042 346.96 195.048 347.211 195.036C347.467 195.017 347.684 194.977 347.862 194.915L348.752 195.527L344.266 202.054L343.218 201.334ZM346.95 203.898L355.708 200.308L356.618 200.933L347.869 204.531L346.95 203.898ZM351.761 197.449C352.097 197.68 352.335 197.955 352.475 198.275C352.621 198.599 352.667 198.941 352.613 199.302C352.566 199.667 352.415 200.035 352.161 200.404C351.912 200.767 351.623 201.039 351.295 201.22C350.977 201.4 350.641 201.48 350.286 201.459C349.938 201.443 349.596 201.32 349.259 201.089C348.93 200.862 348.692 200.587 348.545 200.263C348.399 199.939 348.35 199.594 348.397 199.229C348.455 198.861 348.609 198.496 348.858 198.134C349.112 197.765 349.398 197.49 349.715 197.31C350.04 197.135 350.379 197.058 350.734 197.079C351.089 197.099 351.431 197.223 351.761 197.449ZM351.23 198.221C351.066 198.107 350.894 198.053 350.717 198.057C350.544 198.054 350.373 198.112 350.205 198.229C350.042 198.34 349.883 198.508 349.729 198.732C349.579 198.949 349.48 199.158 349.43 199.357C349.381 199.556 349.388 199.736 349.453 199.896C349.517 200.057 349.631 200.194 349.796 200.307C349.968 200.425 350.14 200.485 350.313 200.488C350.486 200.49 350.657 200.433 350.825 200.315C350.993 200.198 351.152 200.03 351.301 199.813C351.455 199.588 351.555 199.38 351.6 199.188C351.649 198.989 351.641 198.809 351.577 198.648C351.517 198.481 351.402 198.338 351.23 198.221ZM354.308 203.743C354.644 203.974 354.882 204.249 355.022 204.568C355.168 204.892 355.212 205.238 355.154 205.605C355.106 205.971 354.958 206.335 354.709 206.698C354.455 207.067 354.166 207.339 353.842 207.514C353.524 207.694 353.188 207.773 352.833 207.753C352.485 207.737 352.143 207.613 351.807 207.382C351.477 207.156 351.239 206.88 351.093 206.557C350.946 206.233 350.897 205.888 350.944 205.523C350.998 205.162 351.152 204.797 351.406 204.427C351.655 204.065 351.938 203.794 352.256 203.614C352.585 203.432 352.926 203.352 353.281 203.372C353.636 203.393 353.978 203.516 354.308 203.743ZM353.771 204.524C353.606 204.411 353.437 204.353 353.264 204.351C353.091 204.348 352.92 204.406 352.752 204.523C352.589 204.634 352.43 204.801 352.276 205.026C352.126 205.243 352.027 205.451 351.977 205.65C351.928 205.849 351.933 206.033 351.993 206.2C352.057 206.361 352.172 206.498 352.337 206.611C352.508 206.729 352.68 206.789 352.853 206.791C353.031 206.787 353.204 206.726 353.372 206.609C353.54 206.491 353.699 206.324 353.848 206.106C353.998 205.889 354.097 205.68 354.147 205.481C354.196 205.282 354.189 205.103 354.124 204.942C354.06 204.781 353.942 204.642 353.771 204.524Z" fill="#FCFCFD"/>
<path d="M242.209 180.419C241.338 179.821 240.607 179.163 240.013 178.444C239.42 177.726 238.96 176.983 238.633 176.215C238.32 175.456 238.14 174.701 238.093 173.95L240.82 173.203C240.802 173.851 240.91 174.498 241.145 175.145C241.389 175.779 241.738 176.387 242.191 176.971C242.653 177.541 243.188 178.034 243.794 178.451C244.599 179.004 245.322 179.307 245.965 179.361C246.608 179.414 247.106 179.184 247.459 178.67C247.686 178.34 247.749 177.966 247.648 177.547C247.561 177.138 247.25 176.643 246.717 176.063L244.383 173.527C243.763 172.848 243.293 172.175 242.974 171.51C242.655 170.844 242.506 170.198 242.529 169.573C242.573 168.943 242.794 168.338 243.193 167.758C243.719 166.993 244.39 166.455 245.207 166.142C246.036 165.839 246.956 165.772 247.965 165.942C248.988 166.12 250.047 166.586 251.141 167.338C252.288 168.126 253.161 169.017 253.759 170.011C254.358 171.005 254.7 172.104 254.785 173.308L252.212 173.957C252.147 172.922 251.896 172.031 251.458 171.283C251.043 170.532 250.413 169.866 249.569 169.286C248.976 168.878 248.445 168.62 247.976 168.511C247.516 168.39 247.112 168.384 246.764 168.494C246.43 168.614 246.158 168.825 245.95 169.129C245.787 169.366 245.694 169.613 245.673 169.87C245.652 170.127 245.732 170.435 245.913 170.792C246.117 171.146 246.45 171.579 246.913 172.091L248.92 174.257C249.969 175.385 250.578 176.406 250.747 177.318C250.938 178.226 250.73 179.122 250.123 180.005C249.543 180.849 248.832 181.418 247.989 181.713C247.146 182.007 246.22 182.04 245.211 181.813C244.225 181.582 243.224 181.117 242.209 180.419ZM240.015 181.62L251.488 164.926L253.327 166.191L241.854 182.884L240.015 181.62ZM249.628 185.547L250.906 183.688C252.636 183.713 254.132 183.683 255.394 183.599C256.678 183.51 257.76 183.361 258.642 183.152C259.546 182.938 260.282 182.658 260.851 182.311C261.433 181.973 261.896 181.554 262.24 181.053C262.657 180.446 262.812 179.825 262.706 179.188C262.608 178.539 262.223 177.983 261.551 177.521C260.813 177.014 260.06 176.865 259.294 177.077C258.541 177.297 257.827 177.855 257.153 178.75L255.411 176.243C256.093 175.391 256.852 174.796 257.687 174.458C258.544 174.115 259.441 174.023 260.38 174.183C261.341 174.338 262.296 174.742 263.245 175.395C264.036 175.939 264.645 176.522 265.071 177.145C265.511 177.777 265.792 178.427 265.916 179.094C266.049 179.748 266.035 180.389 265.875 181.017C265.729 181.654 265.47 182.243 265.098 182.784C264.518 183.628 263.759 184.28 262.82 184.742C261.895 185.213 260.75 185.523 259.385 185.672C258.021 185.821 256.398 185.852 254.518 185.763L254.504 185.783C254.711 185.906 254.957 186.056 255.243 186.233C255.543 186.419 255.844 186.616 256.147 186.825C256.459 187.02 256.728 187.195 256.952 187.349L260.552 189.823L259.043 192.018L249.628 185.547ZM274.951 183.44C276.111 184.237 276.901 185.178 277.321 186.263C277.75 187.334 277.817 188.507 277.524 189.781C277.253 191.05 276.637 192.384 275.677 193.782C274.617 195.325 273.524 196.448 272.401 197.151C271.286 197.841 270.158 198.153 269.019 198.088C267.892 198.032 266.795 197.637 265.727 196.903C264.606 196.133 263.8 195.23 263.309 194.193C262.831 193.165 262.723 192.023 262.984 190.767L266.23 191.425C266.004 192.065 265.955 192.673 266.085 193.247C266.237 193.817 266.636 194.324 267.282 194.768C267.796 195.122 268.299 195.322 268.791 195.369C269.292 195.403 269.779 195.301 270.253 195.063C270.74 194.835 271.22 194.476 271.693 193.985C272.179 193.504 272.658 192.921 273.129 192.235C273.165 192.182 273.197 192.136 273.224 192.096C273.251 192.057 273.283 192.011 273.319 191.958L273.24 191.904C272.778 192.265 272.265 192.476 271.7 192.534C271.158 192.589 270.613 192.534 270.065 192.371C269.526 192.195 269.019 191.944 268.544 191.617C267.714 191.047 267.089 190.374 266.669 189.601C266.272 188.823 266.097 188.004 266.145 187.143C266.201 186.27 266.511 185.424 267.072 184.607C267.707 183.684 268.448 183.029 269.297 182.641C270.155 182.24 271.062 182.107 272.019 182.24C272.998 182.369 273.975 182.769 274.951 183.44ZM273.448 185.669C272.749 185.189 272.066 185.01 271.399 185.134C270.754 185.253 270.191 185.663 269.71 186.362C269.285 186.981 269.147 187.605 269.298 188.233C269.471 188.857 269.894 189.4 270.566 189.862C271.001 190.161 271.443 190.338 271.89 190.393C272.351 190.457 272.782 190.395 273.184 190.205C273.586 190.016 273.928 189.716 274.209 189.308C274.508 188.873 274.674 188.433 274.707 187.99C274.74 187.547 274.644 187.121 274.419 186.714C274.207 186.316 273.883 185.968 273.448 185.669ZM276.891 199.829C277.313 200.119 277.59 200.465 277.722 200.866C277.863 201.254 277.888 201.669 277.797 202.112C277.716 202.541 277.534 202.96 277.253 203.369C276.882 203.91 276.412 204.354 275.843 204.701C275.288 205.057 274.683 205.301 274.029 205.434C273.375 205.567 272.727 205.577 272.085 205.466L271.537 203.721C272.006 203.83 272.458 203.878 272.893 203.867C273.341 203.864 273.761 203.804 274.153 203.685C274.546 203.566 274.883 203.4 275.166 203.187L275.108 203.059C275.014 203.053 274.913 203.032 274.802 202.995C274.683 202.971 274.537 202.9 274.366 202.782C274.155 202.637 273.98 202.44 273.842 202.189C273.712 201.926 273.648 201.638 273.648 201.328C273.657 201.004 273.774 200.677 274.001 200.347C274.246 199.991 274.533 199.743 274.864 199.601C275.194 199.459 275.536 199.413 275.891 199.462C276.254 199.498 276.587 199.621 276.891 199.829ZM283.145 208.875C281.998 208.086 281.192 207.183 280.727 206.164C280.275 205.155 280.134 203.99 280.304 202.67L283.599 203.129C283.372 203.827 283.321 204.481 283.445 205.091C283.57 205.701 283.988 206.25 284.7 206.74C285.188 207.075 285.662 207.275 286.123 207.339C286.583 207.403 287.019 207.334 287.431 207.131C287.855 206.937 288.23 206.603 288.556 206.129C288.883 205.654 289.062 205.195 289.095 204.751C289.15 204.304 289.067 203.888 288.847 203.503C288.635 203.105 288.278 202.734 287.777 202.39C287.434 202.154 287.089 201.965 286.74 201.822C286.405 201.689 286.068 201.613 285.731 201.595C285.403 201.564 285.07 201.597 284.731 201.694L282.867 199.83L288.653 193.149L296.545 198.573L295.036 200.768L289.201 196.758L286.617 199.67L286.381 199.887L286.421 199.914C286.915 199.788 287.459 199.802 288.051 199.957C288.657 200.121 289.27 200.416 289.889 200.842C290.746 201.431 291.36 202.105 291.731 202.865C292.102 203.625 292.24 204.428 292.143 205.274C292.056 206.107 291.741 206.919 291.197 207.71C290.68 208.462 290.097 209.042 289.448 209.45C288.808 209.845 288.126 210.075 287.401 210.14C286.699 210.201 285.984 210.126 285.254 209.916C284.534 209.693 283.831 209.346 283.145 208.875ZM293.033 215.379L298.715 207.111C298.924 206.808 299.137 206.498 299.354 206.182C299.594 205.861 299.838 205.534 300.087 205.2C299.358 205.301 298.612 205.312 297.85 205.235C297.087 205.158 296.375 204.979 295.714 204.699L296.934 202.16C297.256 202.342 297.651 202.487 298.12 202.596C298.611 202.701 299.12 202.779 299.648 202.831C300.197 202.878 300.712 202.892 301.192 202.873C301.693 202.849 302.116 202.77 302.46 202.637L304.675 204.16L295.703 217.214L293.033 215.379ZM303.519 222.877C301.844 221.726 300.942 220.271 300.811 218.511C300.694 216.761 301.396 214.778 302.919 212.563C304.441 210.348 306.041 208.981 307.717 208.464C309.406 207.955 311.088 208.276 312.762 209.427C314.437 210.578 315.333 212.029 315.45 213.779C315.581 215.538 314.885 217.525 313.362 219.741C311.84 221.956 310.234 223.318 308.545 223.827C306.869 224.344 305.193 224.028 303.519 222.877ZM305.028 220.681C305.595 221.071 306.165 221.23 306.738 221.158C307.334 221.082 307.951 220.778 308.589 220.246C309.235 219.7 309.917 218.906 310.633 217.865C311.349 216.823 311.841 215.909 312.109 215.123C312.387 214.324 312.45 213.639 312.298 213.069C312.169 212.494 311.821 212.012 311.254 211.623C310.687 211.233 310.105 211.076 309.509 211.152C308.923 211.215 308.306 211.519 307.659 212.064C307.035 212.606 306.364 213.397 305.648 214.439C304.932 215.481 304.429 216.397 304.138 217.187C303.87 217.973 303.807 218.658 303.95 219.241C304.101 219.812 304.461 220.292 305.028 220.681ZM314.518 225.69C315.046 226.052 315.361 226.483 315.465 226.981C315.582 227.489 315.473 227.987 315.138 228.475C314.794 228.976 314.363 229.262 313.848 229.335C313.354 229.403 312.843 229.256 312.316 228.894C311.789 228.531 311.462 228.103 311.336 227.609C311.232 227.11 311.352 226.61 311.696 226.109C312.032 225.621 312.451 225.337 312.953 225.255C313.469 225.182 313.991 225.327 314.518 225.69ZM322.336 235.518L324.443 232.452L318.074 228.075L319.297 226.295C319.454 226.209 319.655 226.114 319.9 226.011C320.168 225.904 320.467 225.779 320.798 225.637L330.516 221.92L333.78 224.163L328.274 232.174L330.391 233.628L329.031 235.606L326.915 234.152L324.808 237.217L322.336 235.518ZM321.767 227.701L325.822 230.488L328.785 226.176C328.976 225.899 329.186 225.607 329.417 225.3C329.647 224.992 329.874 224.692 330.095 224.397L330.056 224.37C329.711 224.561 329.316 224.755 328.869 224.953C328.445 225.146 328.056 225.316 327.704 225.462L322.283 227.502C322.198 227.541 322.106 227.575 322.008 227.605C321.932 227.63 321.852 227.663 321.767 227.701ZM333.767 243.666C332.092 242.515 331.19 241.06 331.059 239.3C330.942 237.55 331.644 235.567 333.167 233.352C334.689 231.137 336.289 229.77 337.965 229.253C339.654 228.744 341.336 229.065 343.01 230.216C344.685 231.367 345.581 232.817 345.698 234.568C345.829 236.327 345.133 238.314 343.61 240.53C342.088 242.745 340.482 244.107 338.793 244.615C337.117 245.133 335.441 244.817 333.767 243.666ZM335.276 241.47C335.843 241.86 336.413 242.019 336.986 241.947C337.582 241.871 338.199 241.567 338.837 241.035C339.483 240.489 340.165 239.695 340.881 238.654C341.597 237.612 342.089 236.698 342.357 235.912C342.635 235.112 342.698 234.428 342.546 233.857C342.417 233.283 342.069 232.801 341.502 232.411C340.935 232.022 340.353 231.865 339.757 231.941C339.171 232.003 338.554 232.308 337.907 232.853C337.283 233.395 336.612 234.186 335.896 235.228C335.18 236.27 334.677 237.186 334.386 237.976C334.118 238.762 334.055 239.447 334.198 240.03C334.349 240.601 334.709 241.081 335.276 241.47Z" fill="#23262F"/>
<path d="M222.049 198.142L226.535 191.615L231.262 194.864L230.637 195.773L226.968 193.252L225.677 195.131L228.544 197.102L227.933 197.992L225.065 196.021L223.733 197.959L227.54 200.576L226.915 201.486L222.049 198.142ZM237.678 199.273L237.053 200.183L234.818 198.647L230.957 204.264L229.899 203.537L233.759 197.919L231.524 196.383L232.15 195.474L237.678 199.273ZM244.295 203.821L239.81 210.348L238.741 209.614L243.227 203.087L244.295 203.821ZM240.003 200.871L235.517 207.398L234.459 206.671L238.945 200.144L240.003 200.871ZM241.858 206.223L241.233 207.133L236.951 204.19L237.576 203.28L241.858 206.223Z" fill="#A4A6AA"/>
<defs>
<linearGradient id="paint0_linear_38136_1780" x1="101.456" y1="38.9958" x2="101.456" y2="236.996" gradientUnits="userSpaceOnUse">
<stop stop-color="white"/>
<stop offset="1" stop-color="white" stop-opacity="0"/>
</linearGradient>
<linearGradient id="paint1_linear_38136_1780" x1="157.855" y1="20.2594" x2="149.547" y2="137.967" gradientUnits="userSpaceOnUse">
<stop stop-color="white"/>
<stop offset="1" stop-color="white" stop-opacity="0"/>
</linearGradient>
<linearGradient id="paint2_linear_38136_1780" x1="405.816" y1="46.6633" x2="405.816" y2="246.663" gradientUnits="userSpaceOnUse">
<stop stop-color="white"/>
<stop offset="1" stop-color="white" stop-opacity="0"/>
</linearGradient>
<clipPath id="clip0_38136_1780">
<rect width="24" height="24" fill="white" transform="translate(36.4836 69.7825) rotate(-11)"/>
</clipPath>
</defs>
</svg>
