<svg width="375" height="247" viewBox="0 0 375 247" fill="none" xmlns="http://www.w3.org/2000/svg">
<g filter="url(#filter0_d_38101_1259)">
<rect x="24" y="79.0078" width="327" height="71.504" rx="13.952" fill="url(#paint0_linear_38101_1259)" shape-rendering="crispEdges"/>
<rect x="51.904" y="92.9597" width="43.6" height="43.6" rx="21.8" fill="#2A5ADA"/>
<g clip-path="url(#clip0_38101_1259)">
<path d="M73.704 132.2C83.3358 132.2 91.144 124.392 91.144 114.76C91.144 105.128 83.3358 97.3198 73.704 97.3198C64.0721 97.3198 56.264 105.128 56.264 114.76C56.264 124.392 64.0721 132.2 73.704 132.2Z" fill="#2A5ADA"/>
<path d="M73.704 101.68V111.348L81.8757 114.999L73.704 101.68Z" fill="white" fill-opacity="0.602"/>
<path d="M74.2468 101.68L66.074 114.999L74.2468 111.348V101.68Z" fill="white"/>
<path d="M73.704 121.683V128.253L81.8812 116.94L73.704 121.683Z" fill="white" fill-opacity="0.602"/>
<path d="M74.2468 128.253V121.682L66.074 116.94L74.2468 128.253Z" fill="white"/>
<path d="M73.704 119.884L81.8757 115.139L73.704 111.49V119.884Z" fill="white" fill-opacity="0.2"/>
<path d="M66.074 115.139L74.2468 119.884V111.49L66.074 115.139Z" fill="white" fill-opacity="0.602"/>
</g>
<path d="M107.506 109.272V98.9124H115.009V100.356H109.186V103.339H113.738V104.751H109.186V107.828H115.229V109.272H107.506ZM119.296 99.1164V106.917C119.296 107.304 119.395 107.587 119.594 107.765C119.803 107.943 120.081 108.032 120.426 108.032C120.708 108.032 120.954 107.99 121.164 107.906C121.373 107.812 121.566 107.686 121.744 107.529L122.121 108.754C121.88 108.963 121.582 109.13 121.226 109.256C120.881 109.371 120.494 109.429 120.065 109.429C119.615 109.429 119.202 109.355 118.825 109.209C118.448 109.062 118.155 108.827 117.946 108.503C117.737 108.168 117.627 107.734 117.616 107.2V99.5873L119.296 99.1164ZM121.995 101.424V102.742H116.109V101.424H121.995ZM123.718 109.272V97.8921H125.397V102.679C125.659 102.188 126.009 101.832 126.449 101.612C126.899 101.382 127.396 101.267 127.94 101.267C128.495 101.267 128.992 101.377 129.431 101.596C129.881 101.806 130.237 102.125 130.499 102.554C130.76 102.983 130.891 103.527 130.891 104.186V109.272H129.211V104.72C129.211 103.946 129.049 103.407 128.725 103.103C128.411 102.8 128.013 102.648 127.532 102.648C127.197 102.648 126.862 102.732 126.527 102.899C126.203 103.056 125.931 103.318 125.711 103.684C125.502 104.04 125.397 104.521 125.397 105.128V109.272H123.718ZM136.889 109.429C136.104 109.429 135.414 109.266 134.817 108.942C134.221 108.618 133.755 108.152 133.42 107.545C133.096 106.928 132.934 106.195 132.934 105.348C132.934 104.5 133.096 103.773 133.42 103.166C133.755 102.549 134.215 102.078 134.801 101.753C135.387 101.429 136.052 101.267 136.795 101.267C137.559 101.267 138.207 101.424 138.741 101.738C139.275 102.052 139.683 102.481 139.965 103.025C140.248 103.569 140.389 104.186 140.389 104.877C140.389 105.065 140.384 105.243 140.373 105.411C140.363 105.578 140.347 105.724 140.326 105.85H134.017V104.563H139.589L138.757 104.814C138.757 104.103 138.579 103.558 138.223 103.182C137.867 102.795 137.381 102.601 136.763 102.601C136.313 102.601 135.921 102.706 135.586 102.915C135.251 103.124 134.995 103.438 134.817 103.857C134.639 104.265 134.55 104.767 134.55 105.363C134.55 105.949 134.644 106.446 134.833 106.855C135.021 107.263 135.288 107.571 135.633 107.781C135.979 107.99 136.387 108.095 136.858 108.095C137.381 108.095 137.805 107.995 138.129 107.796C138.453 107.597 138.71 107.32 138.898 106.964L140.232 107.592C140.044 107.969 139.788 108.299 139.463 108.581C139.149 108.853 138.773 109.062 138.333 109.209C137.894 109.355 137.412 109.429 136.889 109.429ZM142.51 109.272V101.424H143.938L144.095 102.836C144.305 102.324 144.613 101.936 145.021 101.675C145.44 101.403 145.953 101.267 146.56 101.267C146.717 101.267 146.874 101.282 147.031 101.314C147.188 101.335 147.318 101.371 147.423 101.424L147.188 102.899C147.072 102.857 146.942 102.826 146.795 102.805C146.659 102.774 146.471 102.758 146.23 102.758C145.906 102.758 145.587 102.847 145.273 103.025C144.959 103.192 144.697 103.449 144.488 103.794C144.289 104.139 144.19 104.579 144.19 105.112V109.272H142.51ZM152.263 109.429C151.478 109.429 150.788 109.266 150.191 108.942C149.595 108.618 149.129 108.152 148.794 107.545C148.47 106.928 148.308 106.195 148.308 105.348C148.308 104.5 148.47 103.773 148.794 103.166C149.129 102.549 149.59 102.078 150.176 101.753C150.762 101.429 151.426 101.267 152.169 101.267C152.933 101.267 153.582 101.424 154.115 101.738C154.649 102.052 155.057 102.481 155.34 103.025C155.622 103.569 155.763 104.186 155.763 104.877C155.763 105.065 155.758 105.243 155.748 105.411C155.737 105.578 155.721 105.724 155.701 105.85H149.391V104.563H154.963L154.131 104.814C154.131 104.103 153.953 103.558 153.597 103.182C153.241 102.795 152.755 102.601 152.138 102.601C151.688 102.601 151.295 102.706 150.96 102.915C150.625 103.124 150.369 103.438 150.191 103.857C150.013 104.265 149.924 104.767 149.924 105.363C149.924 105.949 150.019 106.446 150.207 106.855C150.395 107.263 150.662 107.571 151.007 107.781C151.353 107.99 151.761 108.095 152.232 108.095C152.755 108.095 153.179 107.995 153.503 107.796C153.827 107.597 154.084 107.32 154.272 106.964L155.606 107.592C155.418 107.969 155.162 108.299 154.837 108.581C154.523 108.853 154.147 109.062 153.707 109.209C153.268 109.355 152.786 109.429 152.263 109.429ZM160.678 109.429C160.165 109.429 159.689 109.335 159.25 109.146C158.821 108.958 158.475 108.654 158.214 108.236C157.952 107.817 157.821 107.273 157.821 106.603V101.424H159.501V106.18C159.501 106.891 159.653 107.383 159.956 107.655C160.26 107.917 160.683 108.047 161.227 108.047C161.489 108.047 161.74 108.006 161.981 107.922C162.232 107.828 162.457 107.686 162.656 107.498C162.855 107.299 163.006 107.048 163.111 106.745C163.226 106.441 163.284 106.085 163.284 105.677V101.424H164.963V109.272H163.488L163.409 108C163.137 108.492 162.771 108.853 162.31 109.083C161.85 109.314 161.306 109.429 160.678 109.429ZM167.587 109.272V101.424H169.078L169.157 102.742C169.429 102.24 169.79 101.868 170.24 101.628C170.7 101.387 171.187 101.267 171.699 101.267C172.264 101.267 172.782 101.398 173.253 101.659C173.735 101.91 174.096 102.292 174.336 102.805C174.504 102.46 174.734 102.172 175.027 101.942C175.32 101.711 175.644 101.544 176 101.439C176.356 101.324 176.706 101.267 177.052 101.267C177.554 101.267 178.025 101.371 178.464 101.581C178.904 101.79 179.26 102.109 179.532 102.538C179.804 102.967 179.94 103.517 179.94 104.186V109.272H178.26V104.453C178.26 103.815 178.108 103.354 177.805 103.072C177.502 102.789 177.114 102.648 176.644 102.648C176.277 102.648 175.937 102.737 175.623 102.915C175.32 103.093 175.074 103.36 174.886 103.715C174.697 104.061 174.603 104.49 174.603 105.002V109.272H172.924V104.453C172.924 103.815 172.772 103.354 172.468 103.072C172.165 102.789 171.778 102.648 171.307 102.648C170.993 102.648 170.679 102.732 170.365 102.899C170.051 103.067 169.79 103.328 169.58 103.684C169.371 104.04 169.266 104.511 169.266 105.097V109.272H167.587Z" fill="#23262F"/>
<path d="M107.164 131.248V123.191H113V124.314H108.471V126.633H112.011V127.732H108.471V130.125H113.171V131.248H107.164ZM120.92 123.191V124.314H118.161V131.248H116.854V124.314H114.095V123.191H120.92ZM129.089 123.191V131.248H127.77V123.191H129.089ZM123.79 123.191V131.248H122.484V123.191H123.79ZM128.429 126.609V127.732H123.143V126.609H128.429Z" fill="#7B7D82"/>
<path d="M252.904 109.256C252.192 109.256 251.549 109.167 250.973 108.989C250.408 108.801 249.911 108.55 249.482 108.236C249.063 107.922 248.718 107.561 248.446 107.153L249.56 106.023C249.78 106.389 250.057 106.713 250.392 106.996C250.727 107.268 251.114 107.482 251.554 107.639C251.993 107.796 252.475 107.875 252.998 107.875C253.709 107.875 254.269 107.754 254.677 107.514C255.096 107.263 255.305 106.891 255.305 106.399C255.305 106.117 255.2 105.866 254.991 105.646C254.782 105.416 254.405 105.238 253.861 105.112L251.569 104.579C250.963 104.443 250.46 104.254 250.063 104.014C249.675 103.773 249.388 103.48 249.199 103.135C249.011 102.779 248.917 102.392 248.917 101.973C248.917 101.398 249.069 100.88 249.372 100.419C249.686 99.9588 250.136 99.5925 250.722 99.3205C251.308 99.0379 252.014 98.8967 252.841 98.8967C253.73 98.8967 254.51 99.0641 255.18 99.3989C255.849 99.7338 256.404 100.236 256.843 100.906L255.776 101.942C255.389 101.345 254.949 100.916 254.458 100.655C253.966 100.393 253.38 100.262 252.7 100.262C252.197 100.262 251.784 100.33 251.46 100.466C251.146 100.592 250.91 100.77 250.753 101C250.596 101.22 250.518 101.466 250.518 101.738C250.518 101.957 250.56 102.156 250.643 102.334C250.738 102.512 250.905 102.669 251.146 102.805C251.386 102.941 251.726 103.056 252.166 103.15L254.206 103.605C255.18 103.825 255.87 104.15 256.278 104.579C256.686 105.008 256.89 105.557 256.89 106.227C256.89 106.844 256.723 107.383 256.388 107.843C256.053 108.293 255.588 108.644 254.991 108.895C254.395 109.136 253.699 109.256 252.904 109.256ZM252.244 110.779V97.4056H253.5V110.779H252.244ZM260.923 109.272V102.161C260.923 101.952 260.923 101.738 260.923 101.518C260.934 101.288 260.944 101.047 260.955 100.796C260.599 101.141 260.191 101.439 259.73 101.691C259.28 101.931 258.815 102.104 258.333 102.209L258.019 100.749C258.239 100.717 258.496 100.644 258.789 100.529C259.082 100.414 259.385 100.267 259.699 100.09C260.013 99.9117 260.301 99.7233 260.562 99.5245C260.824 99.3152 261.028 99.1112 261.174 98.9124H262.587V109.272H260.923ZM269.216 98.7554C269.771 98.7554 270.262 98.8339 270.691 98.9908C271.121 99.1373 271.492 99.3728 271.806 99.6972C272.13 100.022 272.397 100.445 272.606 100.969L271.131 101.675C270.984 101.225 270.749 100.869 270.425 100.608C270.111 100.346 269.671 100.215 269.106 100.215C268.698 100.215 268.337 100.315 268.023 100.513C267.709 100.712 267.442 100.995 267.223 101.361C267.003 101.717 266.835 102.141 266.72 102.632C266.605 103.114 266.548 103.637 266.548 104.202C266.548 104.233 266.548 104.27 266.548 104.312C266.548 104.343 266.548 104.401 266.548 104.484L266.611 104.516C266.726 104.097 266.93 103.762 267.223 103.511C267.526 103.25 267.866 103.056 268.243 102.931C268.62 102.805 268.991 102.742 269.357 102.742C270.048 102.742 270.65 102.878 271.162 103.15C271.675 103.412 272.073 103.789 272.355 104.28C272.648 104.772 272.795 105.358 272.795 106.038C272.795 106.729 272.643 107.331 272.34 107.843C272.036 108.346 271.612 108.738 271.068 109.021C270.535 109.293 269.891 109.429 269.138 109.429C268.259 109.429 267.51 109.209 266.893 108.769C266.276 108.33 265.805 107.713 265.48 106.917C265.156 106.122 264.994 105.191 264.994 104.123C264.994 102.941 265.177 101.952 265.543 101.157C265.92 100.362 266.427 99.7652 267.066 99.3676C267.704 98.9595 268.421 98.7554 269.216 98.7554ZM269.106 104.139C268.709 104.139 268.358 104.223 268.055 104.39C267.751 104.547 267.51 104.767 267.333 105.05C267.165 105.332 267.081 105.662 267.081 106.038C267.081 106.405 267.17 106.734 267.348 107.027C267.537 107.32 267.782 107.556 268.086 107.734C268.389 107.901 268.729 107.985 269.106 107.985C269.744 107.985 270.242 107.812 270.597 107.467C270.953 107.121 271.131 106.645 271.131 106.038C271.131 105.651 271.052 105.316 270.896 105.034C270.739 104.741 270.508 104.521 270.205 104.375C269.912 104.218 269.546 104.139 269.106 104.139ZM275.782 107.153C276.075 107.153 276.316 107.226 276.504 107.373C276.703 107.509 276.855 107.702 276.959 107.953C277.064 108.194 277.116 108.471 277.116 108.785C277.116 109.172 277.043 109.544 276.897 109.9C276.75 110.266 276.536 110.595 276.253 110.888C275.981 111.192 275.651 111.438 275.264 111.626L274.479 110.951C274.762 110.847 275.013 110.711 275.233 110.543C275.453 110.376 275.636 110.187 275.782 109.978C275.939 109.769 276.049 109.554 276.112 109.335L276.049 109.303C275.997 109.335 275.934 109.361 275.861 109.382C275.798 109.403 275.704 109.413 275.578 109.413C275.432 109.413 275.28 109.371 275.123 109.287C274.976 109.214 274.851 109.099 274.746 108.942C274.642 108.785 274.589 108.581 274.589 108.33C274.589 108.1 274.642 107.896 274.746 107.718C274.861 107.54 275.008 107.404 275.186 107.31C275.364 107.205 275.562 107.153 275.782 107.153ZM282.919 98.7554C283.474 98.7554 283.966 98.8339 284.395 98.9908C284.824 99.1373 285.195 99.3728 285.509 99.6972C285.834 100.022 286.1 100.445 286.31 100.969L284.834 101.675C284.688 101.225 284.452 100.869 284.128 100.608C283.814 100.346 283.375 100.215 282.81 100.215C282.401 100.215 282.04 100.315 281.727 100.513C281.413 100.712 281.146 100.995 280.926 101.361C280.706 101.717 280.539 102.141 280.424 102.632C280.309 103.114 280.251 103.637 280.251 104.202C280.251 104.233 280.251 104.27 280.251 104.312C280.251 104.343 280.251 104.401 280.251 104.484L280.314 104.516C280.429 104.097 280.633 103.762 280.926 103.511C281.229 103.25 281.57 103.056 281.946 102.931C282.323 102.805 282.694 102.742 283.061 102.742C283.751 102.742 284.353 102.878 284.866 103.15C285.378 103.412 285.776 103.789 286.059 104.28C286.352 104.772 286.498 105.358 286.498 106.038C286.498 106.729 286.346 107.331 286.043 107.843C285.739 108.346 285.316 108.738 284.772 109.021C284.238 109.293 283.594 109.429 282.841 109.429C281.962 109.429 281.214 109.209 280.596 108.769C279.979 108.33 279.508 107.713 279.184 106.917C278.859 106.122 278.697 105.191 278.697 104.123C278.697 102.941 278.88 101.952 279.247 101.157C279.623 100.362 280.131 99.7652 280.769 99.3676C281.407 98.9595 282.124 98.7554 282.919 98.7554ZM282.81 104.139C282.412 104.139 282.061 104.223 281.758 104.39C281.454 104.547 281.214 104.767 281.036 105.05C280.868 105.332 280.785 105.662 280.785 106.038C280.785 106.405 280.874 106.734 281.052 107.027C281.24 107.32 281.486 107.556 281.789 107.734C282.093 107.901 282.433 107.985 282.81 107.985C283.448 107.985 283.945 107.812 284.301 107.467C284.656 107.121 284.834 106.645 284.834 106.038C284.834 105.651 284.756 105.316 284.599 105.034C284.442 104.741 284.212 104.521 283.908 104.375C283.615 104.218 283.249 104.139 282.81 104.139ZM293.096 109.272V106.682H288.041V105.536C288.062 105.484 288.094 105.421 288.136 105.348C288.188 105.274 288.245 105.191 288.308 105.097L292.625 98.9124H294.681V105.379H296.439V106.682H294.681V109.272H293.096ZM289.611 105.379H293.096V101.722C293.096 101.471 293.101 101.214 293.111 100.953C293.132 100.681 293.148 100.414 293.158 100.152H293.127C293.012 100.403 292.86 100.681 292.672 100.984C292.494 101.277 292.326 101.534 292.169 101.753L289.721 105.238C289.7 105.259 289.679 105.28 289.658 105.301C289.648 105.322 289.632 105.348 289.611 105.379ZM300.01 109.272V102.161C300.01 101.952 300.01 101.738 300.01 101.518C300.02 101.288 300.031 101.047 300.041 100.796C299.686 101.141 299.277 101.439 298.817 101.691C298.367 101.931 297.901 102.104 297.42 102.209L297.106 100.749C297.326 100.717 297.582 100.644 297.875 100.529C298.168 100.414 298.472 100.267 298.786 100.09C299.1 99.9117 299.387 99.7233 299.649 99.5245C299.91 99.3152 300.115 99.1112 300.261 98.9124H301.674V109.272H300.01ZM305.289 107.153C305.645 107.153 305.927 107.257 306.137 107.467C306.356 107.666 306.466 107.938 306.466 108.283C306.466 108.628 306.356 108.905 306.137 109.115C305.927 109.324 305.645 109.429 305.289 109.429C304.923 109.429 304.63 109.324 304.41 109.115C304.201 108.905 304.096 108.628 304.096 108.283C304.096 107.938 304.201 107.666 304.41 107.467C304.63 107.257 304.923 107.153 305.289 107.153ZM313.053 109.272V106.682H307.999V105.536C308.02 105.484 308.051 105.421 308.093 105.348C308.145 105.274 308.203 105.191 308.265 105.097L312.582 98.9124H314.638V105.379H316.396V106.682H314.638V109.272H313.053ZM309.568 105.379H313.053V101.722C313.053 101.471 313.058 101.214 313.068 100.953C313.089 100.681 313.105 100.414 313.116 100.152H313.084C312.969 100.403 312.817 100.681 312.629 100.984C312.451 101.277 312.284 101.534 312.127 101.753L309.678 105.238C309.657 105.259 309.636 105.28 309.615 105.301C309.605 105.322 309.589 105.348 309.568 105.379ZM319.967 109.272V102.161C319.967 101.952 319.967 101.738 319.967 101.518C319.978 101.288 319.988 101.047 319.999 100.796C319.643 101.141 319.235 101.439 318.774 101.691C318.324 101.931 317.859 102.104 317.377 102.209L317.063 100.749C317.283 100.717 317.539 100.644 317.832 100.529C318.125 100.414 318.429 100.267 318.743 100.09C319.057 99.9117 319.345 99.7233 319.606 99.5245C319.868 99.3152 320.072 99.1112 320.218 98.9124H321.631V109.272H319.967Z" fill="#23262F"/>
<path d="M288.848 127.427V128.635H284.685V127.427H288.848ZM291.883 131.248V125.718C291.883 125.555 291.883 125.388 291.883 125.217C291.891 125.038 291.899 124.851 291.907 124.655C291.631 124.924 291.313 125.156 290.955 125.351C290.605 125.539 290.243 125.673 289.869 125.754L289.625 124.619C289.795 124.594 289.995 124.537 290.223 124.448C290.451 124.358 290.687 124.244 290.931 124.106C291.175 123.968 291.399 123.821 291.602 123.667C291.806 123.504 291.964 123.345 292.078 123.191H293.177V131.248H291.883ZM295.989 129.6C296.266 129.6 296.486 129.681 296.648 129.844C296.819 129.999 296.905 130.21 296.905 130.479C296.905 130.747 296.819 130.963 296.648 131.126C296.486 131.288 296.266 131.37 295.989 131.37C295.704 131.37 295.476 131.288 295.305 131.126C295.143 130.963 295.061 130.747 295.061 130.479C295.061 130.21 295.143 129.999 295.305 129.844C295.476 129.681 295.704 129.6 295.989 129.6ZM301.158 131.37C300.442 131.37 299.852 131.215 299.388 130.906C298.932 130.597 298.57 130.149 298.302 129.563L299.523 128.928C299.645 129.319 299.828 129.64 300.072 129.893C300.324 130.137 300.695 130.259 301.183 130.259C301.525 130.259 301.814 130.198 302.05 130.076C302.294 129.946 302.481 129.767 302.611 129.539C302.741 129.303 302.807 129.022 302.807 128.696C302.807 128.355 302.745 128.07 302.623 127.842C302.501 127.614 302.326 127.443 302.098 127.329C301.871 127.207 301.586 127.146 301.244 127.146C301.008 127.146 300.788 127.17 300.585 127.219C300.381 127.268 300.198 127.345 300.035 127.451C299.873 127.549 299.73 127.679 299.608 127.842L298.534 127.634L299.022 123.191H303.71V124.314H300.06L299.767 126.584L299.742 126.719H299.767C299.954 126.515 300.194 126.356 300.487 126.243C300.788 126.129 301.142 126.072 301.549 126.072C302.07 126.072 302.518 126.181 302.892 126.401C303.266 126.613 303.559 126.91 303.771 127.292C303.983 127.675 304.088 128.118 304.088 128.623C304.088 129.063 304.015 129.453 303.869 129.795C303.722 130.137 303.515 130.426 303.246 130.662C302.977 130.898 302.664 131.077 302.306 131.199C301.956 131.313 301.573 131.37 301.158 131.37ZM309.228 131.248V129.233H305.297V128.342C305.314 128.302 305.338 128.253 305.371 128.196C305.411 128.139 305.456 128.074 305.505 128L308.862 123.191H310.461V128.22H311.829V129.233H310.461V131.248H309.228ZM306.518 128.22H309.228V125.376C309.228 125.18 309.232 124.981 309.241 124.778C309.257 124.566 309.269 124.358 309.277 124.155H309.253C309.163 124.35 309.045 124.566 308.899 124.802C308.76 125.03 308.63 125.229 308.508 125.4L306.604 128.11C306.587 128.127 306.571 128.143 306.555 128.159C306.547 128.175 306.534 128.196 306.518 128.22ZM314.527 131.248L319.801 123.191H320.924L315.663 131.248H314.527ZM314.845 123.068C315.26 123.068 315.618 123.162 315.919 123.349C316.228 123.536 316.464 123.797 316.627 124.131C316.798 124.464 316.884 124.859 316.884 125.315C316.884 125.762 316.798 126.157 316.627 126.499C316.464 126.833 316.228 127.093 315.919 127.28C315.618 127.467 315.26 127.561 314.845 127.561C314.438 127.561 314.08 127.467 313.771 127.28C313.461 127.093 313.221 126.833 313.05 126.499C312.887 126.157 312.806 125.762 312.806 125.315C312.806 124.859 312.887 124.464 313.05 124.131C313.221 123.797 313.461 123.536 313.771 123.349C314.08 123.162 314.438 123.068 314.845 123.068ZM314.845 124.021C314.641 124.021 314.466 124.074 314.32 124.179C314.173 124.277 314.064 124.424 313.99 124.619C313.917 124.806 313.88 125.038 313.88 125.315C313.88 125.583 313.917 125.815 313.99 126.011C314.064 126.206 314.173 126.352 314.32 126.45C314.466 126.548 314.641 126.597 314.845 126.597C315.056 126.597 315.235 126.548 315.382 126.45C315.528 126.352 315.638 126.206 315.712 126.011C315.785 125.815 315.821 125.583 315.821 125.315C315.821 125.038 315.785 124.806 315.712 124.619C315.638 124.424 315.528 124.277 315.382 124.179C315.235 124.074 315.056 124.021 314.845 124.021ZM320.607 126.877C321.022 126.877 321.38 126.971 321.681 127.158C321.991 127.345 322.227 127.61 322.389 127.952C322.56 128.285 322.646 128.676 322.646 129.124C322.646 129.579 322.56 129.974 322.389 130.308C322.227 130.641 321.991 130.902 321.681 131.089C321.38 131.276 321.022 131.37 320.607 131.37C320.2 131.37 319.842 131.276 319.533 131.089C319.223 130.902 318.983 130.641 318.812 130.308C318.65 129.974 318.568 129.579 318.568 129.124C318.568 128.676 318.65 128.285 318.812 127.952C318.983 127.61 319.223 127.345 319.533 127.158C319.842 126.971 320.2 126.877 320.607 126.877ZM320.607 127.842C320.404 127.842 320.229 127.891 320.082 127.988C319.936 128.086 319.826 128.232 319.752 128.428C319.679 128.615 319.643 128.847 319.643 129.124C319.643 129.392 319.679 129.624 319.752 129.819C319.826 130.015 319.936 130.165 320.082 130.271C320.229 130.369 320.404 130.418 320.607 130.418C320.819 130.418 320.998 130.369 321.144 130.271C321.291 130.165 321.401 130.015 321.474 129.819C321.547 129.624 321.584 129.392 321.584 129.124C321.584 128.855 321.547 128.623 321.474 128.428C321.401 128.232 321.291 128.086 321.144 127.988C320.998 127.891 320.819 127.842 320.607 127.842Z" fill="#7B7D82"/>
<path d="M274.476 128.152L277.268 130.944L280.059 128.152" stroke="#FF6838" stroke-width="1.308" stroke-linecap="round" stroke-linejoin="round"/>
</g>
<defs>
<filter id="filter0_d_38101_1259" x="-63.2" y="0.527808" width="501.4" height="245.904" filterUnits="userSpaceOnUse" color-interpolation-filters="sRGB">
<feFlood flood-opacity="0" result="BackgroundImageFix"/>
<feColorMatrix in="SourceAlpha" type="matrix" values="0 0 0 0 0 0 0 0 0 0 0 0 0 0 0 0 0 0 127 0" result="hardAlpha"/>
<feOffset dy="8.72"/>
<feGaussianBlur stdDeviation="43.6"/>
<feComposite in2="hardAlpha" operator="out"/>
<feColorMatrix type="matrix" values="0 0 0 0 0.333472 0 0 0 0 0.369612 0 0 0 0 0.408333 0 0 0 0.04 0"/>
<feBlend mode="normal" in2="BackgroundImageFix" result="effect1_dropShadow_38101_1259"/>
<feBlend mode="normal" in="SourceGraphic" in2="effect1_dropShadow_38101_1259" result="shape"/>
</filter>
<linearGradient id="paint0_linear_38101_1259" x1="187.5" y1="79.0078" x2="187.5" y2="150.512" gradientUnits="userSpaceOnUse">
<stop stop-color="white"/>
<stop offset="1" stop-color="white" stop-opacity="0"/>
</linearGradient>
<clipPath id="clip0_38101_1259">
<rect width="34.88" height="34.88" fill="white" transform="translate(56.264 97.3198)"/>
</clipPath>
</defs>
</svg>
