<svg width="375" height="528" viewBox="0 0 375 528" fill="none" xmlns="http://www.w3.org/2000/svg">
<g filter="url(#filter0_f_38101_1389)">
<rect x="72.2954" y="194" width="231.415" height="84" rx="16" fill="#A0AEC0" fill-opacity="0.6"/>
</g>
<g filter="url(#filter1_d_38101_1389)">
<rect x="24" y="71" width="327" height="251" rx="24" fill="url(#paint0_linear_38101_1389)" fill-opacity="0.61" shape-rendering="crispEdges"/>
<rect x="24.5" y="71.5" width="326" height="250" rx="23.5" stroke="white" stroke-opacity="0.32" shape-rendering="crispEdges"/>
</g>
<rect x="40" y="95" width="295" height="64" rx="16" fill="url(#paint1_linear_38101_1389)"/>
<rect x="56" y="111" width="32" height="32" rx="16" fill="#F7931A"/>
<g clip-path="url(#clip0_38101_1389)">
<path d="M72 139.8C79.0692 139.8 84.8 134.069 84.8 127C84.8 119.931 79.0692 114.2 72 114.2C64.9308 114.2 59.2 119.931 59.2 127C59.2 134.069 64.9308 139.8 72 139.8Z" fill="#F7931A"/>
<path d="M77.6256 125.416C77.8768 123.739 76.5992 122.838 74.8536 122.236L75.42 119.964L74.0376 119.62L73.4856 121.832C73.1224 121.741 72.7496 121.656 72.3776 121.571L72.9336 119.345L71.5512 119L70.9848 121.271C70.684 121.202 70.388 121.135 70.1016 121.063L70.1032 121.056L68.196 120.58L67.828 122.057C67.828 122.057 68.8544 122.292 68.8328 122.306C69.3928 122.446 69.4936 122.817 69.4768 123.111L68.832 125.699C68.8704 125.709 68.92 125.723 68.976 125.745L68.8296 125.709L67.9256 129.334C67.8568 129.504 67.6832 129.759 67.2912 129.662C67.3056 129.682 66.2864 129.412 66.2864 129.412L65.6 130.994L67.4 131.443C67.7344 131.527 68.0624 131.615 68.3848 131.698L67.8128 133.995L69.1944 134.339L69.7608 132.067C70.1384 132.169 70.5048 132.263 70.8632 132.353L70.2984 134.615L71.6808 134.959L72.2528 132.666C74.6112 133.113 76.384 132.933 77.1304 130.8C77.732 129.083 77.1008 128.092 75.86 127.446C76.764 127.238 77.444 126.644 77.6256 125.416ZM74.4656 129.846C74.0392 131.564 71.1472 130.635 70.2096 130.402L70.9696 127.358C71.9072 127.593 74.9128 128.056 74.4656 129.846ZM74.8936 125.391C74.504 126.954 72.0976 126.159 71.3176 125.965L72.0056 123.205C72.7856 123.399 75.3 123.762 74.8936 125.391Z" fill="white"/>
</g>
<path d="M97.376 132V121.44H102C103.28 121.44 104.224 121.691 104.832 122.192C105.44 122.693 105.744 123.403 105.744 124.32C105.744 124.885 105.573 125.387 105.232 125.824C104.891 126.261 104.389 126.539 103.728 126.656V126.672C104.464 126.779 105.029 127.056 105.424 127.504C105.819 127.952 106.016 128.485 106.016 129.104C106.016 130.011 105.685 130.72 105.024 131.232C104.373 131.744 103.419 132 102.16 132H97.376ZM99.52 130.336H101.968C102.565 130.336 103.008 130.213 103.296 129.968C103.584 129.723 103.728 129.381 103.728 128.944C103.728 128.496 103.584 128.155 103.296 127.92C103.008 127.685 102.565 127.568 101.968 127.568H99.52V130.336ZM99.52 125.872H101.712C102.875 125.872 103.456 125.419 103.456 124.512C103.456 123.605 102.875 123.152 101.712 123.152H99.52V125.872ZM116.48 121.44V123.216H112.944V132H110.736V123.216H107.184V121.44H116.48ZM126.998 129.088C126.795 129.771 126.475 130.341 126.038 130.8C125.601 131.259 125.083 131.6 124.486 131.824C123.889 132.048 123.233 132.16 122.518 132.16C121.473 132.16 120.566 131.941 119.798 131.504C119.041 131.067 118.454 130.443 118.038 129.632C117.633 128.821 117.43 127.851 117.43 126.72C117.43 125.589 117.633 124.619 118.038 123.808C118.454 122.997 119.041 122.373 119.798 121.936C120.566 121.499 121.462 121.28 122.486 121.28C123.211 121.28 123.867 121.381 124.454 121.584C125.041 121.776 125.537 122.08 125.942 122.496C126.358 122.901 126.662 123.408 126.854 124.016L124.854 124.864C124.673 124.224 124.395 123.771 124.022 123.504C123.649 123.227 123.169 123.088 122.582 123.088C122.006 123.088 121.499 123.227 121.062 123.504C120.635 123.781 120.305 124.192 120.07 124.736C119.835 125.269 119.718 125.931 119.718 126.72C119.718 127.499 119.825 128.16 120.038 128.704C120.262 129.248 120.587 129.659 121.014 129.936C121.441 130.213 121.963 130.352 122.582 130.352C123.158 130.352 123.654 130.197 124.07 129.888C124.497 129.579 124.795 129.109 124.966 128.48L126.998 129.088Z" fill="#23262F"/>
<g clip-path="url(#clip1_38101_1389)">
<path d="M140 125L144 129L148 125" stroke="#A7A8AC" stroke-width="1.5" stroke-linecap="round" stroke-linejoin="round"/>
</g>
<path d="M228.312 132.982C227.484 132.982 226.752 132.868 226.116 132.64C225.48 132.412 224.934 132.106 224.478 131.722C224.022 131.338 223.65 130.906 223.362 130.426L224.586 129.436C224.814 129.868 225.102 130.252 225.45 130.588C225.798 130.924 226.218 131.188 226.71 131.38C227.202 131.572 227.766 131.668 228.402 131.668C229.29 131.668 229.992 131.506 230.508 131.182C231.036 130.858 231.3 130.384 231.3 129.76C231.3 129.388 231.174 129.058 230.922 128.77C230.682 128.47 230.226 128.242 229.554 128.086L226.854 127.474C226.134 127.306 225.558 127.084 225.126 126.808C224.694 126.52 224.382 126.184 224.19 125.8C223.998 125.404 223.902 124.978 223.902 124.522C223.902 123.898 224.07 123.328 224.406 122.812C224.754 122.296 225.246 121.882 225.882 121.57C226.53 121.258 227.304 121.102 228.204 121.102C229.212 121.102 230.082 121.306 230.814 121.714C231.558 122.122 232.17 122.734 232.65 123.55L231.48 124.45C231.06 123.706 230.574 123.178 230.022 122.866C229.482 122.554 228.828 122.398 228.06 122.398C227.436 122.398 226.926 122.488 226.53 122.668C226.134 122.836 225.84 123.064 225.648 123.352C225.456 123.64 225.36 123.964 225.36 124.324C225.36 124.6 225.414 124.852 225.522 125.08C225.63 125.308 225.822 125.512 226.098 125.692C226.386 125.86 226.782 126.004 227.286 126.124L229.788 126.682C230.892 126.922 231.66 127.294 232.092 127.798C232.536 128.29 232.758 128.902 232.758 129.634C232.758 130.294 232.572 130.876 232.2 131.38C231.84 131.884 231.324 132.28 230.652 132.568C229.992 132.844 229.212 132.982 228.312 132.982ZM227.628 134.8V119.32H228.87V134.8H227.628Z" fill="#A7A8AC"/>
<path d="M242.152 133V125.476C242.152 125.2 242.152 124.918 242.152 124.63C242.164 124.33 242.176 124.024 242.188 123.712C241.78 124.084 241.324 124.408 240.82 124.684C240.316 124.96 239.8 125.152 239.272 125.26L238.948 123.172C239.224 123.148 239.53 123.07 239.866 122.938C240.214 122.794 240.562 122.626 240.91 122.434C241.27 122.23 241.594 122.02 241.882 121.804C242.182 121.576 242.41 121.348 242.566 121.12H244.582V133H242.152ZM251.53 133.18C250.342 133.18 249.328 132.934 248.488 132.442C247.66 131.938 247.09 131.218 246.778 130.282L249.118 129.256C249.202 129.688 249.34 130.048 249.532 130.336C249.724 130.612 249.982 130.822 250.306 130.966C250.642 131.11 251.038 131.182 251.494 131.182C251.902 131.182 252.244 131.11 252.52 130.966C252.808 130.822 253.03 130.618 253.186 130.354C253.342 130.09 253.42 129.79 253.42 129.454C253.42 129.094 253.348 128.8 253.204 128.572C253.072 128.344 252.868 128.182 252.592 128.086C252.316 127.978 251.968 127.924 251.548 127.924C251.392 127.924 251.242 127.93 251.098 127.942C250.966 127.942 250.816 127.954 250.648 127.978V126.16C250.744 126.172 250.84 126.184 250.936 126.196C251.044 126.196 251.152 126.196 251.26 126.196C251.932 126.196 252.412 126.064 252.7 125.8C253 125.524 253.15 125.086 253.15 124.486C253.15 123.994 253 123.616 252.7 123.352C252.412 123.076 251.998 122.938 251.458 122.938C250.882 122.938 250.426 123.082 250.09 123.37C249.754 123.646 249.52 124.072 249.388 124.648L247.174 123.82C247.318 123.22 247.594 122.704 248.002 122.272C248.422 121.84 248.938 121.51 249.55 121.282C250.162 121.042 250.84 120.922 251.584 120.922C252.472 120.922 253.21 121.06 253.798 121.336C254.398 121.612 254.848 121.99 255.148 122.47C255.46 122.95 255.616 123.502 255.616 124.126C255.616 124.618 255.538 125.038 255.382 125.386C255.238 125.722 255.046 126.01 254.806 126.25C254.578 126.478 254.338 126.652 254.086 126.772C253.834 126.892 253.6 126.964 253.384 126.988V127.042C253.66 127.054 253.942 127.114 254.23 127.222C254.518 127.318 254.782 127.468 255.022 127.672C255.274 127.876 255.478 128.14 255.634 128.464C255.79 128.776 255.868 129.148 255.868 129.58C255.868 130.3 255.676 130.936 255.292 131.488C254.92 132.028 254.41 132.448 253.762 132.748C253.114 133.036 252.37 133.18 251.53 133.18ZM262.598 133.18C261.074 133.18 259.898 132.664 259.07 131.632C258.254 130.6 257.846 129.076 257.846 127.06C257.846 125.044 258.254 123.52 259.07 122.488C259.898 121.456 261.074 120.94 262.598 120.94C264.122 120.94 265.292 121.456 266.108 122.488C266.936 123.52 267.35 125.044 267.35 127.06C267.35 129.076 266.936 130.6 266.108 131.632C265.292 132.664 264.122 133.18 262.598 133.18ZM262.598 131.182C263.114 131.182 263.534 131.038 263.858 130.75C264.194 130.45 264.446 130 264.614 129.4C264.782 128.788 264.866 128.008 264.866 127.06C264.866 126.112 264.782 125.338 264.614 124.738C264.446 124.126 264.194 123.676 263.858 123.388C263.534 123.088 263.114 122.938 262.598 122.938C262.082 122.938 261.656 123.088 261.32 123.388C260.984 123.676 260.732 124.126 260.564 124.738C260.408 125.338 260.33 126.112 260.33 127.06C260.33 128.008 260.408 128.788 260.564 129.4C260.732 130 260.984 130.45 261.32 130.75C261.656 131.038 262.082 131.182 262.598 131.182ZM274.005 120.976C274.857 120.976 275.595 121.108 276.219 121.372C276.855 121.624 277.341 121.99 277.677 122.47C278.025 122.938 278.199 123.508 278.199 124.18C278.199 124.804 278.043 125.344 277.731 125.8C277.431 126.256 276.993 126.604 276.417 126.844V126.862C277.113 127.114 277.659 127.48 278.055 127.96C278.451 128.44 278.649 129.046 278.649 129.778C278.649 130.474 278.457 131.074 278.073 131.578C277.701 132.082 277.167 132.478 276.471 132.766C275.787 133.042 274.965 133.18 274.005 133.18C273.057 133.18 272.235 133.042 271.539 132.766C270.855 132.478 270.321 132.082 269.937 131.578C269.565 131.074 269.379 130.474 269.379 129.778C269.379 129.058 269.577 128.458 269.973 127.978C270.369 127.486 270.921 127.114 271.629 126.862V126.844C271.053 126.616 270.609 126.274 270.297 125.818C269.985 125.35 269.829 124.804 269.829 124.18C269.829 123.508 269.997 122.938 270.333 122.47C270.681 121.99 271.173 121.624 271.809 121.372C272.445 121.108 273.177 120.976 274.005 120.976ZM274.023 122.884C273.459 122.884 273.009 123.022 272.673 123.298C272.337 123.574 272.169 123.958 272.169 124.45C272.169 124.942 272.337 125.326 272.673 125.602C273.009 125.878 273.459 126.016 274.023 126.016C274.575 126.016 275.013 125.878 275.337 125.602C275.673 125.326 275.841 124.942 275.841 124.45C275.841 123.958 275.679 123.574 275.355 123.298C275.031 123.022 274.587 122.884 274.023 122.884ZM274.023 131.254C274.479 131.254 274.869 131.188 275.193 131.056C275.517 130.924 275.763 130.726 275.931 130.462C276.111 130.198 276.201 129.886 276.201 129.526C276.201 129.166 276.111 128.854 275.931 128.59C275.763 128.326 275.511 128.128 275.175 127.996C274.851 127.852 274.467 127.78 274.023 127.78C273.579 127.78 273.189 127.852 272.853 127.996C272.517 128.128 272.259 128.326 272.079 128.59C271.899 128.854 271.809 129.166 271.809 129.526C271.809 129.886 271.899 130.198 272.079 130.462C272.259 130.726 272.511 130.924 272.835 131.056C273.171 131.188 273.567 131.254 274.023 131.254ZM285.436 133.18C283.912 133.18 282.736 132.664 281.908 131.632C281.092 130.6 280.684 129.076 280.684 127.06C280.684 125.044 281.092 123.52 281.908 122.488C282.736 121.456 283.912 120.94 285.436 120.94C286.96 120.94 288.13 121.456 288.946 122.488C289.774 123.52 290.188 125.044 290.188 127.06C290.188 129.076 289.774 130.6 288.946 131.632C288.13 132.664 286.96 133.18 285.436 133.18ZM285.436 131.182C285.952 131.182 286.372 131.038 286.696 130.75C287.032 130.45 287.284 130 287.452 129.4C287.62 128.788 287.704 128.008 287.704 127.06C287.704 126.112 287.62 125.338 287.452 124.738C287.284 124.126 287.032 123.676 286.696 123.388C286.372 123.088 285.952 122.938 285.436 122.938C284.92 122.938 284.494 123.088 284.158 123.388C283.822 123.676 283.57 124.126 283.402 124.738C283.246 125.338 283.168 126.112 283.168 127.06C283.168 128.008 283.246 128.788 283.402 129.4C283.57 130 283.822 130.45 284.158 130.75C284.494 131.038 284.92 131.182 285.436 131.182ZM293.502 130.246C293.982 130.246 294.36 130.378 294.636 130.642C294.924 130.906 295.068 131.26 295.068 131.704C295.068 132.16 294.924 132.52 294.636 132.784C294.36 133.036 293.982 133.162 293.502 133.162C293.022 133.162 292.638 133.036 292.35 132.784C292.074 132.52 291.936 132.16 291.936 131.704C291.936 131.26 292.074 130.906 292.35 130.642C292.638 130.378 293.022 130.246 293.502 130.246ZM301.989 120.94C302.625 120.94 303.201 121.03 303.717 121.21C304.233 121.378 304.683 121.654 305.067 122.038C305.463 122.41 305.769 122.908 305.985 123.532L303.897 124.504C303.753 124.036 303.513 123.67 303.177 123.406C302.853 123.13 302.403 122.992 301.827 122.992C301.419 122.992 301.053 123.088 300.729 123.28C300.417 123.472 300.147 123.748 299.919 124.108C299.691 124.468 299.517 124.9 299.397 125.404C299.277 125.896 299.217 126.442 299.217 127.042C299.217 127.078 299.217 127.12 299.217 127.168C299.217 127.204 299.217 127.264 299.217 127.348L299.271 127.42C299.403 127 299.631 126.652 299.955 126.376C300.291 126.1 300.663 125.896 301.071 125.764C301.491 125.632 301.905 125.566 302.313 125.566C303.069 125.566 303.735 125.716 304.311 126.016C304.899 126.304 305.355 126.724 305.679 127.276C306.015 127.828 306.183 128.488 306.183 129.256C306.183 130.048 306.003 130.744 305.643 131.344C305.295 131.932 304.797 132.388 304.149 132.712C303.513 133.024 302.751 133.18 301.863 133.18C300.855 133.18 299.979 132.94 299.235 132.46C298.503 131.98 297.933 131.29 297.525 130.39C297.129 129.49 296.931 128.404 296.931 127.132C296.931 125.752 297.153 124.606 297.597 123.694C298.041 122.77 298.647 122.08 299.415 121.624C300.183 121.168 301.041 120.94 301.989 120.94ZM301.827 127.384C301.431 127.384 301.083 127.468 300.783 127.636C300.483 127.792 300.243 128.014 300.063 128.302C299.883 128.578 299.793 128.902 299.793 129.274C299.793 129.646 299.883 129.976 300.063 130.264C300.255 130.552 300.501 130.78 300.801 130.948C301.113 131.116 301.455 131.2 301.827 131.2C302.463 131.2 302.955 131.032 303.303 130.696C303.663 130.36 303.843 129.886 303.843 129.274C303.843 128.89 303.765 128.554 303.609 128.266C303.453 127.978 303.225 127.762 302.925 127.618C302.625 127.462 302.259 127.384 301.827 127.384ZM312.434 133.18C311.246 133.18 310.232 132.934 309.392 132.442C308.564 131.938 307.994 131.218 307.682 130.282L310.022 129.256C310.106 129.688 310.244 130.048 310.436 130.336C310.628 130.612 310.886 130.822 311.21 130.966C311.546 131.11 311.942 131.182 312.398 131.182C312.806 131.182 313.148 131.11 313.424 130.966C313.712 130.822 313.934 130.618 314.09 130.354C314.246 130.09 314.324 129.79 314.324 129.454C314.324 129.094 314.252 128.8 314.108 128.572C313.976 128.344 313.772 128.182 313.496 128.086C313.22 127.978 312.872 127.924 312.452 127.924C312.296 127.924 312.146 127.93 312.002 127.942C311.87 127.942 311.72 127.954 311.552 127.978V126.16C311.648 126.172 311.744 126.184 311.84 126.196C311.948 126.196 312.056 126.196 312.164 126.196C312.836 126.196 313.316 126.064 313.604 125.8C313.904 125.524 314.054 125.086 314.054 124.486C314.054 123.994 313.904 123.616 313.604 123.352C313.316 123.076 312.902 122.938 312.362 122.938C311.786 122.938 311.33 123.082 310.994 123.37C310.658 123.646 310.424 124.072 310.292 124.648L308.078 123.82C308.222 123.22 308.498 122.704 308.906 122.272C309.326 121.84 309.842 121.51 310.454 121.282C311.066 121.042 311.744 120.922 312.488 120.922C313.376 120.922 314.114 121.06 314.702 121.336C315.302 121.612 315.752 121.99 316.052 122.47C316.364 122.95 316.52 123.502 316.52 124.126C316.52 124.618 316.442 125.038 316.286 125.386C316.142 125.722 315.95 126.01 315.71 126.25C315.482 126.478 315.242 126.652 314.99 126.772C314.738 126.892 314.504 126.964 314.288 126.988V127.042C314.564 127.054 314.846 127.114 315.134 127.222C315.422 127.318 315.686 127.468 315.926 127.672C316.178 127.876 316.382 128.14 316.538 128.464C316.694 128.776 316.772 129.148 316.772 129.58C316.772 130.3 316.58 130.936 316.196 131.488C315.824 132.028 315.314 132.448 314.666 132.748C314.018 133.036 313.274 133.18 312.434 133.18Z" fill="#23262F"/>
<rect x="40" y="235" width="295" height="64" rx="16" fill="url(#paint2_linear_38101_1389)"/>
<rect x="56" y="251" width="32" height="32" rx="16" fill="#2A5ADA"/>
<g clip-path="url(#clip2_38101_1389)">
<path d="M72 279.8C79.0692 279.8 84.8 274.069 84.8 267C84.8 259.931 79.0692 254.2 72 254.2C64.9308 254.2 59.2 259.931 59.2 267C59.2 274.069 64.9308 279.8 72 279.8Z" fill="#2A5ADA"/>
<path d="M72 257.4V264.496L77.9976 267.176L72 257.4Z" fill="white" fill-opacity="0.602"/>
<path d="M72.3984 257.4L66.4 267.176L72.3984 264.496V257.4Z" fill="white"/>
<path d="M72 272.081V276.903L78.0016 268.6L72 272.081Z" fill="white" fill-opacity="0.602"/>
<path d="M72.3984 276.903V272.081L66.4 268.6L72.3984 276.903Z" fill="white"/>
<path d="M72 270.761L77.9976 267.278L72 264.6V270.761Z" fill="white" fill-opacity="0.2"/>
<path d="M66.4 267.278L72.3984 270.761V264.6L66.4 267.278Z" fill="white" fill-opacity="0.602"/>
</g>
<path d="M97.376 272V261.44H105.296V263.216H99.584V265.84H104.08V267.536H99.584V270.224H105.52V272H97.376ZM115.933 261.44V263.216H112.397V272H110.189V263.216H106.637V261.44H115.933ZM126.889 261.44V272H124.681V261.44H126.889ZM120.025 261.44V272H117.817V261.44H120.025ZM125.833 265.776V267.552H118.921V265.776H125.833Z" fill="#23262F"/>
<g clip-path="url(#clip3_38101_1389)">
<path d="M141 265L145 269L149 265" stroke="#A7A8AC" stroke-width="1.5" stroke-linecap="round" stroke-linejoin="round"/>
</g>
<path d="M237.312 272.982C236.484 272.982 235.752 272.868 235.116 272.64C234.48 272.412 233.934 272.106 233.478 271.722C233.022 271.338 232.65 270.906 232.362 270.426L233.586 269.436C233.814 269.868 234.102 270.252 234.45 270.588C234.798 270.924 235.218 271.188 235.71 271.38C236.202 271.572 236.766 271.668 237.402 271.668C238.29 271.668 238.992 271.506 239.508 271.182C240.036 270.858 240.3 270.384 240.3 269.76C240.3 269.388 240.174 269.058 239.922 268.77C239.682 268.47 239.226 268.242 238.554 268.086L235.854 267.474C235.134 267.306 234.558 267.084 234.126 266.808C233.694 266.52 233.382 266.184 233.19 265.8C232.998 265.404 232.902 264.978 232.902 264.522C232.902 263.898 233.07 263.328 233.406 262.812C233.754 262.296 234.246 261.882 234.882 261.57C235.53 261.258 236.304 261.102 237.204 261.102C238.212 261.102 239.082 261.306 239.814 261.714C240.558 262.122 241.17 262.734 241.65 263.55L240.48 264.45C240.06 263.706 239.574 263.178 239.022 262.866C238.482 262.554 237.828 262.398 237.06 262.398C236.436 262.398 235.926 262.488 235.53 262.668C235.134 262.836 234.84 263.064 234.648 263.352C234.456 263.64 234.36 263.964 234.36 264.324C234.36 264.6 234.414 264.852 234.522 265.08C234.63 265.308 234.822 265.512 235.098 265.692C235.386 265.86 235.782 266.004 236.286 266.124L238.788 266.682C239.892 266.922 240.66 267.294 241.092 267.798C241.536 268.29 241.758 268.902 241.758 269.634C241.758 270.294 241.572 270.876 241.2 271.38C240.84 271.884 240.324 272.28 239.652 272.568C238.992 272.844 238.212 272.982 237.312 272.982ZM236.628 274.8V259.32H237.87V274.8H236.628Z" fill="#A7A8AC"/>
<path d="M248.776 273V271.326C249.856 270.594 250.768 269.934 251.512 269.346C252.268 268.746 252.874 268.194 253.33 267.69C253.798 267.174 254.134 266.688 254.338 266.232C254.554 265.776 254.662 265.32 254.662 264.864C254.662 264.312 254.494 263.862 254.158 263.514C253.822 263.154 253.348 262.974 252.736 262.974C252.064 262.974 251.536 263.202 251.152 263.658C250.78 264.114 250.576 264.762 250.54 265.602L248.398 264.792C248.458 263.976 248.674 263.286 249.046 262.722C249.43 262.146 249.946 261.708 250.594 261.408C251.254 261.096 252.01 260.94 252.862 260.94C253.594 260.94 254.224 261.042 254.752 261.246C255.292 261.45 255.736 261.732 256.084 262.092C256.444 262.44 256.714 262.842 256.894 263.298C257.074 263.754 257.164 264.228 257.164 264.72C257.164 265.488 256.972 266.214 256.588 266.898C256.216 267.582 255.64 268.26 254.86 268.932C254.08 269.604 253.09 270.312 251.89 271.056V271.074C252.07 271.062 252.286 271.05 252.538 271.038C252.802 271.026 253.072 271.02 253.348 271.02C253.624 271.008 253.864 271.002 254.068 271.002H257.344V273H248.776ZM263.677 273.18C262.489 273.18 261.475 272.934 260.635 272.442C259.807 271.938 259.237 271.218 258.925 270.282L261.265 269.256C261.349 269.688 261.487 270.048 261.679 270.336C261.871 270.612 262.129 270.822 262.453 270.966C262.789 271.11 263.185 271.182 263.641 271.182C264.049 271.182 264.391 271.11 264.667 270.966C264.955 270.822 265.177 270.618 265.333 270.354C265.489 270.09 265.567 269.79 265.567 269.454C265.567 269.094 265.495 268.8 265.351 268.572C265.219 268.344 265.015 268.182 264.739 268.086C264.463 267.978 264.115 267.924 263.695 267.924C263.539 267.924 263.389 267.93 263.245 267.942C263.113 267.942 262.963 267.954 262.795 267.978V266.16C262.891 266.172 262.987 266.184 263.083 266.196C263.191 266.196 263.299 266.196 263.407 266.196C264.079 266.196 264.559 266.064 264.847 265.8C265.147 265.524 265.297 265.086 265.297 264.486C265.297 263.994 265.147 263.616 264.847 263.352C264.559 263.076 264.145 262.938 263.605 262.938C263.029 262.938 262.573 263.082 262.237 263.37C261.901 263.646 261.667 264.072 261.535 264.648L259.321 263.82C259.465 263.22 259.741 262.704 260.149 262.272C260.569 261.84 261.085 261.51 261.697 261.282C262.309 261.042 262.987 260.922 263.731 260.922C264.619 260.922 265.357 261.06 265.945 261.336C266.545 261.612 266.995 261.99 267.295 262.47C267.607 262.95 267.763 263.502 267.763 264.126C267.763 264.618 267.685 265.038 267.529 265.386C267.385 265.722 267.193 266.01 266.953 266.25C266.725 266.478 266.485 266.652 266.233 266.772C265.981 266.892 265.747 266.964 265.531 266.988V267.042C265.807 267.054 266.089 267.114 266.377 267.222C266.665 267.318 266.929 267.468 267.169 267.672C267.421 267.876 267.625 268.14 267.781 268.464C267.937 268.776 268.015 269.148 268.015 269.58C268.015 270.3 267.823 270.936 267.439 271.488C267.067 272.028 266.557 272.448 265.909 272.748C265.261 273.036 264.517 273.18 263.677 273.18ZM274.745 273.18C273.221 273.18 272.045 272.664 271.217 271.632C270.401 270.6 269.993 269.076 269.993 267.06C269.993 265.044 270.401 263.52 271.217 262.488C272.045 261.456 273.221 260.94 274.745 260.94C276.269 260.94 277.439 261.456 278.255 262.488C279.083 263.52 279.497 265.044 279.497 267.06C279.497 269.076 279.083 270.6 278.255 271.632C277.439 272.664 276.269 273.18 274.745 273.18ZM274.745 271.182C275.261 271.182 275.681 271.038 276.005 270.75C276.341 270.45 276.593 270 276.761 269.4C276.929 268.788 277.013 268.008 277.013 267.06C277.013 266.112 276.929 265.338 276.761 264.738C276.593 264.126 276.341 263.676 276.005 263.388C275.681 263.088 275.261 262.938 274.745 262.938C274.229 262.938 273.803 263.088 273.467 263.388C273.131 263.676 272.879 264.126 272.711 264.738C272.555 265.338 272.477 266.112 272.477 267.06C272.477 268.008 272.555 268.788 272.711 269.4C272.879 270 273.131 270.45 273.467 270.75C273.803 271.038 274.229 271.182 274.745 271.182ZM282.811 270.246C283.291 270.246 283.669 270.378 283.945 270.642C284.233 270.906 284.377 271.26 284.377 271.704C284.377 272.16 284.233 272.52 283.945 272.784C283.669 273.036 283.291 273.162 282.811 273.162C282.331 273.162 281.947 273.036 281.659 272.784C281.383 272.52 281.245 272.16 281.245 271.704C281.245 271.26 281.383 270.906 281.659 270.642C281.947 270.378 282.331 270.246 282.811 270.246ZM286.595 273V271.326C287.675 270.594 288.587 269.934 289.331 269.346C290.087 268.746 290.693 268.194 291.149 267.69C291.617 267.174 291.953 266.688 292.157 266.232C292.373 265.776 292.481 265.32 292.481 264.864C292.481 264.312 292.313 263.862 291.977 263.514C291.641 263.154 291.167 262.974 290.555 262.974C289.883 262.974 289.355 263.202 288.971 263.658C288.599 264.114 288.395 264.762 288.359 265.602L286.217 264.792C286.277 263.976 286.493 263.286 286.865 262.722C287.249 262.146 287.765 261.708 288.413 261.408C289.073 261.096 289.829 260.94 290.681 260.94C291.413 260.94 292.043 261.042 292.571 261.246C293.111 261.45 293.555 261.732 293.903 262.092C294.263 262.44 294.533 262.842 294.713 263.298C294.893 263.754 294.983 264.228 294.983 264.72C294.983 265.488 294.791 266.214 294.407 266.898C294.035 267.582 293.459 268.26 292.679 268.932C291.899 269.604 290.909 270.312 289.709 271.056V271.074C289.889 271.062 290.105 271.05 290.357 271.038C290.621 271.026 290.891 271.02 291.167 271.02C291.443 271.008 291.683 271.002 291.887 271.002H295.163V273H286.595ZM301.496 273.18C300.308 273.18 299.294 272.934 298.454 272.442C297.626 271.938 297.056 271.218 296.744 270.282L299.084 269.256C299.168 269.688 299.306 270.048 299.498 270.336C299.69 270.612 299.948 270.822 300.272 270.966C300.608 271.11 301.004 271.182 301.46 271.182C301.868 271.182 302.21 271.11 302.486 270.966C302.774 270.822 302.996 270.618 303.152 270.354C303.308 270.09 303.386 269.79 303.386 269.454C303.386 269.094 303.314 268.8 303.17 268.572C303.038 268.344 302.834 268.182 302.558 268.086C302.282 267.978 301.934 267.924 301.514 267.924C301.358 267.924 301.208 267.93 301.064 267.942C300.932 267.942 300.782 267.954 300.614 267.978V266.16C300.71 266.172 300.806 266.184 300.902 266.196C301.01 266.196 301.118 266.196 301.226 266.196C301.898 266.196 302.378 266.064 302.666 265.8C302.966 265.524 303.116 265.086 303.116 264.486C303.116 263.994 302.966 263.616 302.666 263.352C302.378 263.076 301.964 262.938 301.424 262.938C300.848 262.938 300.392 263.082 300.056 263.37C299.72 263.646 299.486 264.072 299.354 264.648L297.14 263.82C297.284 263.22 297.56 262.704 297.968 262.272C298.388 261.84 298.904 261.51 299.516 261.282C300.128 261.042 300.806 260.922 301.55 260.922C302.438 260.922 303.176 261.06 303.764 261.336C304.364 261.612 304.814 261.99 305.114 262.47C305.426 262.95 305.582 263.502 305.582 264.126C305.582 264.618 305.504 265.038 305.348 265.386C305.204 265.722 305.012 266.01 304.772 266.25C304.544 266.478 304.304 266.652 304.052 266.772C303.8 266.892 303.566 266.964 303.35 266.988V267.042C303.626 267.054 303.908 267.114 304.196 267.222C304.484 267.318 304.748 267.468 304.988 267.672C305.24 267.876 305.444 268.14 305.6 268.464C305.756 268.776 305.834 269.148 305.834 269.58C305.834 270.3 305.642 270.936 305.258 271.488C304.886 272.028 304.376 272.448 303.728 272.748C303.08 273.036 302.336 273.18 301.496 273.18ZM313.428 273V270.21H307.632V268.59C307.692 268.47 307.776 268.326 307.884 268.158C308.004 267.978 308.136 267.774 308.28 267.546L312.708 261.12H315.678V268.41H317.604V270.21H315.678V273H313.428ZM309.756 268.41H313.446V264.486C313.446 264.234 313.452 263.964 313.464 263.676C313.476 263.388 313.488 263.106 313.5 262.83H313.464C313.332 263.094 313.17 263.382 312.978 263.694C312.798 263.994 312.63 264.264 312.474 264.504L309.99 268.068C309.954 268.128 309.912 268.188 309.864 268.248C309.828 268.296 309.792 268.35 309.756 268.41Z" fill="#23262F"/>
<line x1="216.675" y1="197" x2="331.383" y2="197" stroke="#E9E9EA" stroke-linecap="round"/>
<line x1="41.6046" y1="197" x2="156.312" y2="197" stroke="#E9E9EA" stroke-linecap="round"/>
<circle cx="187" cy="197" r="22" fill="#767DFF" fill-opacity="0.1"/>
<circle cx="187" cy="197" r="16.1765" fill="#5961FF"/>
<path d="M190.352 194.79H194.512L191.862 192.137C191.008 191.284 189.945 190.67 188.779 190.358C187.614 190.046 186.386 190.046 185.22 190.358C184.054 190.671 182.991 191.285 182.138 192.138C181.285 192.992 180.671 194.055 180.359 195.221M179.487 203.37V199.21M179.487 199.21H183.647M179.487 199.21L182.137 201.862C182.991 202.716 184.054 203.33 185.22 203.642C186.386 203.954 187.613 203.954 188.779 203.642C189.945 203.329 191.008 202.715 191.861 201.862C192.714 201.008 193.328 199.945 193.64 198.779M194.512 190.63V194.788" stroke="white" stroke-width="1.5" stroke-linecap="round" stroke-linejoin="round"/>
<defs>
<filter id="filter0_f_38101_1389" x="-177.705" y="-56" width="731.415" height="584" filterUnits="userSpaceOnUse" color-interpolation-filters="sRGB">
<feFlood flood-opacity="0" result="BackgroundImageFix"/>
<feBlend mode="normal" in="SourceGraphic" in2="BackgroundImageFix" result="shape"/>
<feGaussianBlur stdDeviation="125" result="effect1_foregroundBlur_38101_1389"/>
</filter>
<filter id="filter1_d_38101_1389" x="-76" y="-19" width="527" height="451" filterUnits="userSpaceOnUse" color-interpolation-filters="sRGB">
<feFlood flood-opacity="0" result="BackgroundImageFix"/>
<feColorMatrix in="SourceAlpha" type="matrix" values="0 0 0 0 0 0 0 0 0 0 0 0 0 0 0 0 0 0 127 0" result="hardAlpha"/>
<feOffset dy="10"/>
<feGaussianBlur stdDeviation="50"/>
<feComposite in2="hardAlpha" operator="out"/>
<feColorMatrix type="matrix" values="0 0 0 0 0.333472 0 0 0 0 0.369612 0 0 0 0 0.408333 0 0 0 0.04 0"/>
<feBlend mode="normal" in2="BackgroundImageFix" result="effect1_dropShadow_38101_1389"/>
<feBlend mode="normal" in="SourceGraphic" in2="effect1_dropShadow_38101_1389" result="shape"/>
</filter>
<linearGradient id="paint0_linear_38101_1389" x1="187.5" y1="71" x2="187.5" y2="322" gradientUnits="userSpaceOnUse">
<stop stop-color="white"/>
<stop offset="1" stop-color="white" stop-opacity="0"/>
</linearGradient>
<linearGradient id="paint1_linear_38101_1389" x1="187.5" y1="95" x2="187.5" y2="159" gradientUnits="userSpaceOnUse">
<stop stop-color="white"/>
<stop offset="1" stop-color="white" stop-opacity="0"/>
</linearGradient>
<linearGradient id="paint2_linear_38101_1389" x1="187.5" y1="235" x2="187.5" y2="299" gradientUnits="userSpaceOnUse">
<stop stop-color="white"/>
<stop offset="1" stop-color="white" stop-opacity="0"/>
</linearGradient>
<clipPath id="clip0_38101_1389">
<rect width="25.6" height="25.6" fill="white" transform="translate(59.2 114.2)"/>
</clipPath>
<clipPath id="clip1_38101_1389">
<rect width="16" height="16" fill="white" transform="translate(136 119)"/>
</clipPath>
<clipPath id="clip2_38101_1389">
<rect width="25.6" height="25.6" fill="white" transform="translate(59.2 254.2)"/>
</clipPath>
<clipPath id="clip3_38101_1389">
<rect width="16" height="16" fill="white" transform="translate(137 259)"/>
</clipPath>
</defs>
</svg>
