<svg width="225" height="40" viewBox="0 0 225 40" fill="none" xmlns="http://www.w3.org/2000/svg">
<g id="Logo">
<g id="X-Wallet">
<path d="M32.9467 39.4513H24.0598L16.2566 26.6118L8.56182 39.4513H0L12.3008 21.1797L0.86702 3.23731H9.64559L16.8527 15.4184L24.1682 3.23731H32.2965L20.8085 20.9054L32.9467 39.4513Z" fill="white"/>
<path d="M53.9762 21.6735V28.1481H34.8476V21.6735H53.9762Z" fill="white"/>
<path d="M67.3358 39.4513L56.9316 3.23731H64.8973L71.9419 33.1413L79.0948 3.23731H86.2477L93.509 33.1413L100.499 3.23731H108.14L97.7357 39.4513H89.3365L84.3511 19.6982L82.6712 11.1385H82.5629L80.883 19.6982L75.9518 39.4513H67.3358Z" fill="white"/>
<path d="M126.149 21.9479C126.149 20.3749 125.697 19.1495 124.794 18.2716C123.927 17.3937 122.771 16.9547 121.326 16.9547C119.989 16.9547 118.815 17.3022 117.804 17.9973C116.792 18.6923 116.052 19.8445 115.582 21.454L109.242 19.4787C109.856 17.0645 111.193 15.1257 113.252 13.6626C115.347 12.1994 118.147 11.4678 121.651 11.4678C124.035 11.4678 126.113 11.8519 127.883 12.62C129.653 13.3516 131.026 14.4673 132.001 15.9671C133.013 17.4669 133.518 19.3507 133.518 21.6187V32.7572C133.518 34.1472 134.169 34.8423 135.469 34.8423C136.083 34.8423 136.661 34.7508 137.203 34.5679L136.77 39.2318C135.831 39.7074 134.656 39.9451 133.248 39.9451C131.983 39.9451 130.845 39.7257 129.834 39.2867C128.822 38.8477 128.027 38.1893 127.449 37.3114C126.871 36.3969 126.582 35.2629 126.582 33.9095V33.69L127.883 33.4705C127.666 34.8605 127.07 36.0494 126.095 37.037C125.119 37.9881 123.927 38.7197 122.518 39.2318C121.145 39.7439 119.718 40 118.237 40C116.395 40 114.805 39.7257 113.469 39.177C112.132 38.5917 111.102 37.7503 110.38 36.653C109.657 35.5556 109.296 34.2021 109.296 32.5926C109.296 30.5441 109.946 28.8797 111.247 27.5995C112.547 26.2826 114.408 25.3864 116.828 24.9108L127.016 22.8258L126.962 27.4897L120.459 28.8066C119.231 29.0626 118.291 29.4102 117.641 29.8491C117.027 30.2515 116.72 30.9282 116.72 31.8793C116.72 32.7938 117.045 33.4888 117.695 33.9643C118.382 34.4399 119.195 34.6776 120.134 34.6776C120.892 34.6776 121.633 34.5862 122.356 34.4033C123.078 34.2204 123.728 33.9278 124.306 33.5254C124.884 33.123 125.336 32.5743 125.661 31.8793C125.986 31.1843 126.149 30.3429 126.149 29.3553V21.9479Z" fill="white"/>
<path d="M148.866 0V31.0014C148.866 32.2817 149.082 33.1779 149.516 33.69C149.949 34.2021 150.672 34.4582 151.684 34.4582C152.298 34.4582 152.803 34.4216 153.201 34.3484C153.598 34.2387 154.104 34.0924 154.718 33.9095L154.068 38.8477C153.454 39.2135 152.677 39.4879 151.738 39.6708C150.835 39.8903 149.931 40 149.028 40C146.391 40 144.458 39.3599 143.23 38.0796C142.038 36.7627 141.442 34.6776 141.442 31.8244V0H148.866Z" fill="white"/>
<path d="M165.899 0V31.0014C165.899 32.2817 166.116 33.1779 166.549 33.69C166.983 34.2021 167.705 34.4582 168.717 34.4582C169.331 34.4582 169.837 34.4216 170.234 34.3484C170.632 34.2387 171.137 34.0924 171.752 33.9095L171.101 38.8477C170.487 39.2135 169.71 39.4879 168.771 39.6708C167.868 39.8903 166.965 40 166.062 40C163.425 40 161.492 39.3599 160.264 38.0796C159.071 36.7627 158.475 34.6776 158.475 31.8244V0H165.899Z" fill="white"/>
<path d="M188.189 40C185.335 40 182.842 39.433 180.711 38.299C178.616 37.1651 176.99 35.5373 175.834 33.4156C174.678 31.294 174.1 28.7334 174.1 25.7339C174.1 22.7343 174.678 20.1738 175.834 18.0521C176.99 15.9305 178.598 14.3027 180.657 13.1687C182.752 12.0347 185.136 11.4678 187.81 11.4678C190.555 11.4678 192.885 12.0347 194.8 13.1687C196.715 14.2661 198.178 15.7842 199.189 17.7229C200.201 19.6251 200.707 21.8016 200.707 24.2524C200.707 24.984 200.688 25.679 200.652 26.3375C200.616 26.9959 200.562 27.5812 200.49 28.0933H178.868V22.8807H197.238L193.662 24.1975C193.662 21.893 193.138 20.1189 192.091 18.8752C191.079 17.6315 189.634 17.0096 187.755 17.0096C186.383 17.0096 185.19 17.3388 184.179 17.9973C183.204 18.6557 182.463 19.6433 181.957 20.9602C181.451 22.2405 181.199 23.8683 181.199 25.8436C181.199 27.7824 181.47 29.3919 182.011 30.6722C182.589 31.9159 183.384 32.8487 184.396 33.4705C185.443 34.0924 186.69 34.4033 188.135 34.4033C189.724 34.4033 191.007 34.0924 191.982 33.4705C192.958 32.8487 193.716 31.989 194.258 30.8916L200.165 33.1962C199.587 34.6228 198.702 35.8482 197.509 36.8724C196.353 37.8967 194.963 38.6831 193.337 39.2318C191.747 39.7439 190.031 40 188.189 40Z" fill="white"/>
<path d="M215.842 3.6214V30.5075C215.842 31.8244 216.167 32.7938 216.818 33.4156C217.504 34.0009 218.425 34.2936 219.581 34.2936C220.52 34.2936 221.315 34.1655 221.965 33.9095C222.652 33.6168 223.266 33.2327 223.808 32.7572L225 37.7503C224.133 38.4454 223.049 38.9941 221.749 39.3964C220.448 39.7988 219.075 40 217.63 40C215.824 40 214.216 39.7257 212.808 39.177C211.435 38.6283 210.351 37.7503 209.556 36.5432C208.798 35.3361 208.418 33.7266 208.418 31.7147V5.70645L215.842 3.6214ZM224.512 12.0165V17.6132H203.433V12.0165H224.512Z" fill="white"/>
</g>
</g>
</svg>
